<svg width="24" height="28" viewBox="0 0 24 28" fill="none" xmlns="http://www.w3.org/2000/svg">
<path d="M16.2934 12.293L10.5569 18.0294L8.25972 15.3493L6.74121 16.6509L10.444 20.9708L17.7076 13.7072L16.2934 12.293Z" fill="#00C373"/>
<path fill-rule="evenodd" clip-rule="evenodd" d="M12 26C17.5228 26 22 21.5228 22 16C22 10.4772 17.5228 6 12 6C6.47715 6 2 10.4772 2 16C2 21.5228 6.47715 26 12 26ZM20 16C20 20.4183 16.4183 24 12 24C7.58172 24 4 20.4183 4 16C4 11.5817 7.58172 8 12 8C16.4183 8 20 11.5817 20 16Z" fill="#00C373"/>
</svg>
