<svg width="24" height="24" viewBox="0 0 24 24" fill="none" xmlns="http://www.w3.org/2000/svg">
<path d="M12.487 7.26362L8.20918 11.5272L6.74147 10.0644L8.69689 8.11547C5.78871 8.58577 3.57843 10.859 3.57843 13.5864C3.57843 16.6538 6.37393 19.1466 9.81373 19.1466L9.81375 21C5.22041 21 1.5 17.6824 1.5 13.5864C1.5 9.87563 4.55356 6.80372 8.54337 6.25877L6.74147 4.46284L8.20918 3L12.487 7.26362Z" fill="#4B525A"/>
<path fill-rule="evenodd" clip-rule="evenodd" d="M15.7656 17.25C15.7656 19.2887 17.0542 20.9774 19.1222 20.9774C21.1955 20.9774 22.4997 19.17 22.4997 17.2088C22.4997 15.1701 21.2111 13.4814 19.143 13.4814C17.0739 13.4814 15.7656 15.2928 15.7656 17.25ZM19.1222 15.2422C20.9415 15.2422 20.9906 19.2064 19.143 19.2064C17.3281 19.2064 17.311 15.2422 19.1222 15.2422Z" fill="#4B525A"/>
<path d="M12.2531 15.4273V20.8331H14.238V13.574H12.7727L10.6423 14.1712L11.0268 15.7157L12.2531 15.4273Z" fill="#4B525A"/>
</svg>
