<svg width="24" height="24" viewBox="0 0 24 24" fill="none" xmlns="http://www.w3.org/2000/svg">
<path fill-rule="evenodd" clip-rule="evenodd" d="M7.36865 5.97363C8.65822 5.38036 10.1944 5.00005 11.9995 5C18.1558 5 21.1905 9.40897 21.9487 11.6836L22.0542 12L21.9487 12.3164C21.5223 13.5957 20.3742 15.5477 18.3569 17.0127L21.9136 20.5859L20.4995 22L1.99951 3.41406L3.41357 2L7.36865 5.97363ZM11.9995 7C10.8289 7.00004 9.79879 7.19331 8.8999 7.51172L10.5015 9.12109C10.9475 8.87387 11.4577 8.7334 12.0005 8.7334C13.7514 8.73359 15.1645 10.1926 15.1646 12C15.1646 12.5283 15.0423 13.0259 14.8276 13.4668L16.9233 15.5723C18.5447 14.4929 19.5103 13.0264 19.9331 12C19.1868 10.1884 16.7522 7 11.9995 7Z" fill="#4B525A"/>
<path d="M5.51221 9.77148C4.80237 10.5521 4.3299 11.3616 4.06689 12C4.81317 13.8115 7.24714 16.9998 11.9995 17C12.2435 17 12.4815 16.9888 12.7134 16.9727L14.48 18.7393C13.7168 18.9043 12.8911 19 11.9995 19C5.84357 18.9998 2.80955 14.591 2.05127 12.3164L1.9458 12L2.05127 11.6836C2.35375 10.7763 3.01869 9.52964 4.09912 8.3584L5.51221 9.77148Z" fill="#4B525A"/>
</svg>
