<svg width="24" height="24" viewBox="0 0 24 24" fill="none" xmlns="http://www.w3.org/2000/svg">
<path d="M10.6668 2H9.65959L9.74786 3.01368C9.81771 3.81587 9.6493 4.37713 9.36518 4.86056C9.05727 5.38449 8.60424 5.83977 8.01041 6.42629L7.97768 6.45862C7.34698 7.08146 6.61305 7.80623 6.02607 8.79936L5.47694 7.23615L4.45199 8.73821C3.53579 10.0809 3 11.6882 3 13.4158C3 13.9847 3.05904 14.538 3.17085 15.0718L4.84506 13.3976C4.84715 12.6576 4.97638 11.9454 5.21428 11.279C5.2715 11.3611 5.33041 11.4421 5.39095 11.5217L6.53675 13.0293L7.01487 11.191C7.42509 9.61377 8.33322 8.71391 9.33886 7.721C9.88767 7.17912 10.5086 6.56599 10.9516 5.8122C11.2561 5.29416 11.4727 4.71988 11.5625 4.0605C12.2731 4.35365 13.0639 4.97436 13.8425 5.9195C14.9351 7.24591 15.8476 9.03146 16.3037 10.8046L16.8273 12.8401L17.9682 11.081C18.1176 10.8506 18.254 10.6113 18.3763 10.3642C18.8757 11.2824 19.155 12.3198 19.155 13.4158C19.155 17.0717 16.0084 20.136 12 20.136C9.63027 20.136 7.33673 18.9366 6.00962 17.051L7.57037 15.4903L9.53635 16.9647L13.25 13.7153V16H14.75V11.25H10V12.75H12.0753L9.46364 15.0352L7.42962 13.5097L3.87109 17.051L3.91661 17.1545C5.42614 20.0583 8.60773 22 12 22C16.9138 22 21 18.2123 21 13.4158C21 11.2317 20.1443 9.24395 18.75 7.73719L17.505 6.39185L17.2241 7.90669C16.6922 6.74112 16.0179 5.64644 15.2607 4.72715C14.025 3.22708 12.4018 2 10.6668 2Z" fill="#4B525A"/>
</svg>
