<svg width="24" height="24" viewBox="0 0 24 24" fill="none" xmlns="http://www.w3.org/2000/svg">
<path fill-rule="evenodd" clip-rule="evenodd" d="M21.9943 11.6606C21.9709 10.958 21.875 10.2739 21.7139 9.61526C21.0597 6.94125 19.3301 4.68916 17.0096 3.34337C16.4178 3.00018 15.7876 2.71593 15.127 2.49864C14.1433 2.17506 13.0921 2 12 2C6.5861 2 2.17705 6.30225 2.0052 11.6744C2.00174 11.7825 2 11.8911 2 12C2 15.9359 4.27381 19.3406 7.57947 20.9724C8.91236 21.6303 10.413 22 12 22C17.5228 22 22 17.5228 22 12C22 11.8864 21.9981 11.7733 21.9943 11.6606ZM19.7459 9.99206C19.2131 7.93058 17.879 6.19138 16.0957 5.12649C16.033 5.40765 16 5.69997 16 6C16 8.12379 17.6552 9.861 19.7459 9.99206ZM12 20C11.4928 20 10.9967 19.9528 10.5158 19.8626C12.0209 18.7724 13 17.0006 13 15C13 11.6863 10.3137 9 7 9C6.05407 9 5.15927 9.2189 4.36348 9.6088C5.38017 6.35857 8.41465 4 12 4C12.7772 4 13.5286 4.11084 14.2391 4.31757C14.0835 4.85137 14 5.41594 14 6C14 9.31371 16.6863 12 20 12C20 16.4183 16.4183 20 12 20ZM11 15C11 16.8879 9.69215 18.4703 7.93306 18.8906C5.67183 17.5531 4.12595 15.1342 4.00734 12.3459C4.7401 11.5203 5.80929 11 7 11C9.20914 11 11 12.7909 11 15Z" fill="#4B525A"/>
</svg>
