<svg width="24" height="24" viewBox="0 0 24 24" fill="none" xmlns="http://www.w3.org/2000/svg">
<path d="M5.94483 6.80565L5.94456 3.99995L4.00016 3.99988L4.00004 10.0024L10 9.99988L10.0007 8.0555L7.43207 8.05723C8.56092 6.76455 10.2204 5.9491 12.0692 5.9491C15.4756 5.9491 18.0564 8.50595 18.0564 11.899C18.0564 15.2992 15.3008 18.0557 11.9017 18.0557C9.12206 18.0557 6.7728 16.5211 6.00879 13.9899H4C4.81168 17.6065 8.04124 19.9999 11.9017 19.9999C16.3743 19.9999 20 16.373 20 11.899C20 7.41775 16.5346 4.00488 12.0692 4.00488C9.62183 4.00488 7.42913 5.09087 5.94483 6.80565Z" fill="#4B525A"/>
</svg>
