<svg width="24" height="24" viewBox="0 0 24 24" fill="none" xmlns="http://www.w3.org/2000/svg">
<path d="M19.4883 17.8799C19.6694 17.8801 19.7295 18.0579 19.7295 18.2129V21.7363C19.7294 21.9134 19.6694 22.0906 19.4883 22.0908C19.327 22.0908 19.2666 21.9135 19.2666 21.7363V18.2129C19.2666 18.0578 19.327 17.8799 19.4883 17.8799Z" fill="#4B525A"/>
<path d="M12.5928 19.5205C12.8346 19.5205 12.9355 19.5865 12.9355 19.8965V21.6475C12.9355 21.9577 12.8347 22.0244 12.5928 22.0244H12.4316V19.5205H12.5928Z" fill="#4B525A"/>
<path d="M12.5928 16.3955C12.8347 16.3955 12.9355 16.5062 12.9355 16.8828V18.0352C12.9355 18.4119 12.8347 18.5449 12.5928 18.5449H12.4316V16.3955H12.5928Z" fill="#4B525A"/>
<path fill-rule="evenodd" clip-rule="evenodd" d="M22 24H10V14.4531H22V24ZM19.7295 17.3701H19.71C19.5889 16.9935 19.2658 16.7275 18.8828 16.7275C18.0967 16.7277 17.9961 17.4149 17.9961 18.124V21.8027C17.9961 22.5339 18.0968 23.243 18.8828 23.2432C19.2659 23.2432 19.589 22.9325 19.71 22.4893H19.7295V23.1543H21V15.2432H19.7295V17.3701ZM11 23.1543H12.6738C13.7823 23.1542 14.3466 22.7332 14.3467 21.3818V20.6943C14.3466 19.4314 14.0242 19.0545 13.2783 18.9658V18.9443C14.1856 18.7449 14.3467 18.2125 14.3467 17.459V16.8604C14.3465 15.642 13.5606 15.2433 12.6738 15.2432H11V23.1543ZM14.6689 23.1543H15.96V16.7939H14.6689V23.1543ZM16.3428 23.1543H17.6328V15.2432H16.3428V23.1543ZM14.6689 16.4619H15.96V15.2432H14.6689V16.4619Z" fill="#4B525A"/>
<path d="M3.78223 3.04297C6.67004 3.0431 7.29294 4.28548 7.29297 6.08691V6.45996H5.00781V6.39746C5.00783 6.21122 5.02855 6.02431 5.00781 5.81738C5.00777 5.21686 4.92431 4.30568 3.74023 4.30566C3.01308 4.30566 2.68038 4.61664 2.55566 5.19629C2.45181 5.73481 2.41042 7.0396 2.38965 8.21973C2.38965 9.33785 2.41005 10.3118 2.49316 11.0986C2.53481 11.6989 2.74308 12.2997 3.76074 12.2998C4.34242 12.2998 4.6543 12.0297 4.7998 11.6777C4.96585 11.3259 4.98705 10.9117 5.00781 10.6426C5.0078 10.3737 4.96589 10.1252 4.96582 9.87695V9.81445H7.23145V11.0566C7.23135 12.7959 6.21238 13.625 3.69824 13.625C1.20521 13.6249 0.269792 12.8372 0.103516 11.1602C0.0204244 10.1871 2.8662e-06 9.39962 0 8.24023C2.23662e-05 7.01903 0.104169 5.54952 0.208008 5.13477C0.519693 4.03725 1.1641 3.04297 3.78223 3.04297Z" fill="#4B525A"/>
<path fill-rule="evenodd" clip-rule="evenodd" d="M10.5762 5.67285C12.6748 5.67285 13.5479 6.50143 13.5479 7.97168C13.5686 8.79965 13.5891 9.5658 13.5684 10.373C13.5683 10.6836 13.5479 10.9951 13.5479 11.3057C13.5477 12.7756 12.7369 13.6035 10.5762 13.6035C8.47784 13.6035 7.6047 12.7756 7.60449 11.3057C7.58373 10.9951 7.58425 10.6836 7.56348 10.373C7.56348 9.56586 7.56298 8.79974 7.60449 7.95117C7.60449 6.50165 8.43603 5.67288 10.5762 5.67285ZM10.5762 6.81152C10.0152 6.81156 9.66211 7.06079 9.66211 7.95117V11.3057C9.66222 12.2578 9.97396 12.4648 10.5557 12.4648C11.158 12.4648 11.4696 12.2577 11.4697 11.3057V7.95117C11.4697 7.06073 11.1788 6.81152 10.5762 6.81152Z" fill="#4B525A"/>
<path d="M22.2129 5.63184C23.2516 5.63195 24.0207 6.12848 24 7.10156V13.5H21.8799V7.86816C21.8799 7.53685 21.8385 6.99808 21.1113 6.99805C20.4257 6.99805 20.2803 7.53645 20.2803 8.32324V13.5H18.1611V7.57812C18.1611 7.28831 17.8285 6.97777 17.4131 6.97754C16.8105 6.97754 16.5606 7.45363 16.5605 8.11621V13.4795H14.4209V5.73535H16.457L16.54 6.41797C16.7894 6.1694 17.2468 5.65237 18.5762 5.65234C19.345 5.65234 19.8856 5.96297 20.1973 6.45996C20.2597 6.39773 20.8832 5.63184 22.2129 5.63184Z" fill="#4B525A"/>
<path d="M22 4.94434H10V0H22V4.94434Z" fill="#4B525A"/>
</svg>
