<svg width="24" height="24" viewBox="0 0 24 24" fill="none" xmlns="http://www.w3.org/2000/svg">
<path d="M6.27484 7.16394C6.13203 7.16394 6.01185 7.21274 5.95123 7.30818C5.88871 7.40666 5.89817 7.53362 5.96488 7.6621L7.56919 10.363C7.5719 10.3681 7.5719 10.3714 7.56919 10.3761L5.0481 14.7028C4.98237 14.8302 4.98558 14.9581 5.0481 15.0568C5.10864 15.1518 5.21533 15.2141 5.3583 15.2141H7.731C8.0857 15.2141 8.25688 14.9813 8.37813 14.7685C8.37813 14.7685 10.8437 10.5277 10.9397 10.3631C10.93 10.3479 9.30849 7.59666 9.30849 7.59666C9.19012 7.3921 9.01186 7.16386 8.64794 7.16386L6.27484 7.16394Z" fill="#4B525A"/>
<path d="M16.2415 4.00024C15.8871 4.00024 15.7335 4.21736 15.6062 4.43976C15.6062 4.43976 10.4946 13.2558 10.3262 13.5452C10.3348 13.5609 13.6975 19.5605 13.6975 19.5605C13.8153 19.7651 13.997 20 14.3605 20H16.7304C16.8734 20 16.9851 19.9477 17.0453 19.8526C17.1086 19.7542 17.1068 19.624 17.0404 19.4959L13.6954 13.5523C13.6939 13.5501 13.693 13.5475 13.693 13.5448C13.693 13.5421 13.6939 13.5394 13.6954 13.5372L18.9488 4.5036C19.0148 4.37608 19.0162 4.246 18.9538 4.14744C18.8933 4.0524 18.7812 4 18.6383 4L16.2415 4.00024Z" fill="#4B525A"/>
</svg>
