<svg width="24" height="24" viewBox="0 0 24 24" fill="none" xmlns="http://www.w3.org/2000/svg">
<path fill-rule="evenodd" clip-rule="evenodd" d="M8.44975 7.40179C8.53262 5.50385 10.092 3.99066 12.0035 3.99066C13.915 3.99066 15.4744 5.50385 15.5573 7.40179H8.44975ZM6.46503 7.40179C6.54889 4.40418 8.99645 2 12.0035 2C15.0106 2 17.4581 4.40418 17.542 7.40179H22V22H2V7.40179H6.46503ZM3.98347 20.0093H20.0165V9.39246H3.98347V20.0093Z" fill="#4B525A"/>
<path d="M14.7184 17.7231V11.4582H16.1897V16.3627H18V17.7231H14.7184Z" fill="#4B525A"/>
<path d="M12.2237 17.8036C11.5014 17.8036 10.7879 17.5799 10.1191 16.9981L10.8415 15.8078C11.2249 16.139 11.6975 16.4701 12.1791 16.4701C12.5536 16.4701 12.7409 16.2464 12.7409 15.9779C12.7409 15.7362 12.5715 15.5662 11.9918 15.2529C10.9841 14.7338 10.3688 14.2416 10.3688 13.275C10.3688 12.1264 11.2573 11.3776 12.3753 11.3776C12.9727 11.3776 13.6237 11.5477 14.2301 12.0757L13.481 13.2302C13.2135 12.9975 12.8122 12.7112 12.3574 12.7112C12.0542 12.7112 11.8491 12.8902 11.8491 13.1318C11.8491 13.5493 12.4433 13.7909 12.7409 13.9552C13.6416 14.4385 14.2212 14.9486 14.2212 15.8705V15.9063C14.2212 17.0339 13.3651 17.8036 12.2237 17.8036Z" fill="#4B525A"/>
<path d="M8.10454 17.8036C7.38222 17.8036 6.66881 17.5799 6 16.9981L6.72232 15.8078C7.10577 16.139 7.5784 16.4701 8.05995 16.4701C8.43449 16.4701 8.62175 16.2464 8.62175 15.9779C8.62175 15.7362 8.45232 15.5662 7.87268 15.2529C6.865 14.7338 6.24969 14.2416 6.24969 13.275C6.24969 12.1264 7.1382 11.3776 8.25613 11.3776C8.85361 11.3776 9.50459 11.5477 10.111 12.0757L9.36191 13.2302C9.09438 12.9975 8.69309 12.7112 8.2383 12.7112C7.9826 12.7112 7.73 12.8621 7.73 13.1407C7.73 13.3913 7.90835 13.5614 8.62175 13.9552C9.52242 14.4385 10.1021 14.9486 10.1021 15.8705V15.9063C10.1021 17.0339 9.24598 17.8036 8.10454 17.8036Z" fill="#4B525A"/>
</svg>
