<svg width="24" height="24" viewBox="0 0 24 24" fill="none" xmlns="http://www.w3.org/2000/svg">
<path d="M12.0001 3.80178C14.6704 3.80178 14.9864 3.8121 16.0411 3.86013C17.016 3.90459 17.5455 4.06734 17.898 4.20429C18.3648 4.3857 18.6979 4.60243 19.048 4.95215C19.3981 5.30226 19.6148 5.63531 19.7959 6.10213C19.9328 6.45462 20.0956 6.98416 20.14 7.95908C20.188 9.01339 20.1984 9.32976 20.1984 12.0001C20.1984 14.6704 20.188 14.9864 20.14 16.0411C20.0956 17.016 19.9328 17.5455 19.7959 17.898C19.6145 18.3648 19.3977 18.6979 19.048 19.048C18.6979 19.3981 18.3648 19.6149 17.898 19.7959C17.5455 19.9328 17.016 20.0956 16.0411 20.14C14.9868 20.1881 14.6704 20.1984 12.0001 20.1984C9.32976 20.1984 9.01339 20.1881 7.95908 20.14C6.98416 20.0956 6.45462 19.9328 6.10213 19.7959C5.63531 19.6145 5.30226 19.3977 4.95215 19.048C4.60204 18.6979 4.3853 18.3648 4.20429 17.898C4.06734 17.5455 3.90459 17.016 3.86013 16.0411C3.8121 14.9868 3.80178 14.6704 3.80178 12.0001C3.80178 9.32976 3.8121 9.01379 3.86013 7.95908C3.90459 6.98416 4.06734 6.45462 4.20429 6.10213C4.3857 5.63531 4.60243 5.30226 4.95215 4.95215C5.30226 4.60204 5.63531 4.3853 6.10213 4.20429C6.45462 4.06734 6.98416 3.90459 7.95908 3.86013C9.01378 3.8121 9.32976 3.80178 12.0001 3.80178ZM12.0001 2C9.28411 2 8.94352 2.01151 7.87691 2.06034C6.81267 2.10877 6.08545 2.27787 5.44953 2.52517C4.79178 2.78081 4.23406 3.12259 3.67832 3.67872C3.12259 4.23446 2.78041 4.79218 2.52477 5.44953C2.27747 6.08546 2.10837 6.81268 2.05994 7.87691C2.01151 8.94353 2 9.28411 2 12.0001C2 14.716 2.01151 15.0566 2.06034 16.1232C2.10877 17.1875 2.27787 17.9147 2.52517 18.5506C2.78081 19.2084 3.12259 19.7661 3.67872 20.3218C4.23485 20.878 4.79218 21.2197 5.44993 21.4754C6.08585 21.7227 6.81307 21.8918 7.87731 21.9402C8.94392 21.989 9.28451 22.0006 12.0005 22.0006C14.7164 22.0006 15.057 21.989 16.1236 21.9402C17.1879 21.8918 17.9151 21.7227 18.551 21.4754C19.2088 21.2197 19.7665 20.878 20.3222 20.3218C20.8784 19.7657 21.2201 19.2084 21.4758 18.5506C21.7231 17.9147 21.8922 17.1875 21.9406 16.1232C21.9894 15.0566 22.0009 14.716 22.0009 12.0001C22.0009 9.28411 21.9894 8.94353 21.9406 7.87691C21.8922 6.81268 21.7231 6.08546 21.4758 5.44953C21.2201 4.79178 20.8784 4.23406 20.3222 3.67832C19.7661 3.12219 19.2088 2.78041 18.551 2.52477C17.9151 2.27747 17.1879 2.10837 16.1236 2.05994C15.0566 2.01151 14.716 2 12.0001 2Z" fill="#4B525A"/>
<path d="M12.0001 6.86507C9.16386 6.86507 6.8651 9.16422 6.8651 12.0001C6.8651 14.8359 9.16386 17.1351 12.0001 17.1351C14.8363 17.1351 17.1351 14.8363 17.1351 12.0001C17.1351 9.16383 14.8363 6.86507 12.0001 6.86507ZM12.0001 15.3333C10.159 15.3333 8.66688 13.8407 8.66688 12.0001C8.66688 10.1594 10.1594 8.66684 12.0001 8.66684C13.8412 8.66684 15.3333 10.1594 15.3333 12.0001C15.3333 13.8407 13.8412 15.3333 12.0001 15.3333Z" fill="#4B525A"/>
<path d="M17.3383 7.86186C18.0011 7.86186 18.5383 7.32461 18.5383 6.66187C18.5383 5.99913 18.0011 5.46188 17.3383 5.46188C16.6756 5.46188 16.1383 5.99913 16.1383 6.66187C16.1383 7.32461 16.6756 7.86186 17.3383 7.86186Z" fill="#4B525A"/>
</svg>
