<svg width="24" height="24" viewBox="0 0 24 24" fill="none" xmlns="http://www.w3.org/2000/svg">
<path d="M15.5 22.0005H8.5V20.0005H15.5V22.0005Z" fill="#4B525A"/>
<path fill-rule="evenodd" clip-rule="evenodd" d="M7.34375 3.43408C9.78684 1.52179 14.2133 1.5219 16.6562 3.43408C17.795 4.3255 18.4499 5.5184 18.8428 6.70361C19.1266 7.5601 19.2362 8.41051 19.3447 9.26025C19.4337 9.95686 19.5226 10.6536 19.708 11.353C20.0797 12.7544 21.1245 13.7015 21.5303 13.9565L22 14.2515V18.0005H19.3408L21.9141 20.5854L20.5 21.9995L5.7832 7.21436L5.1875 6.61865V6.61572L2 3.41357L3.41406 1.99951L6.12695 4.7251C6.45478 4.25535 6.85462 3.81698 7.34375 3.43408ZM15.3984 5.00732C13.6302 3.62323 10.3698 3.62323 8.60156 5.00732C8.18563 5.33297 7.85501 5.73445 7.58789 6.19287L17.3447 15.9946H19.9727V15.3042C19.2126 14.6751 18.1797 13.4933 17.7471 11.8618C17.5649 11.1746 17.4801 10.4898 17.3955 9.80615C17.2932 8.97984 17.1908 8.15475 16.917 7.32861C16.604 6.38423 16.1301 5.58013 15.3984 5.00732Z" fill="#4B525A"/>
<path d="M6.47852 10.7378C6.42129 11.1117 6.35242 11.4866 6.25293 11.8618C5.82028 13.4933 4.78742 14.6751 4.02734 15.3042V15.9946H11.7354L13.7412 18.0005H2V14.2515L2.46973 13.9565C2.87552 13.7015 3.92031 12.7544 4.29199 11.353C4.47745 10.6536 4.5663 9.95686 4.65527 9.26025C4.66828 9.1584 4.682 9.05646 4.69531 8.95459L6.47852 10.7378Z" fill="#4B525A"/>
</svg>
