<svg width="24" height="24" viewBox="0 0 24 24" fill="none" xmlns="http://www.w3.org/2000/svg">
<path fill-rule="evenodd" clip-rule="evenodd" d="M6.61479 18.0358C11.4784 22.4964 18.8192 23.1102 21.0624 20.2923C22.6647 18.2796 22.6554 10.6155 17.4675 5.85751C12.2797 1.09947 4.82763 1.22389 2.90486 3.6392C1.30256 5.65196 1.42692 13.2777 6.61479 18.0358ZM19.4569 19.0142C19.0224 19.5599 17.5858 20.1878 15.0893 19.8589C12.7567 19.5516 10.1038 18.4511 8.00188 16.5234C5.80686 14.5102 4.6535 11.8582 4.23525 9.456C4.02668 8.25806 4.01039 7.17183 4.11566 6.32056C4.16819 5.89579 4.2478 5.55529 4.334 5.30225C4.37663 5.1771 4.41762 5.08293 4.45196 5.01589C4.46888 4.98286 4.48309 4.95855 4.49369 4.9418C4.49893 4.93352 4.50308 4.92743 4.50599 4.92333C4.5089 4.91921 4.5104 4.91733 4.5104 4.91733C4.61346 4.78787 4.97024 4.49703 5.78529 4.28205C6.56349 4.07678 7.58991 3.98928 8.76748 4.10129C9.49711 4.17068 10.2623 4.31441 11.0372 4.5405C10.3405 5.08754 9.2764 5.96075 9.09668 6.15245L10.5558 7.52032C10.6633 7.40558 12.0443 6.27945 12.5986 5.86139C12.8111 5.70111 13.0281 5.54766 13.2403 5.4098C13.9269 5.75659 14.602 6.17487 15.2473 6.67034C14.9411 6.86456 14.6507 7.07108 14.3942 7.26449C13.7903 7.71998 12.3114 8.92316 12.0966 9.15234L13.5557 10.5202C13.6632 10.4055 15.0442 9.27934 15.5985 8.86128C16.0011 8.55767 16.4198 8.27855 16.791 8.08353C17.28 8.62123 17.7045 9.19324 18.0698 9.78552C17.8289 9.94488 17.6006 10.109 17.3942 10.2646C16.7903 10.7201 15.3114 11.9233 15.0966 12.1525L16.5557 13.5203C16.6632 13.4056 18.0442 12.2795 18.5985 11.8614C18.7255 11.7656 18.8541 11.6723 18.9823 11.5832C19.3724 12.5356 19.634 13.5032 19.7859 14.4347C19.9818 15.6359 19.9864 16.7279 19.8721 17.5857C19.7491 18.5082 19.5206 18.9341 19.4569 19.0142Z" fill="#4B525A"/>
</svg>
