<svg width="24" height="24" viewBox="0 0 24 24" fill="none" xmlns="http://www.w3.org/2000/svg">
<path fill-rule="evenodd" clip-rule="evenodd" d="M9.06369 5.87089L6.59186 10H2V20H19.4245L19.7053 19.4961C20.0409 18.894 20.5643 17.8973 21.0553 16.8436C21.538 15.8075 21.9997 14.5 21.9997 13.5C21.9997 13.3278 21.9971 13.1612 21.9922 13H21.9996C21.9996 11.9028 21.7658 10.081 21.4718 8.45538C21.1389 6.61573 19.5824 5.41177 17.8796 5.41177L17.808 5.41177L15.606 4.35928C15.1107 4.12251 14.5728 4 14.0285 4H12.2878C10.9783 4 9.7607 4.70657 9.06369 5.87089ZM14.0285 6H12.2878C11.6331 6 11.0243 6.35329 10.6758 6.93545L8 11.4052V18H18.0078C18.5803 17.4483 18.9468 16.7291 19.2951 15.9814C19.7715 14.9592 20.049 13.7169 20.049 13C20.049 12.7505 20.0551 12.4982 20.0628 12.2458C19.9941 11.3149 19.822 10.0505 19.601 8.82872C19.4536 8.01419 18.7491 7.41177 17.8796 7.41177L17.5662 7.41177L16 9.5H12V7.5H15L15.6807 6.59235L14.8173 6.17964C14.5696 6.06126 14.3006 6 14.0285 6ZM6 18V12H3.95066V18H6Z" fill="#4B525A"/>
</svg>
