<svg width="24" height="24" viewBox="0 0 24 24" fill="none" xmlns="http://www.w3.org/2000/svg">
<path fill-rule="evenodd" clip-rule="evenodd" d="M13.9252 3.01937C9.40726 2.79251 6.461 4.58595 4.63783 6.96591C2.85654 9.29119 2.19429 12.1067 2.02238 13.9549C1.92839 14.9654 2.14442 16.4373 2.41044 17.6567C2.54725 18.2839 2.70605 18.8839 2.86479 19.3742C2.94395 19.6187 3.02672 19.8473 3.11094 20.0436C3.18655 20.2198 3.29302 20.4421 3.43678 20.6228L3.73687 21H18.919L19.2191 20.6211C21.7843 17.382 22.5323 13.1562 21.6386 9.65865C20.7375 6.13199 18.1115 3.22956 13.9252 3.01937ZM5.34782 9.55522C4.78169 10.6341 4.42634 11.7649 4.21866 12.7717L13.517 12.5852C14.3466 12.5686 15.0105 11.8952 15.0105 11.0704C15.0105 10.2336 14.3281 9.55522 13.4862 9.55522H5.34782ZM4.00479 14.7631C4.03529 15.4496 4.17064 16.3502 4.3638 17.2357C4.48994 17.8139 4.63275 18.3495 4.76747 18.7656C4.79672 18.856 4.82492 18.9386 4.85176 19.0132H17.9351C19.8751 16.3242 20.4118 12.9281 19.7013 10.1477C18.9645 7.26412 16.9421 5.16017 13.8244 5.00362C10.4053 4.83194 8.19078 5.99044 6.73342 7.56843H13.4862C15.4319 7.56843 17.0093 9.1363 17.0093 11.0704C17.0093 12.9769 15.4749 14.5331 13.5573 14.5716L4.00479 14.7631Z" fill="#4B525A"/>
</svg>
