<svg width="24" height="24" viewBox="0 0 24 24" fill="none" xmlns="http://www.w3.org/2000/svg">
<path d="M4.0332 8.47461L3.96289 8.47559V15.4492L8.47559 15.4111L11.0371 17.8076V15.335L13 17.2578V22L7.70898 17.4043L2 17.4414V6.4834L2.00098 6.48242L4.0332 8.47461Z" fill="#4B525A"/>
<path fill-rule="evenodd" clip-rule="evenodd" d="M13 11.5283L15 13.5059C15.624 13.5059 16.1299 13.0037 16.1299 12.3848C16.1299 11.7658 15.624 11.1641 15 11.1641V8.92285C16.8721 8.92285 18.3896 10.4283 18.3896 12.2852C18.3895 13.5337 17.7023 14.6214 16.6836 15.2012L17.7588 16.2734C18.8142 15.3681 19.5194 13.9489 19.5195 12.2852C19.5195 9.39691 17.3972 7.24121 15 7.24121V5C18.8432 5 21.7793 8.36481 21.7793 12.2852C21.7792 14.4875 20.8521 16.5137 19.3584 17.8672L22 20.5L20.5615 21.9092C14.4384 15.8066 8.3048 9.69311 2 3.40918L3.43848 2L7.82422 6.37109L13 2V11.5283ZM9.23242 7.77441L11.0371 9.57227V6.25L9.23242 7.77441Z" fill="#4B525A"/>
</svg>
