<svg width="24" height="24" viewBox="0 0 24 24" fill="none" xmlns="http://www.w3.org/2000/svg">
<path fill-rule="evenodd" clip-rule="evenodd" d="M17 12C19.7614 12 22 14.2386 22 17C22 19.7614 19.7614 22 17 22C14.2386 22 12 19.7614 12 17C12 14.2386 14.2386 12 17 12ZM16 18.0342H19.5342V16.9814H17.0527V14.5H16V18.0342Z" fill="#4B525A"/>
<path d="M22 12.1006C21.4259 11.5148 20.7495 11.0299 20 10.6738V6H4V18H10.0713C10.1723 18.7061 10.3785 19.3783 10.6738 20H2V4H22V12.1006Z" fill="#4B525A"/>
<path d="M10 15H6V9H10V15Z" fill="#4B525A"/>
<path d="M18 10.0713C17.6734 10.0246 17.3395 10 17 10C15.6804 10 14.4461 10.3652 13.3926 11H12V9H18V10.0713Z" fill="#4B525A"/>
</svg>
