<svg width="24" height="24" viewBox="0 0 24 24" fill="none" xmlns="http://www.w3.org/2000/svg">
<path d="M15.5578 2.28765L14.5485 3.71821C16.1266 4.47218 17.2651 5.87694 17.3951 7.51554H6.6314C6.76057 5.87694 7.87337 4.47301 9.45149 3.71821L8.44219 2.28765C8.39003 2.18363 8.41652 2.0796 8.49435 2.02718C8.57218 1.97475 8.67568 2.00138 8.75351 2.0796L9.78848 3.58838C10.4616 3.32791 11.2118 3.17228 12.0141 3.17228C12.8164 3.17228 13.5409 3.32874 14.2397 3.58838L15.2746 2.0796C15.3268 2.00138 15.4303 1.97558 15.5073 2.02718C15.5843 2.07877 15.6108 2.18363 15.5595 2.28765H15.5578ZM9.73549 6.00676C10.0716 6.00676 10.3308 5.74628 10.3308 5.40841C10.3308 5.09633 10.0716 4.81006 9.73549 4.81006C9.425 4.81006 9.14017 5.09633 9.14017 5.40841C9.14017 5.74628 9.425 6.00676 9.73549 6.00676ZM14.3415 6.00676C14.6777 6.00676 14.9368 5.74628 14.9368 5.40841C14.9368 5.09633 14.6777 4.81006 14.3415 4.81006C14.031 4.81006 13.7462 5.09633 13.7462 5.40841C13.7462 5.74628 14.031 6.00676 14.3415 6.00676ZM3.5 14.3021V9.49119C3.5 8.81461 4.01748 8.24289 4.7163 8.24289C5.38944 8.24289 5.90693 8.81544 5.90693 9.49119V14.3021C5.90693 15.0045 5.38944 15.5504 4.7163 15.5504C4.01748 15.5504 3.5 15.0045 3.5 14.3021ZM18.0674 14.3021V9.49119C18.0674 8.81461 18.6106 8.24289 19.2837 8.24289C19.9568 8.24289 20.5 8.81544 20.5 9.49119V14.3021C20.5 15.0045 19.9568 15.5504 19.2837 15.5504C18.6106 15.5504 18.0674 15.0045 18.0674 14.3021ZM6.65707 17.085V8.26868H17.4208V17.085C17.4208 17.6051 16.9811 18.047 16.4636 18.047H15.403V20.7775C15.403 21.4541 14.8598 22 14.1867 22C13.5135 22 12.9704 21.4541 12.9704 20.7775V18.047H11.0818V20.7775C11.0818 21.4541 10.5643 22 9.89115 22C9.19233 22 8.67485 21.4541 8.67485 20.7775V18.047H7.58772C7.0959 18.047 6.65707 17.6051 6.65707 17.085Z" fill="#4B525A"/>
</svg>
