<svg width="24" height="24" viewBox="0 0 24 24" fill="none" xmlns="http://www.w3.org/2000/svg">
<path fill-rule="evenodd" clip-rule="evenodd" d="M9.65959 2H10.6668C12.4018 2 14.025 3.22708 15.2607 4.72715C16.0179 5.64644 16.6922 6.74112 17.2241 7.90669L17.505 6.39185L18.75 7.73719C20.1443 9.24395 21 11.2317 21 13.4158C21 18.2123 16.9138 22 12 22C7.29757 22 3 18.2688 3 13.4158C3 11.6882 3.53579 10.0809 4.45199 8.73821L5.47694 7.23615L6.02607 8.79936C6.62323 7.78899 7.37249 7.05639 8.01041 6.42629C8.60424 5.83977 9.05727 5.38449 9.36518 4.86056C9.6493 4.37713 9.81771 3.81587 9.74786 3.01368L9.65959 2ZM5.21428 11.279C4.97442 11.9509 4.84503 12.6693 4.84503 13.4158C4.84503 17.2612 8.3312 20.136 12 20.136C16.0084 20.136 19.155 17.0717 19.155 13.4158C19.155 12.3198 18.8757 11.2824 18.3763 10.3642C18.254 10.6113 18.1176 10.8506 17.9682 11.081L16.8273 12.8401L16.3037 10.8046C15.8476 9.03146 14.9351 7.24591 13.8425 5.9195C13.0639 4.97436 12.2731 4.35365 11.5625 4.0605C11.4727 4.71988 11.2561 5.29416 10.9516 5.8122C10.5086 6.56599 9.88767 7.17912 9.33886 7.721C8.33322 8.71391 7.42509 9.61377 7.01487 11.191L6.53675 13.0293L5.39095 11.5217C5.33041 11.4421 5.2715 11.3611 5.21428 11.279Z" fill="#4B525A"/>
<path d="M12 12C11.7014 11.3373 9.5961 10.5869 9.00011 12C8.34061 13.5636 10.5 15.8333 12 17C13.3333 15.8331 15.6245 13.2995 14.9999 11.9995C14.3259 10.5969 12.2014 11.3373 12 12Z" fill="#4B525A"/>
</svg>
