<svg width="24" height="24" viewBox="0 0 24 24" fill="none" xmlns="http://www.w3.org/2000/svg">
<path fill-rule="evenodd" clip-rule="evenodd" d="M10 8H5.98145V15.4121H18.0186V14H20V17.0898L22 22H2L4 17.0898V6H10V8ZM4.83105 20.1182H19.1689L18.0186 17.2939H5.98145L4.83105 20.1182Z" fill="#4B525A"/>
<path fill-rule="evenodd" clip-rule="evenodd" d="M17 2C19.7614 2 22 4.23858 22 7C22 9.76142 19.7614 12 17 12C14.2386 12 12 9.76142 12 7C12 4.23858 14.2386 2 17 2ZM16.3184 8.78125V10.1035H17.6416V8.78125H16.3184ZM16.9756 3.75C16.3457 3.75 15.8503 4.0197 15.4004 4.43359L16.0303 5.29785C16.1833 5.13586 16.4894 4.84769 16.9033 4.84766C17.3046 4.84766 17.6055 5.12753 17.6055 5.53223C17.6054 6.02709 17.2183 6.37813 16.4805 6.49512L16.4443 6.54004L16.5791 8.0791H17.3711L17.4795 7.18848C18.1905 6.96348 18.793 6.46754 18.793 5.47754C18.7928 4.45185 18.0913 3.75008 16.9756 3.75Z" fill="#4B525A"/>
</svg>
