<svg width="24" height="24" viewBox="0 0 24 24" fill="none" xmlns="http://www.w3.org/2000/svg">
<path d="M18.0254 20.0155H17.2158V10.7392H18.0254V20.0155Z" fill="#4B525A"/>
<path d="M6.78125 20.0155H5.97168V14.4921H6.78125V20.0155Z" fill="#4B525A"/>
<path d="M6.78125 12.5331H5.97168V7.97548H6.78125V12.5331Z" fill="#4B525A"/>
<path fill-rule="evenodd" clip-rule="evenodd" d="M11.6709 0.00868298C14.1227 -0.114573 16.7719 1.14965 17.6201 3.99989H22V23.9999H2V3.99989H6.34277C7.06603 1.45374 9.38763 0.12355 11.6709 0.00868298ZM9.60059 21.9999H11.5732V8.78603H9.60059V21.9999ZM12.4268 21.9999H14.3994V5.99989H12.4268V21.9999ZM18.0254 8.78407H16.1055C15.8785 8.78639 15.6615 8.87858 15.502 9.03993C15.3423 9.20153 15.2524 9.42023 15.2529 9.64736L15.251 21.1317C15.2507 21.2449 15.2723 21.3572 15.3154 21.4618C15.3586 21.5665 15.422 21.6619 15.502 21.7421C15.5819 21.8222 15.6777 21.8852 15.7822 21.9286C15.8866 21.9719 15.9983 21.9949 16.1113 21.995L20 21.9999V5.99989H18.0254V8.78407ZM4 21.995H7.88867C8.00157 21.9947 8.11357 21.9721 8.21777 21.9286C8.32198 21.8851 8.41642 21.8211 8.49609 21.7411C8.57573 21.6611 8.63962 21.5662 8.68262 21.4618C8.72559 21.3573 8.74734 21.2447 8.74707 21.1317V14.1923C8.74616 13.9521 8.65051 13.7213 8.48047 13.5517C8.31029 13.382 8.07918 13.2862 7.83887 13.286H7.9248C8.14215 13.2866 8.35069 13.2009 8.50488 13.0477C8.65891 12.8946 8.74624 12.6868 8.74707 12.4696V6.86415C8.74768 6.63656 8.65813 6.41752 8.49805 6.25575C8.33776 6.09398 8.11933 6.00239 7.8916 6.00087H4V21.995ZM9.60059 7.97548H11.5732V5.99989H9.60059V7.97548ZM11.7529 1.64638C10.1628 1.72641 8.70821 2.54352 8.08203 3.99989H15.8799C15.1614 2.3537 13.4806 1.55947 11.7529 1.64638Z" fill="#4B525A"/>
</svg>
