<svg width="24" height="24" viewBox="0 0 24 24" fill="none" xmlns="http://www.w3.org/2000/svg">
<path d="M16.0107 2C16.0592 2 16.1077 2 16.159 2C16.278 3.41044 15.7167 4.46432 15.0346 5.22751C14.3652 5.98542 13.4487 6.7205 11.9662 6.60897C11.8673 5.21872 12.4295 4.24301 13.1108 3.48158C13.7426 2.77197 14.9009 2.14052 16.0107 2Z" fill="#4B525A"/>
<path d="M20.5 16.6801C20.5 16.6941 20.5 16.7064 20.5 16.7196C20.0834 17.9298 19.4891 18.967 18.7639 19.9295C18.1019 20.8034 17.2906 21.9793 15.8421 21.9793C14.5904 21.9793 13.759 21.2074 12.4761 21.1863C11.1191 21.1652 10.3729 21.8318 9.13218 21.9995C8.99025 21.9995 8.84833 21.9995 8.70915 21.9995C7.79807 21.8731 7.0628 21.181 6.52715 20.5575C4.94765 18.7149 3.72708 16.3349 3.5 13.2892C3.5 12.9906 3.5 12.6929 3.5 12.3943C3.59614 10.2145 4.70042 8.44226 6.16821 7.58335C6.94285 7.12666 8.00776 6.73761 9.19353 6.9115C9.70171 6.98703 10.2209 7.15389 10.676 7.319C11.1072 7.47796 11.6466 7.75987 12.1575 7.74494C12.5036 7.73528 12.8479 7.56227 13.1968 7.44019C14.2186 7.08627 15.2203 6.68052 16.5407 6.8711C18.1275 7.1012 19.2538 7.77744 19.9497 8.82078C18.6073 9.64017 17.5461 10.875 17.7274 12.9836C17.8886 14.899 19.0496 16.0197 20.5 16.6801Z" fill="#4B525A"/>
</svg>
