<svg width="24" height="24" viewBox="0 0 24 24" fill="none" xmlns="http://www.w3.org/2000/svg">
<path fill-rule="evenodd" clip-rule="evenodd" d="M2.02105 5C0.904855 5 0 5.90486 0 7.02105V15.7789C0 16.8951 0.904858 17.8 2.02105 17.8H24V7.02027C24 5.9045 23.0112 5 21.8955 5H2.02105ZM3.01702 8.74737V14.1509H4.82334V12.2133H6.47529V14.1509H8.2816V8.74737H6.47529V10.654H4.82334V8.74737H3.01702ZM8.71943 12.0667C8.71943 13.379 9.65346 14.2512 11.0352 14.2512C11.9461 14.2512 12.5405 13.873 12.9573 13.3326L12.0156 12.5839C11.7377 12.8695 11.4752 13.0161 11.1587 13.0161C10.7805 13.0161 10.4871 12.8232 10.3636 12.4526H13.0731C13.0808 12.36 13.0808 12.2519 13.0808 12.1593C13.0808 10.8779 12.3861 9.8358 10.8886 9.8358C9.62257 9.8358 8.71943 10.793 8.71943 12.0512V12.0667ZM11.4829 11.6807H10.3405C10.3945 11.2947 10.6029 11.0477 10.8963 11.0477C11.205 11.0477 11.4443 11.2793 11.4829 11.6807ZM15.5762 12.1593L16.2478 9.93615H18.031L16.572 13.8576C16.1629 14.9614 15.7152 15.4091 14.7425 15.4091C14.1327 15.4091 13.5846 15.2316 13.1137 14.9691L13.6232 13.7726C13.9397 13.9502 14.233 14.0505 14.3952 14.0505C14.4955 14.0505 14.5881 14.0351 14.6808 13.9888L13.0288 9.93615H14.8429L15.5762 12.1593ZM21.2211 13.3743H17.6188V14.9181H21.2211V13.3743Z" fill="#4B525A"/>
</svg>
