<svg width="24" height="24" viewBox="0 0 24 24" fill="none" xmlns="http://www.w3.org/2000/svg">
<path fill-rule="evenodd" clip-rule="evenodd" d="M12 22C17.5228 22 22 17.5228 22 12C22 6.47715 17.5228 2 12 2C6.47715 2 2 6.47715 2 12C2 17.5228 6.47715 22 12 22ZM12 20C16.4183 20 20 16.4183 20 12C20 7.58172 16.4183 4 12 4C7.58172 4 4 7.58172 4 12C4 16.4183 7.58172 20 12 20Z" fill="#4B525A"/>
<path d="M12 7L13.3906 10.1639L17 10.4377L14.25 12.6669L15.0902 16L12 14.2139L8.90983 16L9.75 12.6669L7 10.4377L10.6094 10.1639L12 7Z" fill="#4B525A"/>
</svg>
