<svg width="24" height="24" viewBox="0 0 24 24" fill="none" xmlns="http://www.w3.org/2000/svg">
<path fill-rule="evenodd" clip-rule="evenodd" d="M2.81893 3.16175C8.7119 1.61275 15.2881 1.61275 21.1811 3.16175L22 3.377L21.9177 4.22432C21.6085 7.40893 21.5872 10.7417 20.9005 13.8586C20.5467 15.4647 19.2572 17.2159 17.7261 18.6439C16.1719 20.0933 14.2007 21.3676 12.2726 21.9217L12 22L11.7274 21.9217C9.79927 21.3676 7.82807 20.0933 6.27392 18.6439C4.74275 17.2159 3.45334 15.4647 3.09952 13.8586C2.41285 10.7417 2.39146 7.40894 2.08227 4.22432L2 3.377L2.81893 3.16175ZM4.13896 4.88944C4.4032 7.71555 4.42774 10.6612 5.03701 13.4268C5.26123 14.4446 6.20126 15.8541 7.62324 17.1803C8.9404 18.4087 10.5294 19.4322 12 19.9182C13.4706 19.4322 15.0596 18.4087 16.3768 17.1803C17.7987 15.8541 18.7388 14.4446 18.963 13.4268C19.5723 10.6612 19.5968 7.71555 19.861 4.88944C14.7837 3.69819 9.2163 3.69819 4.13896 4.88944Z" fill="#4B525A"/>
<path d="M10.7074 11.1217L9.29349 12.5356L10.7077 13.9498L12.1216 12.5359L13.5356 13.95L14.9498 12.5358L13.5358 11.1217L14.9503 9.70718L13.5361 8.29297L12.1216 9.70752L10.7072 8.29312L9.29297 9.70733L10.7074 11.1217Z" fill="#4B525A"/>
</svg>
