<svg width="24" height="24" viewBox="0 0 24 24" fill="none" xmlns="http://www.w3.org/2000/svg">
<path fill-rule="evenodd" clip-rule="evenodd" d="M13.3965 22L7.91504 17.4043L2 17.4414V6.4834L7.94434 6.44531L13.3965 2V22ZM8.67969 8.43848L4.03418 8.47559V15.4492L8.70898 15.4111L11.3633 17.8076V6.25L8.67969 8.43848Z" fill="#4B525A"/>
<path d="M15.2197 4.98828C19.0629 4.98828 22 8.35309 22 12.2734C22 16.1938 19.0629 19.5586 15.2197 19.5586V17.3164C17.6169 17.3164 19.7402 15.1616 19.7402 12.2734C19.7402 9.38519 17.617 7.23047 15.2197 7.23047V4.98828Z" fill="#4B525A"/>
<path d="M15.2197 8.91113C17.0918 8.91113 18.6104 10.4165 18.6104 12.2734C18.6103 14.1303 17.0918 15.6357 15.2197 15.6357V13.3945C15.8437 13.3945 16.3496 12.8924 16.3496 12.2734C16.3496 11.6545 15.8438 11.1523 15.2197 11.1523V8.91113Z" fill="#4B525A"/>
</svg>
