<svg width="24" height="24" viewBox="0 0 24 24" fill="none" xmlns="http://www.w3.org/2000/svg">
<path d="M19.0454 19.2139C19.4969 19.2142 19.5944 19.7959 19.5944 20.343C19.5944 20.8901 19.4969 21.4835 19.0454 21.4838C18.5937 21.4838 18.4955 20.8786 18.4954 20.343C18.4955 19.8074 18.5938 19.2139 19.0454 19.2139Z" fill="#4B525A"/>
<path d="M11.9637 19.9699C12.2929 19.9701 12.4512 20.1683 12.4514 20.5403C12.4514 21.0176 12.2076 21.1352 11.9146 21.1352H11.0968V19.9699H11.9637Z" fill="#4B525A"/>
<path d="M11.841 17.8277C12.134 17.8277 12.3173 17.9445 12.3174 18.2587C12.3174 18.666 12.134 18.7829 11.841 18.7829H11.109V17.8277H11.841Z" fill="#4B525A"/>
<path d="M9.4968 7.81379C9.52122 7.81379 9.80248 7.74396 9.80248 8.15152V12.9258C9.79039 12.9489 9.79022 12.9612 9.79022 13.2164C9.79022 13.5657 9.66761 13.7175 9.47227 13.7524C9.30141 13.787 9.094 13.6352 9.094 13.0534V8.79162C9.1184 7.87454 9.47056 7.81414 9.4968 7.81379Z" fill="#4B525A"/>
<path d="M13.7221 6.48646C13.8683 6.46344 14.0022 6.55621 14.0268 6.69557C14.0633 6.81185 14.0881 6.92881 14.0881 7.04508V12.0864C14.0881 12.5522 13.8799 12.7279 13.7334 12.7628C13.587 12.7973 13.3799 12.6921 13.3796 12.4133V7.31212C13.3797 6.73043 13.4537 6.54468 13.7221 6.48646Z" fill="#4B525A"/>
<path fill-rule="evenodd" clip-rule="evenodd" d="M22 0V24H2V0H22ZM19.5576 16.3256V18.5493H19.5454C19.3622 18.1655 19.0208 17.932 18.6549 17.9318C17.556 17.9318 17.2625 19.2491 17.2625 20.3204C17.2626 21.473 17.7026 22.7532 18.6304 22.7532C19.2404 22.753 19.4235 22.4276 19.5822 22.1366V22.6373H20.8039V16.3256H19.5576ZM9.72888 16.3374V22.6491H12.2929C13.0865 22.6491 13.8683 21.9844 13.8683 20.7268C13.8682 19.7956 13.4891 19.353 13.0862 19.155C13.4158 18.8989 13.6362 18.5728 13.6363 17.921C13.6361 17.269 13.3795 16.3376 12.1958 16.3374H9.72888ZM15.7484 16.3374V22.6373H16.9936V16.3374H15.7484ZM14.0881 18.0496V22.6255H15.3333V18.0496H14.0881ZM14.0881 16.3374V17.5607H15.3333V16.3374H14.0881ZM10.5713 5.70596C10.0709 5.70605 9.61956 5.99695 9.41195 6.42755C9.25382 6.76396 9.10718 7.10054 9.094 7.14914V6.24102L7.44599 6.64943V17.5489L9.094 17.1297V14.7067C9.10621 14.7183 9.14263 14.7893 9.26473 14.9639C9.4113 15.162 9.68097 15.5451 10.2912 15.3821C10.9013 15.2189 11.438 14.5905 11.4382 13.2989V7.17271C11.4381 6.43921 11.1573 5.70596 10.5713 5.70596ZM5.52911 4.67021C4.39361 4.67021 2.62271 5.71754 2.6226 8.11617C2.62261 9.30384 2.64764 9.99134 3.39242 10.9112L4.52722 12.0059L4.53949 12.0177C4.73508 12.1925 5.43091 12.8096 5.43097 13.5895C5.43087 14.4507 5.05274 14.6838 4.84517 14.742C4.6376 14.8002 4.21039 14.7997 4.21029 13.8918V12.7972L2.51321 13.24V13.7868C2.51321 14.8464 2.61071 17.3848 4.72249 16.8381C6.8711 16.2908 7.12799 14.1832 7.12805 12.9837C7.15243 11.8315 7.05484 11.2607 6.21306 10.3762L5.10177 9.29232L5.08951 9.28152C4.4546 8.65273 4.25938 8.33721 4.25937 7.84816C4.25946 7.33592 4.47906 6.88198 4.8697 6.78884C5.26028 6.69585 5.39416 7.09207 5.39416 7.90706V8.60509L7.04319 8.17508V7.28954C7.03093 5.77604 6.66433 4.67039 5.52911 4.67021ZM15.7361 7.0333C15.736 4.75123 14.4542 4.63401 13.8193 4.72715C13.0378 4.84363 11.744 5.57781 11.7439 7.69696V12.4133C11.8051 14.078 12.5984 14.8352 13.7947 14.5094C14.9424 14.195 15.7361 13.6124 15.7361 10.1307V7.0333ZM19.0577 1.79269V3.6325L18.7398 3.71496V3.51665C18.4225 3.62147 18.1659 3.86611 18.0804 4.18032C17.9583 4.5413 17.6655 5.4721 17.653 5.51943V4.00556L16.005 4.43655V13.7524L17.653 13.3214V7.63806C17.6656 7.04469 18.0931 6.69571 18.386 6.62587C18.67 6.55816 18.736 6.54414 18.7398 6.5434V5.40358L19.0577 5.32112V11.6446C19.0578 12.8786 19.7779 12.8323 20.5105 12.646L21.3529 12.4241V10.6786C21.3365 10.6895 20.7295 10.9243 20.6935 10.5038V4.90191L21.3529 4.72715V3.03853L20.6935 3.21427V1.3509L19.0577 1.79269Z" fill="#4B525A"/>
</svg>
