<svg width="24" height="24" viewBox="0 0 24 24" fill="none" xmlns="http://www.w3.org/2000/svg">
<path fill-rule="evenodd" clip-rule="evenodd" d="M17.6969 5.77203L21.0172 2.41731L22.4129 3.82748L17.697 8.59232L14.9547 5.82178L16.3503 4.41157L17.6969 5.77203Z" fill="#4B525A"/>
<path fill-rule="evenodd" clip-rule="evenodd" d="M11.5 12.9943C13.482 12.9943 15.0888 11.3709 15.0888 9.36832C15.0888 7.36576 13.482 5.74236 11.5 5.74236C9.51798 5.74236 7.91124 7.36576 7.91124 9.36832C7.91124 11.3709 9.51798 12.9943 11.5 12.9943ZM11.5 11C12.3919 11 13.1149 10.2695 13.1149 9.36832C13.1149 8.46717 12.3919 7.73664 11.5 7.73664C10.6081 7.73664 9.88506 8.46717 9.88506 9.36832C9.88506 10.2695 10.6081 11 11.5 11Z" fill="#4B525A"/>
<path fill-rule="evenodd" clip-rule="evenodd" d="M21.3 10C21.4311 10.6462 21.5 11.3151 21.5 12C21.5 17.5228 17.0228 22 11.5 22C5.97715 22 1.5 17.5228 1.5 12C1.5 6.47715 5.97715 2 11.5 2C12.1849 2 12.8538 2.06886 13.5 2.20004V4.25203C12.8608 4.08751 12.1906 4 11.5 4C7.08172 4 3.5 7.58172 3.5 12C3.5 13.8643 4.13771 15.5797 5.20689 16.9399C6.70773 15.1431 8.96497 14 11.4892 14C14.0196 14 16.2818 15.1488 17.7826 16.9532C18.8581 15.5909 19.5 13.8704 19.5 12C19.5 11.3094 19.4125 10.6392 19.248 10H21.3ZM11.5 20C13.3236 20 15.0048 19.3898 16.3503 18.3625C15.2184 16.9239 13.4617 16 11.4892 16C9.52138 16 7.76833 16.9194 6.63618 18.3522C7.984 19.3857 9.67027 20 11.5 20Z" fill="#4B525A"/>
</svg>
