<svg width="24" height="24" viewBox="0 0 24 24" fill="none" xmlns="http://www.w3.org/2000/svg">
<path fill-rule="evenodd" clip-rule="evenodd" d="M10 22C10.5525 22 11.0545 21.8576 11.475 21.5422C11.8801 21.2384 12.1252 20.8367 12.2888 20.4686C12.4682 20.0652 12.5842 19.6244 12.6852 19.2408C12.6913 19.2177 12.6973 19.1949 12.7033 19.1722C13.0818 17.7386 13.6889 16.3773 14.3435 15.0499L18 12H22V2H5.13449C4.54337 3.03446 3.97631 4.0809 3.46249 5.15643C2.96752 6.19251 2.47079 7.35298 2.24467 8.25746C1.77156 10.1499 2.01835 12.1167 2.395 14H8.09177C7.99446 14.3607 7.90709 14.7406 7.83194 15.1164C7.63663 16.0929 7.50064 17.0883 7.49998 18.0856C7.49954 18.7689 7.49896 19.6591 7.73883 20.3787C7.87336 20.7823 8.10566 21.2101 8.51889 21.5315C8.94076 21.8597 9.45209 22 10 22ZM16 4H6.58702C6.00002 4.5517 5.62431 5.2709 5.26713 6.01857C4.77876 7.04082 4.35883 8.04702 4.18495 8.74254C3.92806 9.77013 3.97195 11.0756 4.07521 12H11.1181L10.3944 13.4472C10.2065 13.8231 9.97684 14.5899 9.7931 15.5086C9.61292 16.4095 9.50002 17.3393 9.50002 18C9.50002 18.8067 9.51122 19.3713 9.6362 19.7463C9.70225 19.9444 9.79822 20 10 20C10.2641 20 10.3565 19.8919 10.4612 19.6564C10.5637 19.4258 10.6495 19.1168 10.765 18.6786C11.1994 17.0301 11.8972 15.4695 12.6575 13.949L16 11V4ZM18 4V10H20V4H18Z" fill="#4B525A"/>
</svg>
