<svg width="24" height="24" viewBox="0 0 24 24" fill="none" xmlns="http://www.w3.org/2000/svg">
<path d="M7.90321 6.43258L7.99286 6.44216L8.07938 6.45807L8.16232 6.48005L8.24125 6.50787L8.31579 6.54128L8.38554 6.58L8.45008 6.62381L8.50898 6.67246L8.56188 6.72566L8.60834 6.78325L8.64792 6.8449L8.69277 6.93086L8.74873 7.04854L8.8134 7.19166L8.88454 7.35392L8.95983 7.52903L9.03689 7.71072L9.11343 7.89269L9.25572 8.23234L9.31678 8.37744L9.36808 8.49769L9.40729 8.58681L9.44 8.65725L9.47349 8.72736L9.50676 8.79719L9.53888 8.86697L9.56886 8.93683L9.5958 9.00701L9.61869 9.07757L9.63661 9.14874L9.64854 9.22068L9.65354 9.29354L9.65073 9.36744L9.63904 9.44265L9.61957 9.51689L9.5939 9.58996L9.56277 9.66178L9.52677 9.7322L9.48667 9.80107L9.4431 9.86831L9.39675 9.93378L9.34834 9.99736L9.29846 10.059L9.24789 10.1184L9.19723 10.1757L9.14719 10.2305L9.09511 10.2872L9.03769 10.3513L8.97732 10.4214L8.91645 10.4964L8.8574 10.5752L8.80265 10.6564L8.75456 10.7389L8.71551 10.8215L8.68799 10.903L8.67435 10.9821L8.67699 11.0578L8.69834 11.1288L8.74915 11.2222L8.83247 11.3548L8.94365 11.5194L9.07808 11.7092L9.23104 11.9168L9.39796 12.1353L9.57419 12.3577L9.75502 12.5768L9.9359 12.7857L10.1121 12.9772L10.279 13.1442L10.4321 13.2798L10.5969 13.4077L10.7971 13.553L11.0244 13.71L11.2707 13.8732L11.5278 14.037L11.7874 14.1958L12.0414 14.3442L12.2816 14.4765L12.4999 14.5872L12.6879 14.6707L12.8376 14.7215L12.9406 14.734L13.0167 14.7191L13.0894 14.6927L13.1592 14.6562L13.226 14.611L13.2901 14.5585L13.3516 14.5002L13.4107 14.4375L13.4676 14.3719L13.5223 14.3047L13.5751 14.2375L13.6261 14.1717L13.6755 14.1086L13.7231 14.0462L13.769 13.9821L13.8585 13.8525L13.9037 13.7888L13.9502 13.727L13.9987 13.668L14.05 13.6127L14.1049 13.562L14.1641 13.5167L14.2284 13.4779L14.2986 13.4462L14.3699 13.4239L14.4437 13.4093L14.5194 13.402L14.5964 13.4014L14.6741 13.4069L14.7522 13.418L14.83 13.434L14.907 13.4544L14.9827 13.4787L15.0567 13.5063L15.1282 13.5365L15.1969 13.5689L15.2901 13.6147L15.7809 13.8545L15.9876 13.9558L16.2023 14.0615L16.4167 14.1676L16.6226 14.2705L16.8118 14.3663L16.9763 14.4511L17.1077 14.5213L17.1979 14.5728L17.2503 14.6157L17.2912 14.6712L17.3214 14.7378L17.3418 14.8135L17.3532 14.8966L17.3563 14.9853L17.3521 15.0777L17.3414 15.1722L17.3249 15.2669L17.3036 15.36L17.2782 15.4498L17.2496 15.5344L17.2124 15.63L17.169 15.7309L17.1188 15.836L17.0617 15.9441L16.997 16.0542L16.9246 16.1653L16.8439 16.2763L16.7546 16.3861L16.6563 16.4937L16.5486 16.5979L16.4312 16.6978L16.3037 16.7923L16.1679 16.8794L16.027 16.9578L15.882 17.0278L15.734 17.0895L15.5842 17.143L15.4335 17.1884L15.2831 17.226L15.134 17.2557L14.9872 17.2778L14.844 17.2924L14.7054 17.2997L14.5723 17.2998L14.4264 17.2892L14.2533 17.2659L14.0595 17.232L13.8515 17.1894L13.6355 17.1404L13.418 17.0868L13.2055 17.0309L13.0042 16.9746L12.8206 16.92L12.6611 16.8692L12.5322 16.8243L12.4401 16.7874L12.0837 16.6217L11.7334 16.4498L11.3895 16.2712L11.0523 16.0857L10.722 15.893L10.3988 15.6928L10.0831 15.4849L9.77505 15.269L9.47491 15.0447L9.18292 14.8118L8.89939 14.57L8.62455 14.319L8.33975 14.0446L8.05732 13.7607L7.77961 13.4673L7.50913 13.1649L7.24828 12.8534L6.99952 12.5332L6.76522 12.2042L6.54788 11.8669L6.34991 11.5213L6.17379 11.1676L6.02187 10.8061L5.89665 10.4368L5.83465 10.2225L5.78156 10.0247L5.73727 9.84135L5.70156 9.67018L5.67434 9.50892L5.65543 9.35543L5.64465 9.20736L5.64189 9.06253L5.64692 8.91872L5.65968 8.77371L5.67993 8.62521L5.70755 8.47102L5.73877 8.34219L5.78137 8.20971L5.83401 8.07513L5.89531 7.94009L5.96386 7.80614L6.03832 7.67488L6.11733 7.54789L6.19944 7.42675L6.28331 7.31306L6.36759 7.20843L6.45088 7.11436L6.53181 7.03255L6.61488 6.95865L6.70734 6.88539L6.80769 6.81392L6.91433 6.74527L7.02578 6.68054L7.14047 6.62087L7.25687 6.5673L7.37345 6.52095L7.48867 6.48292L7.60101 6.45427L7.70887 6.43614L7.8108 6.42959L7.90321 6.43258Z" fill="#4B525A"/>
<path fill-rule="evenodd" clip-rule="evenodd" d="M12.1085 0.43494L13.0299 0.513921L13.942 0.667095L14.8387 0.893552L15.7142 1.1919L16.5624 1.56062L17.3775 1.9977L18.1535 2.5008L18.8851 3.06666L19.5656 3.69297L20.201 4.36504L20.7805 5.0859L21.2991 5.85166L21.7531 6.65743L22.1396 7.49766L22.4563 8.36666L22.7014 9.25845L22.8739 10.1671L22.9734 11.0866L23 12.0111L22.9535 12.9354L22.8333 13.853L22.6394 14.7579L22.3732 15.6441L22.0366 16.5061L21.6318 17.3382L21.1617 18.1353L20.6297 18.8924L20.0392 19.6049L19.394 20.2682L18.6982 20.8781L17.9559 21.4306L17.1716 21.9218L16.3503 22.3481L15.4971 22.7063L14.6175 22.9938L13.7174 23.2083L12.8026 23.3485L11.8794 23.4138L10.9545 23.4053L10.0332 23.3246L9.1213 23.1709L8.22504 22.9431L7.35101 22.641L6.50605 22.2652L6.07919 22.0406L0 23.6072L1.6295 17.6546L1.40242 17.2121L1.02338 16.3686L0.704728 15.5004L0.451124 14.611L0.267299 13.7046L0.157614 12.7864L0.125358 11.8622L0.161358 10.9374L0.26984 10.0185L0.454948 9.11177L0.713608 8.22319L1.04376 7.35874L1.44345 6.52416L1.90961 5.72478L2.4388 4.96567L3.02743 4.25169L3.67144 3.58724L4.36673 2.97658L5.10874 2.42374L5.89285 1.93234L6.71406 1.50579L7.56706 1.1471L8.44639 0.858702L9.34612 0.642542L10.2605 0.499638L11.1834 0.43042L12.1085 0.43494ZM10.8272 2.46025L10.0497 2.5502L9.28217 2.70318L8.52954 2.91795L7.79668 3.19269L7.08802 3.52492L6.40792 3.91231L5.76097 4.3529L5.15247 4.84513L4.58727 5.38655L4.0695 5.97351L3.60281 6.60183L3.19044 7.26703L2.83493 7.96429L2.53848 8.68863L2.30282 9.43492L2.12922 10.1981L2.01868 10.9729L1.97192 11.7541L1.98915 12.5366L2.07054 13.3149L2.21614 14.0837L2.42289 14.8389L2.69104 15.5745L3.02665 16.2805L3.40623 16.9653L3.65692 17.3413L2.71685 20.9129L6.35181 19.9729L6.35922 19.9767L7.04886 20.3453L7.74979 20.6922L8.47886 20.9753L9.22954 21.195L9.99584 21.3517L10.7724 21.4456L11.5539 21.4768L12.3354 21.4437L13.1113 21.3454L13.8763 21.1825L14.6249 20.9558L15.3513 20.6656L16.0491 20.3125L16.7139 19.8999L17.3543 19.45L17.9561 18.9501L18.5118 18.3986L19.0199 17.8032L19.4764 17.1676L19.8775 16.4955L20.2209 15.7922L20.5044 15.0627L20.7262 14.3122L20.8852 13.5458L20.9805 12.7691L21.0117 11.987L20.9787 11.2051L20.8819 10.4284L20.7221 9.66229L20.5006 8.91161L20.2194 8.1812L19.881 7.47551L19.4877 6.79881L19.0417 6.15555L18.5446 5.55098L17.9989 4.98993L17.4081 4.47657L16.7762 4.01472L16.1078 3.60768L15.4075 3.25816L14.6805 2.96831L13.932 2.73993L13.167 2.57424L12.3911 2.47212L11.6094 2.43412L10.8272 2.46025Z" fill="#4B525A"/>
</svg>
