<svg width="24" height="24" viewBox="0 0 24 24" fill="none" xmlns="http://www.w3.org/2000/svg">
<path fill-rule="evenodd" clip-rule="evenodd" d="M11.0773 2.62752C11.4083 1.7908 12.5925 1.79085 12.9234 2.62752L15.2015 8.38641L21.0901 8.88279C21.9561 8.95579 22.3169 10.0278 21.671 10.6095L17.1497 14.6818L18.5342 20.7846C18.7308 21.651 17.7773 22.3196 17.0297 21.8394L12.0004 18.6094L6.97099 21.8394C6.22346 22.3195 5.26993 21.6511 5.46651 20.7846L6.851 14.6818L2.32972 10.6095C1.68389 10.0278 2.04456 8.9558 2.91068 8.88279L8.79928 8.38641L11.0773 2.62752ZM12.0004 5.63788L10.4052 9.67043C10.2665 10.021 9.94121 10.2628 9.56554 10.2944L5.31485 10.6528L8.59045 13.6031C8.85751 13.8436 8.9737 14.2097 8.89418 14.5603L7.90953 18.9005L11.4639 16.6178C11.7908 16.4079 12.21 16.4079 12.5368 16.6178L16.0912 18.9005L15.1066 14.5603C15.027 14.2097 15.1432 13.8436 15.4103 13.6031L18.6859 10.6528L14.4352 10.2944C14.0595 10.2628 13.7342 10.021 13.5955 9.67043L12.0004 5.63788Z" fill="#4B525A"/>
</svg>
