<svg width="24" height="24" viewBox="0 0 24 24" fill="none" xmlns="http://www.w3.org/2000/svg">
<path d="M11.9753 20C16.4045 20 19.9951 16.4183 19.9951 12C19.9951 7.58172 16.4045 4 11.9753 4C9.44261 4 7.18417 5.17108 5.71442 7H8.51609V9H2V3H4.00495V5.93386C5.83671 3.54262 8.72539 2 11.9753 2C17.5118 2 22 6.47715 22 12C22 17.5228 17.5118 22 11.9753 22C6.77707 22 2.50297 18.0533 2 13H4.0175C4.51082 16.9463 7.88554 20 11.9753 20Z" fill="#4B525A"/>
<path d="M13.88 7.23633V12.4768L9.79976 15.777L8.53701 14.2235L11.875 11.5236V7.23633H13.88Z" fill="#4B525A"/>
</svg>
