<svg width="24" height="24" viewBox="0 0 24 24" fill="none" xmlns="http://www.w3.org/2000/svg">
<path fill-rule="evenodd" clip-rule="evenodd" d="M10 8H5.98145V15.4121H18.0186V14H20V17.0898L22 22H2L4 17.0898V6H10V8ZM4.83105 20.1182H19.1689L18.0186 17.2939H5.98145L4.83105 20.1182Z" fill="#4B525A"/>
<path fill-rule="evenodd" clip-rule="evenodd" d="M17 2C19.7614 2 22 4.23858 22 7C22 9.76142 19.7614 12 17 12C14.2386 12 12 9.76142 12 7C12 4.23858 14.2386 2 17 2ZM16.3711 7.64453L14.8457 6.56348L14.1523 7.54297L16.5703 9.25586L19.8838 5.39062L18.9727 4.60938L16.3711 7.64453Z" fill="#4B525A"/>
</svg>
