<svg width="24" height="24" viewBox="0 0 24 24" fill="none" xmlns="http://www.w3.org/2000/svg">
<path fill-rule="evenodd" clip-rule="evenodd" d="M12 2C17.5228 2 22 6.47715 22 12C22 17.5228 17.5228 22 12 22C6.47715 22 2 17.5228 2 12C2 6.47715 6.47715 2 12 2ZM4.06445 13C4.44908 16.0835 6.5869 18.6195 9.4502 19.582C8.06199 17.6184 7.22538 15.3579 7.04004 13H4.06445ZM16.96 13C16.7746 15.3581 15.9372 17.6183 14.5488 19.582C17.4126 18.6197 19.5509 16.0838 19.9355 13H16.96ZM9.04688 13C9.27091 15.3923 10.2947 17.6817 12 19.5664C13.7053 17.6817 14.7291 15.3923 14.9531 13H9.04688ZM9.4502 4.41699C6.58675 5.37945 4.44909 7.91643 4.06445 11H7.04004C7.22539 8.64182 8.06172 6.38078 9.4502 4.41699ZM12 4.43262C10.2944 6.3174 9.27083 8.60733 9.04688 11H14.9531C14.7292 8.60733 13.7056 6.3174 12 4.43262ZM14.5488 4.41699C15.9375 6.38089 16.7746 8.64164 16.96 11H19.9355C19.5509 7.91612 17.4127 5.37923 14.5488 4.41699Z" fill="#4B525A"/>
</svg>
