<svg width="24" height="24" viewBox="0 0 24 24" fill="none" xmlns="http://www.w3.org/2000/svg">
<path fill-rule="evenodd" clip-rule="evenodd" d="M18.8433 6.70371C18.4504 5.51831 17.7949 4.3257 16.6559 3.43418C14.2129 1.52199 9.78722 1.52189 7.34413 3.43418C6.20515 4.3257 5.54964 5.51831 5.15674 6.70371C4.87283 7.56029 4.76424 8.41051 4.65569 9.26036C4.56671 9.95703 4.47776 10.6534 4.29229 11.3529C3.92066 12.7545 2.87582 13.7009 2.47 13.956L2 14.2514V18H22V14.2514L21.53 13.956C21.1242 13.7009 20.0793 12.7545 19.7077 11.3529C19.5222 10.6534 19.4333 9.95703 19.3443 9.26036C19.2358 8.41051 19.1272 7.56029 18.8433 6.70371ZM7.08277 7.32858C7.39585 6.38398 7.86989 5.57974 8.60174 5.00689C10.37 3.62279 13.63 3.62279 15.3983 5.00689C16.1301 5.57974 16.6042 6.38398 16.9172 7.32858C17.1911 8.15476 17.2932 8.97964 17.3955 9.80601C17.4801 10.4897 17.5649 11.1745 17.7471 11.8618C18.1798 13.4934 19.213 14.6748 19.9731 15.3038V15.9946H4.02693V15.3038C4.78704 14.6748 5.82024 13.4934 6.25288 11.8618C6.43513 11.1745 6.51989 10.4897 6.60453 9.80602C6.70682 8.97965 6.80893 8.15476 7.08277 7.32858Z" fill="#4B525A"/>
<path d="M8.5 22H15.5V20H8.5V22Z" fill="#4B525A"/>
</svg>
