<svg width="24" height="24" viewBox="0 0 24 24" fill="none" xmlns="http://www.w3.org/2000/svg">
<g clip-path="url(#clip0_17587_6928)">
<path d="M23.6696 6.5566C23.6683 6.31858 23.6653 6.08022 23.6591 5.84219C23.6449 5.32373 23.6144 4.80033 23.5223 4.28778C23.4286 3.76701 23.2761 3.28241 23.0351 2.80932C22.7984 2.34444 22.4893 1.91934 22.1208 1.55079C21.7522 1.18225 21.3268 0.872877 20.8619 0.636164C20.3892 0.395507 19.9045 0.24263 19.3841 0.14926C18.8712 0.0568767 18.3478 0.0266301 17.829 0.0124932C17.591 0.00591781 17.353 0.00328767 17.1146 0.0019726C16.8319 0 16.5492 0 16.2664 0H7.40482C7.12208 0 6.83934 0 6.5566 0.00164384C6.31858 0.0029589 6.08022 0.00591781 5.84219 0.0121644C5.3234 0.0263014 4.8 0.0568767 4.28712 0.148932C3.76669 0.24263 3.28241 0.395178 2.80932 0.635836C2.34444 0.872548 1.91934 1.18159 1.55047 1.55047C1.18192 1.91934 0.872548 2.34444 0.636164 2.80932C0.395178 3.28241 0.24263 3.76701 0.148932 4.28778C0.0568767 4.80066 0.0263014 5.32373 0.0121644 5.84219C0.00558904 6.08022 0.0029589 6.31825 0.00164384 6.5566C0 6.83934 0 7.12208 0 7.40482V16.2667C0 16.5495 0 16.8322 0.00164384 17.115C0.0029589 17.353 0.00591781 17.5913 0.0121644 17.8294C0.0263014 18.3478 0.0568767 18.8712 0.148932 19.3838C0.24263 19.9045 0.395178 20.3892 0.636164 20.8622C0.872877 21.3271 1.18192 21.7522 1.55047 22.1208C1.91934 22.4896 2.34444 22.7987 2.80932 23.0351C3.28208 23.2757 3.76669 23.4286 4.28712 23.522C4.8 23.6144 5.3234 23.6446 5.84219 23.6587C6.08022 23.6653 6.31825 23.6679 6.5566 23.6693C6.83934 23.6712 7.12208 23.6712 7.40482 23.6712H16.2667C16.5495 23.6712 16.8322 23.6712 17.115 23.6696C17.353 23.6683 17.5913 23.6653 17.8294 23.6591C18.3482 23.6449 18.8716 23.6144 19.3844 23.5223C19.9049 23.4286 20.3892 23.2761 20.8622 23.0354C21.3271 22.7987 21.7522 22.4896 22.1211 22.1211C22.4896 21.7522 22.799 21.3271 23.0354 20.8626C23.2764 20.3895 23.4289 19.9049 23.5226 19.3841C23.6147 18.8712 23.6453 18.3482 23.6594 17.8297C23.666 17.5917 23.6686 17.3536 23.6699 17.1153C23.6712 16.8319 23.6712 16.5492 23.6712 16.2664V7.40482C23.6712 7.12208 23.6712 6.83934 23.6696 6.5566ZM13.6488 15.6871C13.5922 16.3502 13.4854 17.2346 13.3453 18.1351C13.2457 18.7759 13.1648 19.1221 13.0912 19.3696C12.9718 19.7711 12.5257 20.1222 11.8281 20.1222C11.1304 20.1222 10.6843 19.7711 10.5649 19.3696C10.4913 19.1221 10.4104 18.7759 10.3108 18.1351C10.1711 17.2346 10.0639 16.3502 10.0073 15.6871C9.94816 14.9911 9.91726 14.5558 9.97217 14.0505C10.0004 13.7895 10.0899 13.6064 10.2595 13.4275C10.5843 13.0849 11.1547 12.8653 11.8281 12.8653C12.5014 12.8653 13.0721 13.0849 13.3966 13.4275C13.5662 13.6064 13.6557 13.7895 13.6839 14.0505C13.7389 14.5562 13.7079 14.9915 13.6488 15.6871ZM9.00723 14.0055C9.07529 14.0693 9.11145 14.16 9.10652 14.2527C9.09074 14.5358 9.09633 14.811 9.1154 15.122C9.12033 15.2045 9.02762 15.2578 8.95923 15.2111C7.59715 14.281 6.70751 12.7085 6.73019 10.9335C6.76471 8.23496 8.92899 6.01118 11.6269 5.90663C14.5295 5.79419 16.9272 8.12219 16.9272 10.9999C16.9272 12.7473 16.0429 14.2922 14.6982 15.2107C14.6298 15.2574 14.5368 15.2045 14.542 15.122C14.5608 14.8113 14.5667 14.5361 14.5506 14.253C14.5453 14.16 14.5818 14.0693 14.6499 14.0055C15.4517 13.2529 15.9534 12.1841 15.9534 11.0002C15.9534 8.67255 14.014 6.78904 11.6656 6.87978C9.50499 6.96362 7.76219 8.72844 7.70532 10.8894C7.67244 12.117 8.18038 13.2293 9.00723 14.0055ZM13.5995 10.3792C13.5995 11.3573 12.8065 12.1499 11.8281 12.1499C10.8496 12.1499 10.0567 11.3573 10.0567 10.3792C10.0567 9.4011 10.8496 8.60844 11.8281 8.60844C12.8065 8.60844 13.5995 9.4011 13.5995 10.3792ZM14.3471 18.1795C14.2744 18.2052 14.2008 18.1447 14.2123 18.0687C14.2514 17.8083 14.2885 17.547 14.3224 17.2895C14.3346 17.1988 14.3921 17.1199 14.4759 17.0834C16.8217 16.0593 18.4652 13.7181 18.4652 10.9999C18.4652 7.32329 15.4583 4.33545 11.7735 4.36504C8.16921 4.3943 5.22608 7.33151 5.19123 10.9348C5.1646 13.6803 6.81567 16.0507 9.17984 17.0831C9.264 17.1199 9.32186 17.1981 9.33403 17.2892C9.36789 17.5466 9.40504 17.8083 9.44417 18.0687C9.45567 18.145 9.38203 18.2052 9.30937 18.1795C6.31825 17.1278 4.17633 14.2583 4.21775 10.9039C4.26904 6.76274 7.66356 3.40307 11.806 3.39156C16.0129 3.37973 19.439 6.79726 19.439 11.0002C19.439 14.3132 17.3096 17.138 14.3471 18.1795Z" fill="#4B525A"/>
</g>
<defs>
<clipPath id="clip0_17587_6928">
<rect width="24" height="24" fill="white"/>
</clipPath>
</defs>
</svg>
