<svg width="24" height="24" viewBox="0 0 24 24" fill="none" xmlns="http://www.w3.org/2000/svg">
<path fill-rule="evenodd" clip-rule="evenodd" d="M12.203 21.9964C17.6 21.8521 21.9307 17.4318 21.9307 12C21.9307 6.47723 17.4536 2.00013 11.9309 2C9.38378 2.00006 7.05909 2.95242 5.29347 4.52046C3.25085 6.33456 1.95623 8.97323 1.9315 11.9142C1.93126 11.9426 1.93066 11.9715 1.93066 12C1.93066 12.7257 2.00798 13.4334 2.15481 14.1153C2.55327 15.9659 3.46428 17.6258 4.73141 18.94C5.20036 19.4264 5.71773 19.8655 6.27644 20.2492C7.82194 21.3106 9.68096 21.9488 11.6859 21.9971C11.7593 21.9988 11.8328 21.9998 11.9066 22C11.9147 22 11.9229 22 11.9311 22C12.0221 22 12.1127 21.9988 12.203 21.9964ZM11.9311 20C12.4361 20 12.9302 19.9532 13.4092 19.8637C14.618 17.6769 15.1127 15.262 15.1191 12.9517C14.8925 13.0037 14.6399 13.0797 14.374 13.1861C13.71 13.452 13.034 13.8804 12.5239 14.5039C10.8752 16.519 9.36269 18.0086 8.09387 19.0214C9.23306 19.6453 10.5407 20 11.9311 20ZM6.82767 17.7276C6.73674 17.7984 6.64797 17.8659 6.56141 17.9302C5.12149 16.6255 4.15884 14.8038 3.96658 12.7579C4.18889 12.6373 4.42369 12.5203 4.67024 12.4069C5.77935 11.8969 7.07313 11.4856 8.41784 11.1612C10.7434 10.6002 13.1566 10.3143 14.8996 10.2095C14.9492 10.5128 14.9911 10.8216 15.0245 11.1348C14.608 11.2082 14.1566 11.3343 13.7049 11.5151C12.8272 11.8666 11.8754 12.454 11.1308 13.364C9.47626 15.3863 7.99961 16.8144 6.82767 17.7276ZM7.99571 9.41142C6.62224 9.74276 5.25239 10.1707 4.03311 10.7193C4.31738 8.95255 5.18018 7.37932 6.421 6.20011C6.76748 6.18495 7.13065 6.19693 7.50388 6.23394C8.63243 6.34587 9.74686 6.67672 10.5587 7.04574C12.1943 7.78921 13.4696 8.00828 14.3885 8.03606C14.429 8.16583 14.4682 8.29755 14.5059 8.43112C12.7017 8.55428 10.3146 8.85199 7.99571 9.41142ZM11.3036 5.40709C10.6099 5.0918 9.75382 4.80634 8.83929 4.61937C9.79048 4.22043 10.8351 4 11.9311 4C11.976 4 12.0207 4.00037 12.0654 4.0011C12.5803 4.40997 13.1412 5.13991 13.6443 6.15629C13.027 6.05352 12.2485 5.83661 11.3036 5.40709ZM19.9311 12C19.9311 12.4195 19.8988 12.8315 19.8366 13.2336C19.6211 12.8827 19.3691 12.5764 19.0897 12.3121C18.3881 11.6486 17.5639 11.2986 16.8352 11.1504C16.805 10.834 16.767 10.5213 16.7217 10.2133C17.1163 10.24 17.5473 10.2818 17.9717 10.3435C18.4086 10.407 18.8219 10.4892 19.1733 10.5914C19.4893 10.6834 19.7121 10.7795 19.8512 10.8647C19.9039 11.2356 19.9311 11.6146 19.9311 12ZM18.2326 7.07083C18.6346 7.58398 18.9752 8.14747 19.2435 8.75028C18.9123 8.6729 18.5684 8.61129 18.2306 8.56219C17.5749 8.46689 16.9121 8.41449 16.3583 8.39037C16.3206 8.24175 16.2812 8.09471 16.2403 7.94938C16.4327 7.91526 16.6308 7.86936 16.8293 7.8093C17.2896 7.67002 17.7943 7.44088 18.2326 7.07083ZM14.8074 4.53263C15.593 4.83541 16.3187 5.2586 16.9621 5.77957C16.7804 5.90812 16.5597 6.01027 16.3079 6.08645C16.0801 6.15538 15.8506 6.19538 15.6447 6.21573C15.3973 5.61451 15.1166 5.04722 14.8074 4.53263ZM15.7991 19.0045C17.0527 18.3107 18.1004 17.2901 18.8272 16.0577C18.7608 14.8042 18.321 14.0626 17.8529 13.6199C17.5638 13.3465 17.2359 13.1606 16.9185 13.0414C16.9038 14.994 16.5734 17.0402 15.7991 19.0045Z" fill="#4B525A"/>
</svg>
