<svg width="24" height="24" viewBox="0 0 24 24" fill="none" xmlns="http://www.w3.org/2000/svg">
<path d="M8.68063 2C11.7898 2 14.4028 4.12391 15.1481 7H13.111C12.4329 5.21334 10.7051 3.94346 8.68063 3.94346C6.06436 3.94346 3.94346 6.06436 3.94346 8.68063C3.94346 10.7051 5.21334 12.4329 7 13.111V15.1481C4.12391 14.4028 2 11.7898 2 8.68063C2 4.99102 4.99102 2 8.68063 2Z" fill="#4B525A"/>
<path d="M8 13.3792C8.0008 13.376 8.00161 13.3728 8.00241 13.3696L8 13.3693V13.3792Z" fill="#4B525A"/>
<path d="M13.3697 8.00276L13.3693 8H13.3806L13.3697 8.00276Z" fill="#4B525A"/>
<path d="M16.3456 14.2234V18.3979H17.6283V12.9251H16.711L15.576 13.2672L15.6693 14.4177L16.3456 14.2234Z" fill="#4B525A"/>
<path d="M13.848 18.3979V14.2234L13.1716 14.4177L13.0784 13.2672L14.2133 12.9251H15.1307V18.3979H13.848Z" fill="#4B525A"/>
<path fill-rule="evenodd" clip-rule="evenodd" d="M15.4827 22C19.0821 22 22 19.0821 22 15.4827C22 11.8833 19.0821 8.96544 15.4827 8.96544C11.8833 8.96544 8.96544 11.8833 8.96544 15.4827C8.96544 19.0821 11.8833 22 15.4827 22ZM20.0565 15.4827C20.0565 18.0088 18.0088 20.0565 15.4827 20.0565C12.9567 20.0565 10.9089 18.0088 10.9089 15.4827C10.9089 12.9567 12.9567 10.9089 15.4827 10.9089C18.0088 10.9089 20.0565 12.9567 20.0565 15.4827Z" fill="#4B525A"/>
<path d="M7.4834 11.2314L9.05371 6.98691H7.25796V5.78974H10.3908V6.66818L8.79717 11.2314H7.4834Z" fill="#4B525A"/>
</svg>
