<svg width="24" height="24" viewBox="0 0 24 24" fill="none" xmlns="http://www.w3.org/2000/svg">
<g clip-path="url(#clip0_17527_48252)">
<path d="M24 12.073C24 5.405 18.627 0 12 0C5.373 0 0 5.405 0 12.073C0 18.1 4.388 23.094 10.125 24V15.563H7.078V12.073H10.125V9.413C10.125 6.388 11.917 4.716 14.658 4.716C15.971 4.716 17.344 4.952 17.344 4.952V7.923H15.83C14.339 7.923 13.874 8.853 13.874 9.809V12.073H17.202L16.67 15.563H13.874V24C19.612 23.094 24 18.1 24 12.073Z" fill="#4B525A"/>
</g>
<defs>
<clipPath id="clip0_17527_48252">
<rect width="24" height="24" fill="white"/>
</clipPath>
</defs>
</svg>
