<svg width="24" height="24" viewBox="0 0 24 24" fill="none" xmlns="http://www.w3.org/2000/svg">
<path d="M10.8382 11.2002L11.1142 13.1442H12.3382L12.4702 12.4122C13.7782 12.1482 14.8342 11.5242 14.8342 10.0002V9.97619C14.8342 8.38019 13.6582 7.49219 11.9302 7.49219C10.6222 7.49219 9.68623 8.02019 8.99023 8.78819L10.0942 10.0002C10.6462 9.44819 11.2222 9.17219 11.8942 9.17219C12.5902 9.17219 12.9982 9.48419 12.9982 10.0242V10.0482C12.9982 10.6842 12.4102 11.0802 10.8982 11.1402L10.8382 11.2002Z" fill="#4B525A"/>
<path d="M10.7182 14.0802V16.0002H12.6622V14.0802H10.7182Z" fill="#4B525A"/>
<path fill-rule="evenodd" clip-rule="evenodd" d="M12 22C17.5228 22 22 17.5228 22 12C22 6.47715 17.5228 2 12 2C6.47715 2 2 6.47715 2 12C2 17.5228 6.47715 22 12 22ZM12 20C16.4183 20 20 16.4183 20 12C20 7.58172 16.4183 4 12 4C7.58172 4 4 7.58172 4 12C4 16.4183 7.58172 20 12 20Z" fill="#4B525A"/>
</svg>
