<svg width="24" height="24" viewBox="0 0 24 24" fill="none" xmlns="http://www.w3.org/2000/svg">
<path fill-rule="evenodd" clip-rule="evenodd" d="M21.3463 11.2009C21.6604 11.2851 21.8967 11.5578 21.9475 11.8946C21.9984 12.2314 21.854 12.5678 21.5802 12.7503C21.4701 12.8236 21.3559 12.8849 21.2391 12.9359C20.4497 14.5092 17.9551 18.7469 11.9788 18.7469C6.00045 18.7469 3.50616 14.5062 2.71768 12.9342C2.60048 12.8837 2.48647 12.823 2.37739 12.7503C2.10362 12.5678 1.95924 12.2314 2.01008 11.8946C2.06093 11.5578 2.29727 11.2851 2.61131 11.2009C3.66312 10.9187 4.43414 10.1572 5.29014 9.16024C5.39335 9.04003 5.49866 8.91503 5.60652 8.78701C6.33883 7.91779 7.18843 6.90935 8.29632 6.31419C9.06781 5.89974 9.90451 5.99281 10.5556 6.20985C11.4817 6.51855 12.4759 6.51855 13.402 6.20983L13.4703 6.18706C14.0568 5.99154 14.8367 5.87121 15.5789 6.23219C16.7 6.77745 17.5748 7.82578 18.3261 8.72617C18.4267 8.84671 18.5251 8.96459 18.6215 9.07826C19.5031 10.1172 20.2967 10.9193 21.3463 11.2009ZM4.7367 13.1223C5.76822 14.7537 7.89001 17.0802 11.9788 17.0802C16.0763 17.0802 18.1984 14.7439 19.2274 13.1119C18.92 13.0732 18.6111 13.0168 18.3128 12.9554C18.0402 12.8994 17.7661 12.837 17.5023 12.7767L17.463 12.7677C17.2106 12.71 16.9684 12.6547 16.7331 12.6054C16.2297 12.5 15.811 12.4346 15.4788 12.4346C14.9955 12.4346 14.5882 12.5548 14.1606 12.7686C13.6981 12.9999 13.1538 13.2679 12.1455 13.2679C11.4144 13.2679 10.7651 13.086 10.1168 12.7618C9.75247 12.5796 9.46256 12.4346 8.81214 12.4346C8.47693 12.4346 8.0358 12.5009 7.49685 12.6072C7.28871 12.6483 7.0405 12.7009 6.78214 12.7558C6.4505 12.8261 6.10213 12.9001 5.80031 12.9576C5.45128 13.024 5.09104 13.0842 4.7367 13.1223ZM15.4788 10.7261C15.9799 10.7261 16.53 10.8209 17.05 10.9298C17.2997 10.982 17.5548 11.0404 17.8035 11.0972L17.847 11.1072C18.0042 11.1431 18.1591 11.1784 18.312 11.212C17.9849 10.8842 17.6873 10.5426 17.4103 10.2161C17.3062 10.0934 17.2052 9.97339 17.1067 9.85632C16.3146 8.91474 15.6846 8.16579 14.8976 7.78304C14.6861 7.68016 14.3757 7.67743 13.9607 7.81579L13.8924 7.83856C12.6472 8.25365 11.3105 8.25366 10.0652 7.83858C9.6298 7.69343 9.2783 7.70497 9.03467 7.83584C8.22052 8.27322 7.59317 9.01273 6.83762 9.90337C6.72652 10.0343 6.61264 10.1686 6.495 10.3056C6.22584 10.6191 5.93855 10.9436 5.62345 11.2547C5.9023 11.2003 6.1572 11.1458 6.41584 11.0905C6.66472 11.0373 6.91714 10.9833 7.19763 10.9279C7.74468 10.82 8.31401 10.7261 8.81214 10.7261C9.82037 10.7261 10.3647 10.9942 10.8273 11.2254C11.6586 11.6412 12.6319 11.6414 13.4637 11.2254C13.9262 10.9942 14.4706 10.7261 15.4788 10.7261Z" fill="#4B525A"/>
</svg>
