<svg width="24" height="24" viewBox="0 0 24 24" fill="none" xmlns="http://www.w3.org/2000/svg">
<path fill-rule="evenodd" clip-rule="evenodd" d="M15.6077 9.25801C15.6077 11.2623 13.9923 12.8871 11.9996 12.8871C10.0068 12.8871 8.39141 11.2623 8.39141 9.25801C8.39141 7.25371 10.0068 5.62891 11.9996 5.62891C13.9923 5.62891 15.6077 7.25371 15.6077 9.25801ZM13.6232 9.25801C13.6232 10.1599 12.8963 10.8911 11.9996 10.8911C11.1028 10.8911 10.3759 10.1599 10.3759 9.25801C10.3759 8.35608 11.1028 7.62491 11.9996 7.62491C12.8963 7.62491 13.6232 8.35608 13.6232 9.25801Z" fill="#4B525A"/>
<path fill-rule="evenodd" clip-rule="evenodd" d="M21.1811 3.16175C15.2881 1.61275 8.7119 1.61275 2.81893 3.16175L2 3.377L2.08227 4.22432C2.1677 5.10425 2.24866 5.98461 2.32963 6.86497C2.41144 7.75458 2.49326 8.64419 2.57968 9.53337C2.76059 11.3946 2.95114 13.1851 3.09952 13.8586C3.45334 15.4647 4.74275 17.2159 6.27392 18.6439C7.82807 20.0933 9.79927 21.3676 11.7274 21.9217L12 22L12.2726 21.9217C14.2007 21.3676 16.1719 20.0933 17.7261 18.6439C19.2572 17.2159 20.5467 15.4647 20.9005 13.8586C21.0489 13.1851 21.2394 11.3946 21.4203 9.53337C21.5068 8.64405 21.5886 7.75429 21.6704 6.86454C21.7514 5.98432 21.8323 5.10411 21.9177 4.22432L22 3.377L21.1811 3.16175ZM4.26228 6.22171C4.21895 5.75142 4.17751 5.30175 4.13896 4.88944C9.2163 3.69819 14.7837 3.69819 19.861 4.88944C19.8225 5.30202 19.781 5.75201 19.7376 6.22264L19.714 6.47896C19.6289 7.40259 19.5371 8.39409 19.4452 9.33916C19.2576 11.2693 19.0785 12.9027 18.963 13.4268C18.8015 14.1597 18.269 15.0956 17.4526 16.0573C16.0115 14.7423 14.0986 13.9411 11.9996 13.9411C9.9008 13.9411 7.98805 14.7421 6.54703 16.0568C5.73086 15.0953 5.19843 14.1595 5.03701 13.4268C4.92154 12.9027 4.74236 11.2693 4.55475 9.33916C4.4629 8.39409 4.37113 7.40259 4.28599 6.47896L4.26228 6.22171ZM7.94814 17.4743C9.19681 18.5708 10.6484 19.4715 12 19.9182C13.3514 19.4716 14.8029 18.571 16.0514 17.4747C14.9708 16.5176 13.5526 15.9371 11.9996 15.9371C10.4468 15.9371 9.02871 16.5175 7.94814 17.4743Z" fill="#4B525A"/>
</svg>
