<svg width="24" height="24" viewBox="0 0 24 24" fill="none" xmlns="http://www.w3.org/2000/svg">
<path fill-rule="evenodd" clip-rule="evenodd" d="M17 12C19.7614 12 22 14.2386 22 17C22 19.7614 19.7614 22 17 22C14.2386 22 12 19.7614 12 17C12 14.2386 14.2386 12 17 12ZM16 18.0342H19.5342V16.9814H17.0527V14.5H16V18.0342Z" fill="#4B525A"/>
<path fill-rule="evenodd" clip-rule="evenodd" d="M20.9473 10.6895C20.3115 10.246 19.6023 9.90015 18.8418 9.67383V4.87109L8.37598 8.30078L8.77637 13.418L10.0508 13.6357C9.61293 14.5783 9.36816 15.6296 9.36816 16.7373C9.36825 18.0744 9.72498 19.3282 10.3477 20.4092L6.69043 21.8477L3.74512 14.8994L2 14.708V7.80078L6.96875 6.58008L20.9473 2V10.6895ZM7.30957 19.3877L8.77637 18.8965L7.32617 15.334H5.68457L7.30957 19.3877ZM4.10547 9.41699V12.8564L6.64258 13.1338L6.30957 8.875L4.10547 9.41699Z" fill="#4B525A"/>
</svg>
