<svg width="24" height="24" viewBox="0 0 24 24" fill="none" xmlns="http://www.w3.org/2000/svg">
<path fill-rule="evenodd" clip-rule="evenodd" d="M4.1758 4.00044C4.24074 4.75091 4.31323 5.63685 4.38886 6.56118C4.4493 7.29983 4.51174 8.06298 4.57394 8.80112C4.6658 9.89119 4.75734 10.9295 4.84203 11.7683C4.92934 12.6328 5.00335 13.219 5.05411 13.4504C5.33713 14.7407 5.79366 16.3856 6.813 17.7038C7.79025 18.9676 9.33727 20.0004 12.0004 20.0004C14.6635 20.0004 16.2105 18.9676 17.1878 17.7038C18.2071 16.3856 18.6637 14.7407 18.9467 13.4504C18.9974 13.2191 19.0714 12.6329 19.1586 11.7683C19.2432 10.9295 19.3347 9.89112 19.4264 8.80099C19.4884 8.06523 19.5505 7.30461 19.6107 6.56818C19.6865 5.64118 19.7591 4.75252 19.8242 4.00004C14.6081 3.99992 9.39195 4.00009 4.1758 4.00044ZM3.09116 2.00052C9.03036 2.00009 14.9696 1.99988 20.9088 2.00007L22 2.0001L21.8939 3.09726C21.8095 3.97099 21.702 5.28586 21.5858 6.70846C21.5252 7.44895 21.4623 8.21862 21.399 8.97045C21.3071 10.0629 21.2145 11.115 21.1281 11.9711C21.0444 12.8013 20.9604 13.5144 20.8795 13.8831C20.5859 15.2217 20.0559 17.2436 18.7479 18.9351C17.3979 20.6809 15.2768 22.0004 12.0004 22.0004C8.72394 22.0004 6.60293 20.6809 5.25289 18.9351C3.94493 17.2436 3.4149 15.2217 3.12127 13.8831C3.04042 13.5145 2.95636 12.8014 2.87253 11.9712C2.78608 11.1152 2.6934 10.0631 2.60135 8.97077C2.53779 8.21654 2.47462 7.44436 2.41386 6.70171C2.29771 5.28191 2.19038 3.97002 2.10606 3.09771L2 2.00059L3.09116 2.00052Z" fill="#4B525A"/>
<path d="M14.9141 13.0758V9.42878H14.0064V8.17578H17.1799V9.42878H16.2722V13.0758H14.9141Z" fill="#4B525A"/>
<path d="M12.3793 13.1526C11.7488 13.1526 11.1737 12.9776 10.6124 12.5436L11.1737 11.4096C11.5617 11.7246 11.9844 11.9346 12.3239 11.9346C12.5664 11.9346 12.6565 11.8086 12.6565 11.6756V11.6686C12.6565 11.5076 12.511 11.4166 12.1507 11.2556C11.3192 10.8846 10.7995 10.4996 10.7995 9.67363V9.63863C10.7995 8.71463 11.4647 8.09863 12.4556 8.09863C12.9614 8.09863 13.4672 8.21063 14.0215 8.62363L13.4256 9.70863C13.19 9.54063 12.8297 9.31663 12.4694 9.31663C12.2685 9.31663 12.1645 9.42863 12.1645 9.55463V9.56863C12.1645 9.72263 12.3239 9.82063 12.7604 10.0236C13.4741 10.3526 14.0215 10.7656 14.0215 11.5636V11.5986C14.0215 12.5296 13.3425 13.1526 12.3793 13.1526Z" fill="#4B525A"/>
<path d="M8.71974 13.1803C7.58338 13.1803 6.82118 12.2773 6.82118 10.7583V10.4993C6.82118 8.98031 7.58338 8.07031 8.72667 8.07031C9.86996 8.07031 10.6322 8.97331 10.6322 10.4923V10.7513C10.6322 12.2703 9.86303 13.1803 8.71974 13.1803ZM8.72667 11.9413C9.05234 11.9413 9.25328 11.6263 9.25328 10.7303V10.5273C9.25328 9.62431 9.04541 9.30931 8.71974 9.30931C8.40101 9.30931 8.19313 9.62431 8.19313 10.5203V10.7233C8.19313 11.6263 8.39408 11.9413 8.72667 11.9413Z" fill="#4B525A"/>
</svg>
