<svg width="24" height="24" viewBox="0 0 24 24" fill="none" xmlns="http://www.w3.org/2000/svg">
<path fill-rule="evenodd" clip-rule="evenodd" d="M15 9C15 10.6569 13.6569 12 12 12C10.3431 12 9 10.6569 9 9C9 7.34315 10.3431 6 12 6C13.6569 6 15 7.34315 15 9ZM13 9C13 9.55228 12.5523 10 12 10C11.4477 10 11 9.55228 11 9C11 8.44772 11.4477 8 12 8C12.5523 8 13 8.44772 13 9Z" fill="#4B525A"/>
<path fill-rule="evenodd" clip-rule="evenodd" d="M20 9.27273C20 14.7273 12 22 12 22C12 22 4 14.7273 4 9.27273C4 5.25611 7.58172 2 12 2C16.4183 2 20 5.25611 20 9.27273ZM17.9613 9.27273C17.9613 10.1721 17.6195 11.3117 16.9395 12.6253C16.2726 13.9138 15.3596 15.2189 14.4081 16.4083C13.5504 17.4804 12.6882 18.4253 12 19.1392C11.3118 18.4253 10.4496 17.4804 9.59193 16.4083C8.64039 15.2189 7.72743 13.9138 7.06047 12.6253C6.38048 11.3117 6.03866 10.1721 6.03866 9.27273C6.03866 6.56053 8.52044 4.03866 12 4.03866C15.4796 4.03866 17.9613 6.56053 17.9613 9.27273Z" fill="#4B525A"/>
</svg>
