<svg width="24" height="24" viewBox="0 0 24 24" fill="none" xmlns="http://www.w3.org/2000/svg">
<path d="M2.84863 15.5996H2.37402V12.3604H2.84863V15.5996Z" fill="#4B525A"/>
<path d="M2.84863 11.1602H2.37402V8.40039H2.84863V11.1602Z" fill="#4B525A"/>
<path d="M9.49512 15.5996H9.02051V10.0801H9.49512V15.5996Z" fill="#4B525A"/>
<path fill-rule="evenodd" clip-rule="evenodd" d="M11.8691 18H0V6H11.8691V18ZM1.1875 16.7998H3.56055C3.79781 16.7998 4.03492 16.5602 4.03516 16.3203V12C4.03516 11.76 3.85678 11.5996 3.56055 11.5996C3.82881 11.5996 4.03511 11.28 4.03516 11.04V7.67969C4.03498 7.43978 3.79784 7.2002 3.56055 7.2002H1.1875V16.7998ZM4.51074 16.7998H5.69727V8.87988H4.51074V16.7998ZM6.17188 16.7998H7.35938V7.2002H6.17188V16.7998ZM9.49512 8.87988H8.30859C8.07121 8.87988 7.83398 9.12035 7.83398 9.36035V16.3203C7.83422 16.5602 8.07133 16.7998 8.30859 16.7998H10.6826V7.2002H9.49512V8.87988ZM4.51074 8.40039H5.69824V7.2002H4.51074V8.40039Z" fill="#4B525A"/>
<path d="M17.3281 16.7998H16.1445V7.2041H17.3281V16.7998Z" fill="#4B525A"/>
<path d="M19.0029 15.5967H19.4775V8.7832H20.6729V16.3203C20.6725 16.5569 20.4324 16.7996 20.1924 16.7998H18.2881C18.048 16.7998 17.8079 16.557 17.8076 16.3203V8.7832H19.0029V15.5967Z" fill="#4B525A"/>
<path fill-rule="evenodd" clip-rule="evenodd" d="M22.3369 8.7832H23.5264C23.7666 8.78333 24.001 9.01982 24.001 9.2627V16.3203C24.0007 16.557 23.7664 16.7997 23.5264 16.7998H21.1533V7.2041H22.3369V8.7832ZM22.3369 15.6035H22.8115V10.0215H22.3369V15.6035Z" fill="#4B525A"/>
<path d="M15.1934 7.19727C15.4336 7.19742 15.668 7.44095 15.668 7.67773V11.1572H14.4844V8.39453H14.0098V15.5967H14.4844V12.3535H15.668V16.3135C15.668 16.5503 15.4336 16.7938 15.1934 16.7939H13.2949C13.0606 16.7939 12.8203 16.5506 12.8203 16.3076V7.67773C12.8203 7.44087 13.0606 7.19727 13.2949 7.19727H15.1934Z" fill="#4B525A"/>
</svg>
