<svg width="24" height="24" viewBox="0 0 24 24" fill="none" xmlns="http://www.w3.org/2000/svg">
<path d="M12.0006 8.7334C10.2495 8.7334 8.83594 10.1925 8.83594 12.0001C8.83594 13.8076 10.2495 15.2667 12.0006 15.2667C13.7518 15.2667 15.1653 13.8076 15.1653 12.0001C15.1653 10.1925 13.7518 8.7334 12.0006 8.7334Z" fill="#4B525A"/>
<path fill-rule="evenodd" clip-rule="evenodd" d="M12.0004 5C5.84402 5 2.80989 9.40918 2.0517 11.6838L1.94629 12L2.0517 12.3162C2.80989 14.5908 5.84402 19 12.0004 19C18.1567 19 21.1909 14.5908 21.9491 12.3162L22.0545 12L21.9491 11.6838C21.1909 9.40918 18.1567 5 12.0004 5ZM12.0004 17C7.24774 17 4.81359 13.8116 4.06731 12C4.81359 10.1884 7.24774 7 12.0004 7C16.753 7 19.1872 10.1884 19.9335 12C19.1872 13.8116 16.753 17 12.0004 17Z" fill="#4B525A"/>
</svg>
