<svg xmlns="http://www.w3.org/2000/svg" fill="none" viewBox="0 0 24 24"><g clip-path="url(#a)"><path fill="currentColor" d="m23.67 6.56-.01-.72a10 10 0 0 0-.14-1.55 5 5 0 0 0-.49-1.48A5 5 0 0 0 20.87.64a5 5 0 0 0-1.48-.49 10 10 0 0 0-1.55-.14h-.71L16.27 0H6.56l-.72.01A10 10 0 0 0 4.3.15a5 5 0 0 0-1.5.49A5 5 0 0 0 .64 2.8a5 5 0 0 0-.49 1.48 10 10 0 0 0-.14 1.55v.72L0 7.4v9.7l.01.72q.02.78.14 1.55.14.77.49 1.48a5 5 0 0 0 2.17 2.17q.7.35 1.48.5a10 10 0 0 0 1.55.13h.72l.84.01h9.71l.72-.01a10 10 0 0 0 1.55-.14 5 5 0 0 0 1.48-.49 5 5 0 0 0 2.17-2.17q.36-.7.5-1.48.11-.76.13-1.55v-.72l.01-.84V7.4zm-10.02 9.13a38 38 0 0 1-.3 2.45c-.1.64-.18.98-.26 1.23-.12.4-.56.75-1.26.75s-1.15-.35-1.26-.75a8 8 0 0 1-.26-1.24 38 38 0 0 1-.3-2.44 8 8 0 0 1-.04-1.64 1 1 0 0 1 .29-.62c.32-.34.9-.56 1.57-.56s1.24.22 1.57.56q.25.25.28.62c.06.5.03.94-.03 1.64M9 14a.3.3 0 0 1 .1.24 7 7 0 0 0 0 .87.1.1 0 0 1-.15.1 5.1 5.1 0 0 1-2.23-4.29 5.1 5.1 0 0 1 4.9-5.02 5.1 5.1 0 0 1 5.3 5.09 5.1 5.1 0 0 1-2.23 4.21.1.1 0 0 1-.16-.09q.03-.44.01-.87a.3.3 0 0 1 .1-.24 4 4 0 0 0 1.3-3.01 4.13 4.13 0 0 0-4.28-4.12 4.14 4.14 0 0 0-3.96 4.01A4.1 4.1 0 0 0 9 14.01m4.59-3.63a1.77 1.77 0 1 1-3.54 0 1.77 1.77 0 0 1 3.54 0m.75 7.8a.1.1 0 0 1-.14-.11l.11-.78a.3.3 0 0 1 .16-.2 6.6 6.6 0 0 0 4-6.09 6.64 6.64 0 0 0-6.7-6.63 6.66 6.66 0 0 0-6.58 6.57 6.6 6.6 0 0 0 3.99 6.14.3.3 0 0 1 .15.2l.11.79a.1.1 0 0 1-.13.1A7.62 7.62 0 0 1 11.8 3.4a7.62 7.62 0 0 1 2.54 14.79"/></g><defs><clipPath id="a"><rect width="24" height="24" fill="currentColor"/></clipPath></defs></svg>