<svg xmlns="http://www.w3.org/2000/svg" fill="none" viewBox="0 0 24 24"><path fill="currentColor" d="M2.85 15.6h-.48v-3.24h.48zm0-4.44h-.48V8.4h.48zM9.5 15.6h-.48v-5.52h.48z"/><path fill="currentColor" fill-rule="evenodd" d="M11.87 18H0V6h11.87zM1.19 16.8h2.37c.24 0 .47-.24.47-.48V12c0-.24-.17-.4-.47-.4.27 0 .47-.32.47-.56V7.68c0-.24-.23-.48-.47-.48H1.19zm3.32 0H5.7V8.88H4.5zm1.66 0h1.19V7.2H6.17zm3.32-7.92H8.31c-.24 0-.47.24-.47.48v6.96c0 .24.23.48.47.48h2.37V7.2H9.5zM4.51 8.4H5.7V7.2H4.5z" clip-rule="evenodd"/><path fill="currentColor" d="M17.33 16.8h-1.18V7.2h1.18zM19 15.6h.48V8.78h1.2v7.54c0 .24-.25.48-.49.48h-1.9a.5.5 0 0 1-.48-.48V8.78H19z"/><path fill="currentColor" fill-rule="evenodd" d="M22.34 8.78h1.19c.24 0 .47.24.47.48v7.06c0 .24-.23.48-.47.48h-2.38V7.2h1.19zm0 6.82h.47v-5.58h-.47z" clip-rule="evenodd"/><path fill="currentColor" d="M15.2 7.2c.23 0 .47.24.47.48v3.48h-1.19V8.39h-.47v7.2h.47v-3.24h1.19v3.96c0 .24-.24.48-.48.48h-1.9c-.23 0-.47-.24-.47-.48V7.68c0-.24.24-.48.48-.48z"/></svg>