<svg xmlns="http://www.w3.org/2000/svg" fill="none" viewBox="0 0 24 24"><path fill="currentColor" d="M19.1 8.15v10.94h-.95V8.15zM5.83 12.57v6.52h-.95v-6.52zm0-7.69v5.38h-.95V4.88z"/><path fill="currentColor" fill-rule="evenodd" d="M24 0v24H0V0zM9.16 5.84v15.6h2.33V5.84zm3.33-3.29v18.89h2.33V2.55zm6.61 0v3.29h-2.26a1 1 0 0 0-1.01 1.02V20.4a1 1 0 0 0 .3.72 1 1 0 0 0 .71.3h4.6V2.56zm-16.55 0v18.88h4.59a1 1 0 0 0 1.01-1.02v-8.19a1.07 1.07 0 0 0-1.07-1.07h.1a.97.97 0 0 0 .97-.96V3.57a1 1 0 0 0-1-1.02zm6.6 0v2.33h2.34V2.55z" clip-rule="evenodd"/></svg>