<svg xmlns="http://www.w3.org/2000/svg" fill="none" viewBox="0 0 24 24"><path fill="currentColor" d="M15.5 22h-7v-2h7z"/><path fill="currentColor" fill-rule="evenodd" d="M7.34 3.43c2.45-1.9 6.87-1.9 9.32 0a7 7 0 0 1 2.18 3.27c.29.86.4 1.71.5 2.56.1.7.18 1.4.37 2.1a5 5 0 0 0 1.82 2.6l.47.3V18h-2.66l2.57 2.59L20.5 22 5.78 7.21l-.6-.6L2 3.42 3.41 2l2.72 2.73a6 6 0 0 1 1.21-1.3m8.06 1.58a6.1 6.1 0 0 0-6.8 0 4 4 0 0 0-1 1.18l9.75 9.8h2.63v-.68a7 7 0 0 1-2.22-3.45c-.19-.68-.27-1.37-.36-2.05-.1-.83-.2-1.65-.47-2.48a4.7 4.7 0 0 0-1.52-2.32" clip-rule="evenodd"/><path fill="currentColor" d="M6.48 10.74q-.08.56-.23 1.12a7 7 0 0 1-2.22 3.44v.7h7.7l2.01 2H2v-3.75l.47-.3c.4-.25 1.45-1.2 1.82-2.6a16 16 0 0 0 .36-2.09l.04-.3z"/></svg>