<svg xmlns="http://www.w3.org/2000/svg" fill="none" viewBox="0 0 24 24"><path fill="currentColor" fill-rule="evenodd" d="M9.66 2h1c1.74 0 3.37 1.23 4.6 2.73.76.92 1.43 2.01 1.96 3.18l.29-1.52 1.24 1.35A8.3 8.3 0 0 1 21 13.42c0 4.8-4.09 8.58-9 8.58-4.7 0-9-3.73-9-8.58a8.3 8.3 0 0 1 1.45-4.68l1.03-1.5.55 1.56C6.63 7.79 7.37 7.06 8 6.43a8 8 0 0 0 1.36-1.57c.28-.48.45-1.04.38-1.85zm-4.45 9.28a6 6 0 0 0-.36 2.14c0 3.84 3.48 6.72 7.15 6.72 4 0 7.16-3.07 7.16-6.72q-.02-1.66-.78-3.06a7 7 0 0 1-.41.72l-1.14 1.76-.53-2.03a13 13 0 0 0-2.46-4.89 6 6 0 0 0-2.28-1.86 5 5 0 0 1-.6 1.75 10 10 0 0 1-1.62 1.91c-1 1-1.92 1.9-2.33 3.47l-.47 1.84-1.15-1.5z" clip-rule="evenodd"/><path fill="currentColor" d="M12 12c-.3-.66-2.4-1.41-3 0-.66 1.56 1.5 3.83 3 5 1.33-1.17 3.62-3.7 3-5-.67-1.4-2.8-.66-3 0"/></svg>