<svg xmlns="http://www.w3.org/2000/svg" fill="none" viewBox="0 0 24 24"><path fill="currentColor" d="M11.99 2.51c2.3 0 4.76 1.18 5.88 3.68.37.82.43 1.78.43 2.48q.5.1.93.4c.47.3 1.1.95 1.12 1.96v.14a2.4 2.4 0 0 1-.77 1.65 3 3 0 0 1-.64.47q.6.62 1.24.72A2.17 2.17 0 0 1 22 16.28a2.4 2.4 0 0 1-.99 1.78 4 4 0 0 1-1.1.57l-.5.15a2 2 0 0 1-.53.74 2 2 0 0 1-1.07.51c-.53.1-1.03-.01-1.16-.04a2 2 0 0 0-.77-.03l-.12.06-.73.48a5.4 5.4 0 0 1-2.98.99A5.6 5.6 0 0 1 9 20.5c-.44-.28-.48-.33-.75-.49l-.12-.06a2 2 0 0 0-.54 0l-.33.06c-.1.02-.35.07-.63.07a2.2 2.2 0 0 1-1.5-.57 2 2 0 0 1-.55-.74l-.49-.15a4 4 0 0 1-1.1-.57A2.4 2.4 0 0 1 2 16.28 2.17 2.17 0 0 1 3.83 14q.65-.12 1.23-.72a3 3 0 0 1-.91-.78 2.3 2.3 0 0 1-.45-1.87c.15-.81.69-1.33 1.1-1.6q.41-.26.9-.37c0-.7.06-1.66.43-2.48a6.3 6.3 0 0 1 5.86-3.68m0 1.84c-1.7 0-3.4.86-4.19 2.6-.4.9-.24 2.53-.18 3.68-.44.24-1-.19-1.33-.19s-.73.22-.79.55v.09c0 .22.16.52.82.78.29.11.99.25 1.15.63.22.53-1.17 2.98-3.35 3.34l-.06.01a.34.34 0 0 0-.22.34c.04.66 1.52.92 2.18 1.02.07.09.13.47.21.76l.04.1a.4.4 0 0 0 .27.18l.09.01c.33 0 .89-.26 1.86-.1.9.15 1.73 1.34 3.25 1.49l.31.01c1.6 0 2.55-1.34 3.46-1.5a4 4 0 0 1 1.5.04c.35.07.66.1.76-.23.09-.3.14-.67.2-.76.64-.1 2.06-.35 2.19-.96v-.06a.34.34 0 0 0-.28-.35c-2.14-.36-3.58-2.8-3.34-3.34.16-.38.85-.51 1.15-.63q.83-.33.82-.8c0-.4-.49-.63-.84-.63-.36 0-.87.42-1.29.2.06-1.08.2-2.58-.11-3.51l-.07-.18a4.5 4.5 0 0 0-4.2-2.6"/></svg>