<svg width="24" height="24" viewBox="0 0 24 24" fill="none" xmlns="http://www.w3.org/2000/svg">
<path d="M16.0969 15.25C17.0376 15.8279 17.6163 16.8404 17.6163 17.9444C17.6163 20.3889 15.6085 22 12.2713 22C9.6124 22 7.52326 21 6.00388 19.3611L7.87597 17.4722C9.12403 18.6667 10.5349 19.4444 12.2442 19.4444C13.1662 19.4444 14.4419 19.1727 14.4419 18.0278C14.4419 17.2222 13.655 16.7222 10.8605 16.0833C8.69059 15.5817 5 14.836 5 11.9722C5 10.1667 6.24806 9.19444 7.9031 8.75C6.92636 8.11111 6.41085 7.16667 6.41085 6.11111C6.41085 3.18693 9.1672 2 11.7287 2C14.3876 2 16.4767 2.97222 17.9961 4.63889L16.124 6.52778C14.876 5.33333 13.4651 4.55556 11.7558 4.55556C10.3178 4.55556 9.55814 5.11111 9.55814 5.91667C9.55814 7.35787 12.1604 7.68463 13.1395 7.91667C17.345 8.88889 19 9.94445 19 11.9722C19 13.7403 17.7045 14.8183 16.0969 15.25ZM13.9535 14C15.1744 14 16.0426 13.3611 16.0426 12.5C16.0426 11.1361 13.8384 10.7454 12.8682 10.5C11.4845 10.1389 10.6705 10 10.0465 10C9.10382 10 7.95736 10.4611 7.95736 11.5556C7.95736 12.3611 8.82558 12.9167 11.1589 13.5C12.5155 13.8611 13.3295 14 13.9535 14Z" fill="#4B525A"/>
</svg>
