<svg width="24" height="24" viewBox="0 0 24 24" fill="none" xmlns="http://www.w3.org/2000/svg">
<path fill-rule="evenodd" clip-rule="evenodd" d="M12.0669 15.6898C11.4141 15.8913 10.7206 15.9998 10.0017 16C6.13569 16.0009 3.00093 12.8677 3 9.00169C2.99907 5.13569 6.13232 2.00093 9.99831 2C13.8643 1.99907 16.9991 5.13232 17 8.99831C17.0003 10.3178 16.6355 11.5521 16.0011 12.6057L21.0012 18.9993L17.0012 21.9994L12.0669 15.6898ZM15 8.9988C15.0007 11.7602 12.7626 13.9993 10.0012 14C7.23978 14.0007 5.00067 11.7626 5 9.0012C4.99933 6.23978 7.23737 4.00067 9.9988 4C12.7602 3.99933 14.9993 6.23737 15 8.9988ZM14.2423 15.225L15.0293 14.6096L18.1686 18.6238L17.3692 19.2234L14.2423 15.225Z" fill="#4B525A"/>
</svg>
