<svg width="24" height="24" viewBox="0 0 24 24" fill="none" xmlns="http://www.w3.org/2000/svg">
<path d="M19.1039 12.4103V14.435H16.0674V12.9165L19.1039 12.4103Z" fill="#4B525A"/>
<path d="M5.03409 14.435V12.4103L8.07061 12.9165V14.435H5.03409Z" fill="#4B525A"/>
<path fill-rule="evenodd" clip-rule="evenodd" d="M6.38296 4L4.86598 7.95811H2V9.24215C2 9.94213 2.51209 10.5368 3.20433 10.6406L2.09082 11.8647V17.8452H3.41495V19.4929C3.41495 19.7718 3.64107 19.998 3.91999 19.998H5.94642C6.22535 19.998 6.45146 19.7718 6.45146 19.4929V17.8452H17.5854V19.4929C17.5854 19.7718 17.8115 19.998 18.0904 19.998H20.1168C20.3958 19.998 20.6219 19.7718 20.6219 19.4929V17.8452H21.9459V11.8647L20.7916 10.6406C21.4838 10.5368 21.9959 9.94213 21.9959 9.24215V7.95811H19.1707L17.6538 4H6.38296ZM6.42507 8.97064L7.63327 5.81818H16.4035L17.6117 8.97064H6.42507ZM5.63968 10.7888L3.909 12.5951V16.027H20.1277V12.5951L18.397 10.7888H5.63968Z" fill="#4B525A"/>
</svg>
