<svg width="24" height="24" viewBox="0 0 24 24" fill="none" xmlns="http://www.w3.org/2000/svg">
<path fill-rule="evenodd" clip-rule="evenodd" d="M12 22C17.5228 22 22 17.5228 22 12C22 6.47715 17.5228 2 12 2C6.47715 2 2 6.47715 2 12C2 17.5228 6.47715 22 12 22ZM18.4051 16.794C19.0332 15.9562 19.5007 14.9911 19.7621 13.9444L17.9391 12.9027L16 14.0662V15.4197L18.4051 16.794ZM16.964 18.2741L15.4443 17.4057L13 19.0352V19.9381C14.4865 19.7527 15.8463 19.1596 16.964 18.2741ZM16 5.07026C16.7781 5.52034 17.4733 6.0977 18.0572 6.77386L17.1877 7.4695L16 6.51937V5.07026ZM18.5 8.98087L19.169 8.44565C19.6696 9.45334 19.964 10.5815 19.9969 11.7751L18.5 10.9197V8.98087ZM5.74831 16.9921C5.04276 16.1097 4.52015 15.0746 4.23794 13.9444L6.06087 12.9027L8 14.0662V15.7054L5.74831 16.9921ZM11 19.9381C9.60701 19.7644 8.32524 19.2326 7.24974 18.4376L8.78648 17.5595L11 19.0352V19.9381ZM5.5 10.9197L4.0031 11.7751C4.03605 10.5815 4.33041 9.45334 4.83097 8.44565L5.5 8.98087V10.9197ZM6.81235 7.4695L5.9428 6.77386C6.52672 6.0977 7.22194 5.52034 8 5.07026V6.51937L6.81235 7.4695ZM12 4C12.6906 4 13.3608 4.08751 14 4.25203V5.53199L12 7.19866L10 5.53199V4.25203C10.6392 4.08751 11.3094 4 12 4ZM13 8.96874V10.9648L15.0282 12.3169L16.5 11.4338V9.48063L14.4009 7.80134L13 8.96874ZM9.59911 7.80134L7.5 9.48063V11.4338L8.97185 12.3169L11 10.9648V8.96874L9.59911 7.80134ZM10 14.0352V15.9648L12 17.2981L14 15.9648V14.0352L12 12.7019L10 14.0352Z" fill="#4B525A"/>
</svg>
