<svg width="24" height="24" viewBox="0 0 24 24" fill="none" xmlns="http://www.w3.org/2000/svg">
<path d="M10 2L5 4L2 11.5L5.5 12.5V22H12.101C11.5151 21.4259 11.0297 20.7496 10.6736 20H7.5V10.9914L4.67981 10.1856L6.53862 5.53862L9.62252 4.30506C10.327 4.75534 11.1509 5 12 5C12.8491 5 13.673 4.75534 14.3775 4.30506L17.4614 5.53862L19.3202 10.1856L22 11.5L19 4L14 2L13.7071 2.29289C13.2544 2.74565 12.6403 3 12 3C11.3597 3 10.7456 2.74565 10.2929 2.29289L10 2Z" fill="#4B525A"/>
<path d="M10 8V10H14V8H10Z" fill="#4B525A"/>
<path fill-rule="evenodd" clip-rule="evenodd" d="M17 12C19.7614 12 22 14.2386 22 17C22 19.7614 19.7614 22 17 22C14.2386 22 12 19.7614 12 17C12 14.2386 14.2386 12 17 12ZM16.793 15.2998L18.1982 18.7998H19.0918L20.502 15.2998H19.4492L18.6543 17.499L17.8652 15.2998H16.793ZM13.6006 15.2998V16.1436H14.6377V18.7754H15.6006V16.1436H16.6436V15.2998H13.6006Z" fill="#4B525A"/>
</svg>
