<svg width="24" height="24" viewBox="0 0 24 24" fill="none" xmlns="http://www.w3.org/2000/svg">
<path d="M13.5564 7.62656C11.2735 7.71094 5.61105 8.35313 5.61105 13.1344C5.61105 18.2672 12.0939 18.4781 14.2126 15.1594C14.5173 15.6375 15.872 16.9172 16.336 17.3531L18.9985 14.7281C18.9985 14.7281 17.4845 13.5422 17.4845 12.2531V5.35781C17.4845 4.17188 16.336 1.5 12.2204 1.5C8.09542 1.5 5.90636 4.07813 5.90636 6.38906L9.35167 6.70781C10.1157 4.3875 11.8923 4.3875 11.8923 4.3875C13.8001 4.38281 13.5564 5.78437 13.5564 7.62656ZM13.5564 11.6953C13.5564 15.4453 9.60948 14.8828 9.60948 12.5016C9.60948 10.2891 11.9767 9.84375 13.5564 9.79219V11.6953ZM19.9314 19.3594C19.5704 19.8281 16.6501 22.5 11.7517 22.5C6.85323 22.5 3.10323 19.1484 1.9548 17.7656C1.63605 17.4047 2.00167 17.2359 2.21261 17.3766C5.64855 19.4625 11.0157 22.8984 19.6735 18.7969C20.0251 18.6234 20.297 18.8906 19.9314 19.3594ZM21.797 19.4625C21.4923 20.2031 21.047 20.7188 20.8032 20.9156C20.5454 21.1266 20.3579 21.0422 20.4985 20.7375C20.6392 20.4328 21.4032 18.5578 21.0939 18.1594C20.7892 17.7703 19.3595 17.9578 18.8439 18.0094C18.3376 18.0563 18.2345 18.1031 18.1876 17.9953C18.0798 17.7281 19.2048 17.2687 19.9454 17.175C20.6814 17.0906 21.8673 17.1375 22.1017 17.4422C22.2751 17.6812 22.1017 18.7125 21.797 19.4625Z" fill="#4B525A"/>
</svg>
