<svg width="24" height="24" viewBox="0 0 24 24" fill="none" xmlns="http://www.w3.org/2000/svg">
<path fill-rule="evenodd" clip-rule="evenodd" d="M7.62784 4.00985C7.40516 4.35772 7.26261 4.70175 7.17092 5H2V7H4.13235L5.125 22H18.625L19.6176 7H22V5H16.8285C16.7368 4.70175 16.5943 4.35772 16.3716 4.00985C15.7032 2.96564 14.3816 2.00488 11.9997 2.00488C9.6178 2.00488 8.29624 2.96564 7.62784 4.00985ZM14.9053 5C14.8703 4.93126 14.831 4.86201 14.7869 4.79316C14.4326 4.23962 13.7087 3.60263 11.9997 3.60263C10.2907 3.60263 9.56685 4.23962 9.21252 4.79316C9.16845 4.86201 9.12918 4.93126 9.09419 5H14.9053ZM17.6133 7H6.13673L6.99702 20H16.753L17.6133 7Z" fill="#4B525A"/>
</svg>
