<svg width="24" height="24" viewBox="0 0 24 24" fill="none" xmlns="http://www.w3.org/2000/svg">
<path d="M14.7911 8.29492L11.5235 11.5816L10.2093 10.2598L8.79102 11.6699L11.5236 14.4183L16.2094 9.705L14.7911 8.29492Z" fill="#4B525A"/>
<path fill-rule="evenodd" clip-rule="evenodd" d="M21.1811 3.16175C15.2881 1.61275 8.7119 1.61275 2.81893 3.16175L2 3.377L2.08227 4.22432C2.39146 7.40893 2.41285 10.7417 3.09952 13.8586C3.45334 15.4647 4.74275 17.2159 6.27392 18.6439C7.82807 20.0933 9.79927 21.3676 11.7274 21.9217L12 22L12.2726 21.9217C14.2007 21.3676 16.1719 20.0933 17.7261 18.6439C19.2572 17.2159 20.5467 15.4647 20.9005 13.8586C21.0489 13.1851 21.2394 11.3946 21.4203 9.53337C21.5923 7.76426 21.746 5.99344 21.9177 4.22432L22 3.377L21.1811 3.16175ZM4.13896 4.88944C9.2163 3.69819 14.7837 3.69819 19.861 4.88944C19.5968 7.71555 19.5723 10.6612 18.963 13.4268C18.7388 14.4446 17.7987 15.8541 16.3768 17.1803C15.0596 18.4087 13.4706 19.4322 12 19.9182C10.5294 19.4322 8.9404 18.4087 7.62324 17.1803C6.20126 15.8541 5.26123 14.4446 5.03701 13.4268C4.42774 10.6612 4.4032 7.71555 4.13896 4.88944Z" fill="#4B525A"/>
</svg>
