<svg width="24" height="24" viewBox="0 0 24 24" fill="none" xmlns="http://www.w3.org/2000/svg">
<path d="M11 5V2H13V5H11Z" fill="#4B525A"/>
<path fill-rule="evenodd" clip-rule="evenodd" d="M12 17C14.7614 17 17 14.7614 17 12C17 9.23858 14.7614 7 12 7C9.23858 7 7 9.23858 7 12C7 14.7614 9.23858 17 12 17ZM12 15C13.6569 15 15 13.6569 15 12C15 10.3431 13.6569 9 12 9C10.3431 9 9 10.3431 9 12C9 13.6569 10.3431 15 12 15Z" fill="#4B525A"/>
<path d="M22 11H19V13H22V11Z" fill="#4B525A"/>
<path d="M13 19V22H11V19H13Z" fill="#4B525A"/>
<path d="M2 13H5V11H2V13Z" fill="#4B525A"/>
<path d="M6.41429 7.82835L4.29297 5.70703L5.70718 4.29282L7.8285 6.41414L6.41429 7.82835Z" fill="#4B525A"/>
<path d="M16.293 17.707L18.4143 19.8284L19.8285 18.4141L17.7072 16.2928L16.293 17.707Z" fill="#4B525A"/>
<path d="M19.8284 5.7068L17.707 7.82812L16.2928 6.41391L18.4141 4.29259L19.8284 5.7068Z" fill="#4B525A"/>
<path d="M5.70703 19.8281L7.82835 17.7068L6.41414 16.2926L4.29282 18.4139L5.70703 19.8281Z" fill="#4B525A"/>
</svg>
