<svg width="24" height="24" viewBox="0 0 24 24" fill="none" xmlns="http://www.w3.org/2000/svg">
<path d="M19.1117 4.91892C17.2589 3.02703 14.6975 2 12.0817 2C6.52316 2 2.0545 6.48649 2.10899 11.9459C2.10899 13.6757 2.59945 15.3514 3.41689 16.8649L2 22L7.2861 20.6486C8.75749 21.4595 10.3924 21.8378 12.0272 21.8378C17.5313 21.8378 22 17.3514 22 11.8919C22 9.24324 20.9646 6.75676 19.1117 4.91892ZM12.0817 20.1622C10.6104 20.1622 9.13896 19.7838 7.88556 19.027L7.55858 18.8649L4.39782 19.6757L5.21526 16.5946L4.99728 16.2703C2.59946 12.4324 3.74387 7.35135 7.66757 4.97297C11.5913 2.59459 16.6594 3.72973 19.0572 7.62162C21.455 11.5135 20.3106 16.5405 16.3869 18.9189C15.1335 19.7297 13.6076 20.1622 12.0817 20.1622Z" fill="#4B525A"/>
<path d="M9.92246 9.71267L6.8465 14.2892C6.68971 14.5225 6.97769 14.797 7.20321 14.6292L9.92897 12.6015C10.0113 12.5402 10.1227 12.5355 10.2099 12.5896L13.8933 14.873C14.0076 14.9439 14.1575 14.9116 14.2325 14.8L17.4335 10.0375C17.5859 9.81068 17.316 9.53876 17.0881 9.68949L13.7368 11.9056C13.6507 11.9625 13.5385 11.9607 13.4543 11.9011L10.2745 9.64813C10.1598 9.56692 10.0008 9.59607 9.92246 9.71267Z" fill="#4B525A"/>
</svg>
