<svg width="32" height="24" viewBox="0 0 32 24" fill="none" xmlns="http://www.w3.org/2000/svg">
<path d="M30.5017 23.144V23.2037H30.556C30.568 23.2037 30.5783 23.2008 30.5857 23.1961C30.5926 23.1915 30.5966 23.1834 30.5966 23.1736C30.5966 23.1637 30.5926 23.1562 30.5857 23.1516C30.5783 23.1464 30.568 23.144 30.556 23.144H30.5017ZM30.5566 23.1024C30.5846 23.1024 30.6063 23.1087 30.6218 23.1215C30.6372 23.1342 30.6446 23.1516 30.6446 23.1736C30.6446 23.1921 30.6389 23.2071 30.6263 23.2193C30.6143 23.2309 30.5972 23.2384 30.5743 23.2413L30.6464 23.3252H30.5903L30.5234 23.2419H30.5017V23.3252H30.4548V23.1024H30.5566ZM30.5423 23.4022C30.568 23.4022 30.592 23.397 30.6138 23.3871C30.6361 23.3773 30.6555 23.364 30.6721 23.3472C30.6887 23.3304 30.7018 23.3107 30.7115 23.2876C30.7207 23.265 30.7258 23.2407 30.7258 23.2147C30.7258 23.1886 30.7207 23.1643 30.7115 23.1417C30.7018 23.1192 30.6887 23.0989 30.6721 23.0821C30.6555 23.0653 30.6361 23.052 30.6138 23.0422C30.592 23.0329 30.568 23.0283 30.5423 23.0283C30.5165 23.0283 30.492 23.0329 30.4696 23.0422C30.4468 23.052 30.4268 23.0653 30.4102 23.0821C30.3936 23.0989 30.3804 23.1192 30.3713 23.1417C30.3616 23.1643 30.357 23.1886 30.357 23.2147C30.357 23.2407 30.3616 23.265 30.3713 23.2876C30.3804 23.3107 30.3936 23.3304 30.4102 23.3472C30.4268 23.364 30.4468 23.3773 30.4696 23.3871C30.492 23.397 30.5165 23.4022 30.5423 23.4022ZM30.5423 22.9745C30.576 22.9745 30.6069 22.9808 30.6366 22.9936C30.6658 23.0057 30.691 23.0231 30.7133 23.0451C30.735 23.0665 30.7522 23.092 30.7647 23.1215C30.7773 23.1504 30.7836 23.1817 30.7836 23.2147C30.7836 23.2476 30.7773 23.2789 30.7647 23.3078C30.7522 23.3368 30.735 23.3622 30.7133 23.3842C30.691 23.4056 30.6658 23.423 30.6366 23.4357C30.6069 23.4485 30.576 23.4548 30.5423 23.4548C30.508 23.4548 30.4765 23.4485 30.4468 23.4357C30.417 23.423 30.3913 23.4056 30.3696 23.3842C30.3478 23.3622 30.3307 23.3368 30.3181 23.3078C30.3055 23.2789 30.2992 23.2476 30.2992 23.2147C30.2992 23.1817 30.3055 23.1504 30.3181 23.1215C30.3307 23.092 30.3478 23.0665 30.3696 23.0451C30.3913 23.0231 30.417 23.0057 30.4468 22.9936C30.4765 22.9808 30.508 22.9745 30.5423 22.9745ZM8.26173 22.1162C8.26173 21.6914 8.5368 21.3425 8.98629 21.3425C9.41576 21.3425 9.7057 21.6764 9.7057 22.1162C9.7057 22.5561 9.41576 22.89 8.98629 22.89C8.5368 22.89 8.26173 22.541 8.26173 22.1162ZM10.1952 20.9078H9.67596V21.2013C9.51126 20.9837 9.26136 20.8471 8.92167 20.8471C8.25201 20.8471 7.72704 21.3783 7.72704 22.1162C7.72704 22.8547 8.25201 23.3854 8.92167 23.3854C9.26136 23.3854 9.51126 23.2488 9.67596 23.0312V23.3246H10.1952V20.9078ZM27.7424 22.1162C27.7424 21.6914 28.0175 21.3425 28.467 21.3425C28.897 21.3425 29.1864 21.6764 29.1864 22.1162C29.1864 22.5561 28.897 22.89 28.467 22.89C28.0175 22.89 27.7424 22.541 27.7424 22.1162ZM29.6765 19.9373H29.1566V21.2013C28.9919 20.9837 28.742 20.8471 28.4023 20.8471C27.7327 20.8471 27.2077 21.3783 27.2077 22.1162C27.2077 22.8547 27.7327 23.3854 28.4023 23.3854C28.742 23.3854 28.9919 23.2488 29.1566 23.0312V23.3246H29.6765V19.9373ZM16.6407 21.3176C16.9753 21.3176 17.1903 21.53 17.2452 21.9038H16.006C16.0614 21.5549 16.2707 21.3176 16.6407 21.3176ZM16.651 20.8471C15.9511 20.8471 15.4615 21.3627 15.4615 22.1162C15.4615 22.8848 15.9711 23.3854 16.6859 23.3854C17.0456 23.3854 17.375 23.2945 17.665 23.0468L17.4105 22.6573C17.2103 22.8188 16.9553 22.9102 16.7157 22.9102C16.3811 22.9102 16.0763 22.7534 16.0014 22.3182H17.7748C17.7799 22.2528 17.785 22.1868 17.785 22.1162C17.7799 21.3627 17.3201 20.8471 16.651 20.8471ZM22.921 22.1162C22.921 21.6914 23.1961 21.3425 23.6455 21.3425C24.075 21.3425 24.365 21.6764 24.365 22.1162C24.365 22.5561 24.075 22.89 23.6455 22.89C23.1961 22.89 22.921 22.541 22.921 22.1162ZM24.8545 20.9078H24.3352V21.2013C24.17 20.9837 23.9206 20.8471 23.5809 20.8471C22.9113 20.8471 22.3863 21.3783 22.3863 22.1162C22.3863 22.8547 22.9113 23.3854 23.5809 23.3854C23.9206 23.3854 24.17 23.2488 24.3352 23.0312V23.3246H24.8545V20.9078ZM19.9885 22.1162C19.9885 22.8495 20.4928 23.3854 21.2626 23.3854C21.6223 23.3854 21.8619 23.3044 22.1215 23.0972L21.8722 22.6724C21.6772 22.8142 21.4725 22.89 21.2471 22.89C20.8325 22.8848 20.5277 22.5815 20.5277 22.1162C20.5277 21.6509 20.8325 21.3477 21.2471 21.3425C21.4725 21.3425 21.6772 21.4183 21.8722 21.5601L22.1215 21.1353C21.8619 20.9281 21.6223 20.8471 21.2626 20.8471C20.4928 20.8471 19.9885 21.383 19.9885 22.1162ZM26.6833 20.8471C26.3837 20.8471 26.1886 20.9889 26.0537 21.2013V20.9078H25.539V23.3246H26.0588V21.9698C26.0588 21.5699 26.2287 21.3477 26.5684 21.3477C26.6736 21.3477 26.7834 21.3627 26.8932 21.4084L27.0533 20.913C26.9384 20.8673 26.7885 20.8471 26.6833 20.8471ZM12.7635 21.1C12.5136 20.9333 12.1693 20.8471 11.7896 20.8471C11.1845 20.8471 10.7951 21.1405 10.7951 21.6208C10.7951 22.0149 11.085 22.258 11.6192 22.3338L11.8645 22.3691C12.1493 22.4096 12.2837 22.4855 12.2837 22.622C12.2837 22.809 12.0938 22.9155 11.7393 22.9155C11.3796 22.9155 11.1199 22.7991 10.9449 22.6625L10.7002 23.0717C10.985 23.2841 11.3447 23.3854 11.7341 23.3854C12.4238 23.3854 12.8235 23.0567 12.8235 22.5966C12.8235 22.1718 12.509 21.9496 11.9892 21.8737L11.7444 21.8379C11.5197 21.8078 11.3395 21.7626 11.3395 21.6006C11.3395 21.4235 11.5094 21.3176 11.7942 21.3176C12.099 21.3176 12.3941 21.4339 12.5387 21.5248L12.7635 21.1ZM19.4635 20.8471C19.1638 20.8471 18.9688 20.9889 18.8344 21.2013V20.9078H18.3197V23.3246H18.839V21.9698C18.839 21.5699 19.0088 21.3477 19.3485 21.3477C19.4538 21.3477 19.5636 21.3627 19.6734 21.4084L19.8335 20.913C19.7185 20.8673 19.5687 20.8471 19.4635 20.8471ZM15.0321 20.9078H14.1829V20.1746H13.6579V20.9078H13.1735V21.3882H13.6579V22.4907C13.6579 23.0515 13.8729 23.3854 14.4871 23.3854C14.7124 23.3854 14.972 23.3148 15.1367 23.1985L14.9869 22.7482C14.8319 22.8391 14.6621 22.8848 14.5271 22.8848C14.2675 22.8848 14.1829 22.7227 14.1829 22.4802V21.3882H15.0321V20.9078ZM7.26783 23.3246V21.8078C7.26783 21.2366 6.90812 20.8523 6.32825 20.8471C6.02344 20.8419 5.70892 20.9379 5.48875 21.2771C5.32405 21.0091 5.06442 20.8471 4.69957 20.8471C4.44452 20.8471 4.19518 20.9229 4.00017 21.2059V20.9078H3.48035V23.3246H4.00475V21.9849C4.00475 21.5653 4.23464 21.3425 4.58977 21.3425C4.93461 21.3425 5.10903 21.5699 5.10903 21.9796V23.3246H5.634V21.9849C5.634 21.5653 5.87361 21.3425 6.21845 21.3425C6.57301 21.3425 6.74285 21.5699 6.74285 21.9796V23.3246H7.26783Z" fill="#4B525A"/>
<path d="M30.8219 15.287V14.934H30.7309L30.6257 15.1765L30.5211 14.934H30.4296V15.287H30.4942V15.0208L30.5926 15.2506H30.6595L30.7578 15.0202V15.287H30.8219ZM30.2449 15.287V14.9942H30.3615V14.9346H30.0641V14.9942H30.1808V15.287H30.2449Z" fill="#4B525A"/>
<path d="M16.007 2.8491C15.889 2.94157 15.7749 3.03305 15.6637 3.1324C13.7406 4.80959 12.5317 7.26389 12.5317 10.0005C12.5317 12.7371 13.7397 15.1914 15.6519 16.8597L15.6628 16.8686C15.7729 16.967 15.89 17.0624 16.0061 17.1539C16.1241 17.0634 16.2382 16.967 16.3494 16.8686C18.2725 15.1914 19.4804 12.7371 19.4804 10.0005C19.4804 7.26389 18.2725 4.80959 16.3602 3.14126L16.3494 3.1324C16.2392 3.03403 16.1241 2.94058 16.007 2.8491ZM21.6347 0.896484C21.6298 0.896484 21.6239 0.896484 21.617 0.896484C19.7451 0.896484 18.0069 1.46407 16.5628 2.43694L16.5953 2.41628C16.6691 2.47432 16.736 2.53531 16.7969 2.59925L16.7979 2.60023C18.8794 4.40628 20.1877 7.05436 20.1877 10.0084C20.1877 12.9555 18.8863 15.5977 16.8265 17.3929L16.8147 17.4027C16.7438 17.4627 16.6671 17.5227 16.5923 17.5818C18.0098 18.5359 19.7559 19.1055 21.6337 19.1055C26.6623 19.1055 30.7387 15.0291 30.7387 10.0005C30.7387 4.9719 26.6633 0.897468 21.6347 0.896484ZM15.2004 17.4037C15.2712 17.4637 15.348 17.5237 15.4227 17.5828C14.0062 18.5359 12.2612 19.1045 10.3833 19.1045C5.35471 19.1045 1.2793 15.0281 1.2793 10.0005C1.2793 4.97288 5.35569 0.896484 10.3833 0.896484C12.2592 0.896484 14.0033 1.46407 15.4522 2.43694L15.4198 2.41628C15.346 2.47432 15.2791 2.53531 15.2181 2.59925L15.2171 2.60023C13.1357 4.40628 11.8274 7.05436 11.8274 10.0084C11.8274 12.9555 13.1288 15.5977 15.1886 17.3929L15.2004 17.4037Z" fill="#4B525A"/>
</svg>
