<svg width="24" height="24" viewBox="0 0 24 24" fill="none" xmlns="http://www.w3.org/2000/svg">
<path d="M19.1006 8.14551V19.0938H18.1455V8.14551H19.1006Z" fill="#4B525A"/>
<path d="M5.83008 12.5742V19.0938H4.875V12.5742H5.83008Z" fill="#4B525A"/>
<path d="M5.83008 4.88379V10.2627H4.875V4.88379H5.83008Z" fill="#4B525A"/>
<path fill-rule="evenodd" clip-rule="evenodd" d="M24 0V24H0V0H24ZM9.1582 5.83984V21.4355H11.4863V5.83984H9.1582ZM12.4932 2.55273V21.4355H14.8213V2.55273H12.4932ZM19.1006 2.55176V5.83789H16.8359C16.5678 5.84057 16.3115 5.94989 16.123 6.14062C15.9347 6.3313 15.8286 6.58848 15.8291 6.85645L15.8271 20.4111C15.8269 20.5447 15.8525 20.6773 15.9033 20.8008C15.9542 20.9241 16.0289 21.0364 16.123 21.1309C16.2173 21.2254 16.3298 21.3004 16.4531 21.3516C16.5766 21.4028 16.7091 21.4297 16.8428 21.4297L21.4316 21.4355V2.55176H19.1006ZM2.54785 2.55273V21.4297H7.13672C7.27007 21.4294 7.4023 21.4029 7.52539 21.3516C7.64853 21.3002 7.76038 21.2244 7.85449 21.1299C7.94856 21.0353 8.02347 20.9231 8.07422 20.7998C8.12488 20.6766 8.15069 20.5444 8.15039 20.4111V12.2207C8.14932 11.9371 8.03578 11.6651 7.83496 11.4648C7.63419 11.2648 7.36255 11.1517 7.0791 11.1514H7.17969C7.43627 11.1521 7.68322 11.051 7.86523 10.8701C8.04696 10.6894 8.14943 10.4438 8.15039 10.1875V3.57129C8.15112 3.3026 8.04549 3.04445 7.85645 2.85352C7.66736 2.66266 7.41025 2.55462 7.1416 2.55273H2.54785ZM9.1582 2.55273V4.88379H11.4863V2.55273H9.1582Z" fill="#4B525A"/>
</svg>
