<svg width="24" height="24" viewBox="0 0 24 24" fill="none" xmlns="http://www.w3.org/2000/svg">
<path d="M10.6958 20.5996C10.9146 20.5996 11.0532 20.7817 11.0532 20.9834V20.9883C11.0532 21.1876 10.917 21.3672 10.7007 21.3672C10.4821 21.367 10.3433 21.185 10.3433 20.9834V20.9785C10.3433 20.7793 10.4797 20.5998 10.6958 20.5996Z" fill="#4B525A"/>
<path d="M4.54834 21.2021H4.23682L4.39307 20.7891L4.54834 21.2021Z" fill="#4B525A"/>
<path d="M18.0161 21.2021H17.7046L17.8599 20.7891L18.0161 21.2021Z" fill="#4B525A"/>
<path d="M6.48389 11.2441V16.9717H5.63525V11.2441H6.48389Z" fill="#4B525A"/>
<path d="M6.48389 4.24219V9.12207H5.63525V4.24219H6.48389Z" fill="#4B525A"/>
<path d="M18.3647 7.21289V16.9717H17.5161V7.21289H18.3647Z" fill="#4B525A"/>
<path fill-rule="evenodd" clip-rule="evenodd" d="M22.6079 24H1.39209V0H22.6079V24ZM10.7007 20.0957C10.1758 20.0959 9.77007 20.4901 9.77002 20.9834V20.9883C9.77003 21.4816 10.1709 21.8709 10.6958 21.8711C11.2209 21.8711 11.6274 21.4769 11.6274 20.9834V20.9785C11.6274 20.4851 11.2257 20.0957 10.7007 20.0957ZM19.7241 20.0957C19.1872 20.096 18.7857 20.4756 18.7856 20.9834V20.9883C18.7857 21.5157 19.2119 21.871 19.7417 21.8711C20.0502 21.871 20.308 21.7658 20.4927 21.6152V20.8281H19.6685V21.1924H19.9604V21.3623C19.9168 21.3865 19.863 21.4013 19.7661 21.4014C19.5282 21.4013 19.3601 21.2364 19.3599 20.9961V20.9912C19.3599 20.7604 19.5206 20.59 19.7417 20.5898C19.8825 20.5899 20.0069 20.6436 20.1187 20.7383L20.437 20.3535C20.2523 20.1931 20.0158 20.0957 19.7241 20.0957ZM8.86768 20.1006C8.39871 20.1007 8.146 20.3516 8.146 20.6748V20.6797C8.14606 21.0393 8.4813 21.1488 8.86279 21.2266C9.04511 21.263 9.09912 21.2902 9.09912 21.3389V21.3438C9.0988 21.3896 9.05436 21.416 8.95264 21.416C8.75343 21.4159 8.54155 21.3577 8.35693 21.2168L8.05322 21.5791C8.26953 21.7687 8.58117 21.8662 8.92627 21.8662C9.38306 21.8662 9.67709 21.6472 9.67725 21.29V21.2852C9.67725 20.9425 9.38569 20.8156 8.95068 20.7354C8.77102 20.7013 8.72414 20.6721 8.72412 20.626V20.6211C8.72423 20.5799 8.76346 20.5509 8.84814 20.5508C9.00611 20.5508 9.19847 20.6021 9.35889 20.7188L9.63623 20.334C9.43935 20.1785 9.19576 20.1006 8.86768 20.1006ZM4.11572 20.1201L3.39795 21.834H4.00635L4.09326 21.6055H4.68896L4.77881 21.834H5.39697L4.6792 20.1201H4.11572ZM5.46631 20.1328V21.834H6.02295V20.9912L6.41455 21.5957H6.42432L6.81592 20.9912V21.834H7.38232V20.1328H6.78955L6.42432 20.7305L6.06006 20.1328H5.46631ZM11.7817 20.1328V21.834H12.3452V21.0488L12.9771 21.834H13.4829V20.1328H12.9194V20.8838L12.314 20.1328H11.7817ZM13.6782 20.1328V21.834H14.2427V21.0488L14.8745 21.834H15.3804V20.1328H14.8159V20.8838L14.2104 20.1328H13.6782ZM15.5093 20.1328V20.6143H16.0103V21.834H16.5786V20.6143H17.0796V20.1328H15.5093ZM17.5835 20.1201L16.8657 21.834H17.4741L17.561 21.6055H18.1567L18.2466 21.834H18.8638L18.147 20.1201H17.5835ZM3.51416 2.12109V19.0938H7.75732C8.18147 19.0937 8.60573 18.6693 8.60596 18.2451V10.6074C8.60577 10.1834 8.28659 9.90044 7.75732 9.90039C8.23674 9.90028 8.60585 9.3344 8.60596 8.91016V2.96973C8.60571 2.54559 8.18146 2.12119 7.75732 2.12109H3.51416ZM9.45459 5.09082V19.0938H11.5757V5.09082H9.45459ZM12.4253 2.12109V19.0938H14.5464V2.12109H12.4253ZM18.3647 2.12109V5.09082H16.2437C15.8196 5.09082 15.3955 5.51537 15.395 5.93945V18.2451C15.3953 18.6693 15.8195 19.0938 16.2437 19.0938H20.4858V2.12109H18.3647ZM9.45557 2.12109V4.24316H11.5767V2.12109H9.45557Z" fill="#4B525A"/>
</svg>
