<svg width="24" height="24" viewBox="0 0 24 24" fill="none" xmlns="http://www.w3.org/2000/svg">
<path d="M11.6846 7.26362L15.8957 11.5272L17.3405 10.0644L15.4156 8.11547C18.2784 8.58577 20.4542 10.859 20.4542 13.5864C20.4542 16.6538 17.7023 19.1466 14.3161 19.1466L14.3161 21C18.8378 21 22.5002 17.6824 22.5002 13.5864C22.5002 9.87563 19.4942 6.80372 15.5667 6.25877L17.3405 4.46284L15.8957 3L11.6846 7.26362Z" fill="#4B525A"/>
<path fill-rule="evenodd" clip-rule="evenodd" d="M6.5433 17.2499C6.5433 19.2886 7.81183 20.9772 9.8476 20.9772C11.8886 20.9772 13.1724 19.1699 13.1724 17.2087C13.1724 15.1699 11.9038 13.4813 9.86806 13.4813C7.83117 13.4813 6.5433 15.2926 6.5433 17.2499ZM9.8476 15.242C11.6385 15.242 11.6868 19.2062 9.86806 19.2062C8.08142 19.2062 8.06466 15.242 9.8476 15.242Z" fill="#4B525A"/>
<path d="M3.08565 15.4272V20.8329H5.03959V13.5738H3.59716L1.5 14.171L1.87851 15.7155L3.08565 15.4272Z" fill="#4B525A"/>
</svg>
