<svg width="24" height="24" viewBox="0 0 24 24" fill="none" xmlns="http://www.w3.org/2000/svg">
<g clip-path="url(#clip0_17587_6927)">
<path d="M12 0.362061C5.58281 0.362061 0.375 5.56987 0.375 11.9871C0.375 18.4042 5.58281 23.6121 12 23.6121C18.4172 23.6121 23.625 18.4042 23.625 11.9871C23.625 5.56987 18.4172 0.362061 12 0.362061ZM16.7203 17.4667C16.5234 17.4667 16.4016 17.4058 16.2188 17.298C13.2937 15.5355 9.89062 15.4605 6.52969 16.1496C6.34688 16.1964 6.10781 16.2714 5.97188 16.2714C5.51719 16.2714 5.23125 15.9105 5.23125 15.5308C5.23125 15.048 5.51719 14.8183 5.86875 14.7433C9.70781 13.8949 13.6313 13.9699 16.9781 15.9714C17.2641 16.1542 17.4328 16.3183 17.4328 16.7449C17.4328 17.1714 17.1 17.4667 16.7203 17.4667ZM17.9813 14.3917C17.7375 14.3917 17.5734 14.2839 17.4047 14.1949C14.475 12.4605 10.1062 11.7621 6.22031 12.8167C5.99531 12.8777 5.87344 12.9386 5.6625 12.9386C5.16094 12.9386 4.75313 12.5308 4.75313 12.0292C4.75313 11.5277 4.99688 11.1949 5.47969 11.0589C6.78281 10.6933 8.11406 10.4214 10.0641 10.4214C13.1062 10.4214 16.0453 11.1761 18.3609 12.5542C18.7406 12.7792 18.8906 13.0699 18.8906 13.4777C18.8859 13.9839 18.4922 14.3917 17.9813 14.3917ZM19.4344 10.8199C19.1906 10.8199 19.0406 10.7589 18.8297 10.6371C15.4922 8.64487 9.525 8.16675 5.6625 9.24487C5.49375 9.29175 5.28281 9.36675 5.05781 9.36675C4.43906 9.36675 3.96562 8.88394 3.96562 8.2605C3.96562 7.623 4.35938 7.26206 4.78125 7.14019C6.43125 6.65737 8.27812 6.42769 10.2891 6.42769C13.7109 6.42769 17.2969 7.14019 19.9172 8.66831C20.2828 8.87925 20.5219 9.16987 20.5219 9.72769C20.5219 10.3652 20.0063 10.8199 19.4344 10.8199Z" fill="#4B525A"/>
</g>
<defs>
<clipPath id="clip0_17587_6927">
<rect width="24" height="24" fill="white"/>
</clipPath>
</defs>
</svg>
