<svg width="24" height="24" viewBox="0 0 24 24" fill="none" xmlns="http://www.w3.org/2000/svg">
<path d="M10 8V10H14V8H10Z" fill="#4B525A"/>
<path fill-rule="evenodd" clip-rule="evenodd" d="M10 2L5 4L2 11.5L5.5 12.5V22H18.5V12.5L22 11.5L19 4L14 2L13.7071 2.29289C13.2544 2.74565 12.6403 3 12 3C11.3597 3 10.7456 2.74565 10.2929 2.29289L10 2ZM7.5 20V10.9914L4.67981 10.1856L6.53862 5.53862L9.62252 4.30506C10.327 4.75534 11.1509 5 12 5C12.8491 5 13.673 4.75534 14.3775 4.30506L17.4614 5.53862L19.3202 10.1856L16.5 10.9914V20H7.5Z" fill="#4B525A"/>
</svg>
