<svg width="24" height="24" viewBox="0 0 24 24" fill="none" xmlns="http://www.w3.org/2000/svg">
<g clip-path="url(#clip0_17587_6924)">
<path d="M17.2725 10.9209C18.076 10.9209 18.7275 11.5724 18.7275 12.376V17.7432C18.7275 18.5467 18.076 19.1982 17.2725 19.1982C16.4689 19.1982 15.8174 18.5467 15.8174 17.7432V12.376C15.8174 11.5724 16.4689 10.9209 17.2725 10.9209Z" fill="#4B525A"/>
<path d="M22.5449 9.72461C23.3482 9.72478 23.9997 10.3755 24 11.1787V12.8203C23.9999 13.6237 23.3483 14.2752 22.5449 14.2754C21.7414 14.2754 21.0899 13.6238 21.0898 12.8203V11.1787C21.0901 10.3754 21.7415 9.72461 22.5449 9.72461Z" fill="#4B525A"/>
<path d="M17.2725 4.80078C18.076 4.80082 18.7275 5.45231 18.7275 6.25586V7.89648C18.7275 8.70003 18.076 9.35152 17.2725 9.35156C16.4689 9.35156 15.8174 8.70006 15.8174 7.89648V6.25586C15.8174 5.45228 16.4689 4.80078 17.2725 4.80078Z" fill="#4B525A"/>
<path d="M12 19.4482C12.8036 19.4482 13.4551 20.0998 13.4551 20.9033V22.5439C13.4551 23.3475 12.8036 23.999 12 23.999C11.1965 23.9989 10.5449 23.3475 10.5449 22.5439V20.9033C10.5449 20.0998 11.1965 19.4483 12 19.4482Z" fill="#4B525A"/>
<path d="M6.72852 14.6475C7.53194 14.6476 8.18359 15.2991 8.18359 16.1025V17.7432C8.18359 18.5466 7.53194 19.1981 6.72852 19.1982C5.92494 19.1982 5.27344 18.5467 5.27344 17.7432V16.1025C5.27344 15.299 5.92494 14.6475 6.72852 14.6475Z" fill="#4B525A"/>
<path d="M12 6.16895C12.8036 6.16895 13.4551 6.82046 13.4551 7.62402V16.376C13.455 17.1795 12.8035 17.8311 12 17.8311C11.1966 17.831 10.545 17.1794 10.5449 16.376V7.62402C10.5449 6.82052 11.1965 6.16903 12 6.16895Z" fill="#4B525A"/>
<path d="M1.45605 9.72461C2.25944 9.72465 2.91088 10.3754 2.91113 11.1787V12.8203C2.91108 13.6238 2.25956 14.2753 1.45605 14.2754C0.652512 14.2754 0.00102797 13.6238 0.000976562 12.8203V11.1787C0.00123118 10.3754 0.652637 9.72461 1.45605 9.72461Z" fill="#4B525A"/>
<path d="M6.72852 4.80078C7.53183 4.80096 8.1834 5.45255 8.18359 6.25586V11.624C8.18348 12.4274 7.53187 13.0789 6.72852 13.0791C5.92501 13.0791 5.27355 12.4275 5.27344 11.624V6.25586C5.27363 5.45245 5.92506 4.80078 6.72852 4.80078Z" fill="#4B525A"/>
<path d="M12 0C12.8036 0 13.4551 0.651504 13.4551 1.45508V3.0957C13.4551 3.89928 12.8036 4.55078 12 4.55078C11.1965 4.55069 10.5449 3.89922 10.5449 3.0957V1.45508C10.5449 0.651559 11.1965 8.97374e-05 12 0Z" fill="#4B525A"/>
</g>
<defs>
<clipPath id="clip0_17587_6924">
<rect width="24" height="24" fill="white"/>
</clipPath>
</defs>
</svg>
