<svg width="24" height="24" viewBox="0 0 24 24" fill="none" xmlns="http://www.w3.org/2000/svg">
<path fill-rule="evenodd" clip-rule="evenodd" d="M18.1455 6C21.3784 6.00011 24 8.62157 24 11.8545C23.9999 15.0873 21.3783 17.7089 18.1455 17.709H18.1426C14.9106 17.7072 12.2911 15.0865 12.291 11.8545C12.291 8.62241 14.9105 6.00096 18.1426 6H18.1455ZM17.2676 8.92773V10.9766H15.2188V12.7324H17.2676V14.7822H19.0234V12.7324H21.0732V10.9766H19.0234V8.92773H17.2676Z" fill="#4B525A"/>
<path d="M2.80371 15.3564H2.33594V12.1953H2.80371V15.3564Z" fill="#4B525A"/>
<path d="M2.80371 11.0264H2.33594V8.33301H2.80371V11.0264Z" fill="#4B525A"/>
<path d="M9.36523 15.3584H8.89648V9.97266H9.36523V15.3584Z" fill="#4B525A"/>
<path fill-rule="evenodd" clip-rule="evenodd" d="M15.2051 6C15.2436 6.00001 15.2636 6.02594 15.2637 6.05859C15.2637 6.08125 15.2509 6.10028 15.2324 6.11035C15.0781 6.18921 14.9281 6.27365 14.7812 6.36426C14.7662 6.37343 14.7504 6.3834 14.7354 6.39258C14.7244 6.40013 14.7131 6.40735 14.7021 6.41406C14.688 6.42319 14.6743 6.43128 14.6602 6.44043C14.646 6.44961 14.6324 6.45859 14.6182 6.46777C12.8614 7.61736 11.7012 9.60327 11.7012 11.8594L11.7021 11.8574C11.7021 14.3764 13.1479 16.5571 15.2549 17.6152C15.2608 17.6253 15.2646 17.6167 15.2646 17.6494C15.2645 17.6819 15.2444 17.7079 15.2061 17.708H0V6H15.2051ZM4.44336 16.5312H5.61426V8.80469H4.44336V16.5312ZM1.16406 16.5303H3.27051C3.73788 16.5303 3.97266 16.2963 3.97266 15.8281V12.1982C3.97264 11.8157 3.81695 11.5667 3.50488 11.4971V11.4941C3.81779 11.4236 3.97262 11.1747 3.97266 10.793L3.97363 10.1416V7.86523C3.97362 7.3979 3.73968 7.16309 3.27148 7.16309H1.16406V16.5303ZM9.36621 8.80371H8.42871C7.96134 8.80371 7.72656 9.03765 7.72656 9.50586V15.8281C7.72656 16.2963 7.9605 16.5303 8.42871 16.5303H10.5361V7.16406H9.36621V8.80371ZM6.08398 16.5293H7.25488V7.16309H6.08398V16.5293ZM4.44336 8.33301H5.61426V7.16309H4.44336V8.33301Z" fill="#4B525A"/>
</svg>
