<svg width="24" height="24" viewBox="0 0 24 24" fill="none" xmlns="http://www.w3.org/2000/svg">
<path fill-rule="evenodd" clip-rule="evenodd" d="M4.13896 4.88944C4.17754 5.30204 4.219 5.75204 4.26237 6.22269C4.27018 6.30747 4.27806 6.39293 4.28599 6.47896C4.37113 7.40259 4.4629 8.39409 4.55475 9.33916C4.74236 11.2693 4.92154 12.9027 5.03701 13.4268C5.26123 14.4446 6.20126 15.8541 7.62324 17.1803C8.9404 18.4087 10.5294 19.4322 12 19.9182C13.4706 19.4322 15.0596 18.4087 16.3768 17.1803C17.7987 15.8541 18.7388 14.4446 18.963 13.4268C19.0785 12.9027 19.2576 11.2693 19.4452 9.33916C19.5371 8.39409 19.6289 7.40259 19.714 6.47896C19.7219 6.39291 19.7298 6.30744 19.7376 6.22264C19.781 5.75201 19.8225 5.30202 19.861 4.88944C14.7837 3.69819 9.2163 3.69819 4.13896 4.88944ZM2.81893 3.16174C8.7119 1.61275 15.2881 1.61275 21.1811 3.16174L22 3.377L21.9177 4.22432C21.8592 4.82687 21.7896 5.58294 21.7134 6.40909L21.69 6.66323C21.6049 7.58669 21.5127 8.58274 21.4203 9.53337C21.2394 11.3946 21.0489 13.1851 20.9005 13.8586C20.5467 15.4647 19.2572 17.2159 17.7261 18.6439C16.1719 20.0933 14.2007 21.3676 12.2726 21.9217L12 22L11.7274 21.9217C9.79927 21.3676 7.82807 20.0933 6.27392 18.6439C4.74275 17.2159 3.45334 15.4647 3.09952 13.8586C2.95114 13.1851 2.76059 11.3946 2.57968 9.53337C2.48729 8.58274 2.3951 7.58669 2.30998 6.66323C2.30207 6.57744 2.29422 6.4923 2.28645 6.40789C2.21036 5.58221 2.14074 4.82658 2.08227 4.22432L2 3.377L2.81893 3.16174Z" fill="#4B525A"/>
<path d="M13.5368 13.1083L14.8178 8.19427H16.3578L17.6388 13.1083H16.2318L16.0778 12.3593H15.0698L14.9158 13.1083H13.5368ZM15.2938 11.2953H15.8538L15.5738 9.91627L15.2938 11.2953Z" fill="#4B525A"/>
<path d="M11.9645 13.1853C11.3275 13.1853 10.7465 13.0103 10.1795 12.5763L10.7465 11.4423C11.1385 11.7573 11.5655 11.9673 11.9085 11.9673C12.1535 11.9673 12.2445 11.8413 12.2445 11.7083V11.7013C12.2445 11.5403 12.0975 11.4493 11.7335 11.2883C10.8935 10.9173 10.3685 10.5323 10.3685 9.70627V9.67127C10.3685 8.74727 11.0405 8.13127 12.0415 8.13127C12.5525 8.13127 13.0635 8.24327 13.6235 8.65627L13.0215 9.74127C12.7835 9.57327 12.4195 9.34927 12.0555 9.34927C11.8525 9.34927 11.7475 9.46127 11.7475 9.58727V9.60127C11.7475 9.75527 11.9085 9.85327 12.3495 10.0563C13.0705 10.3853 13.6235 10.7983 13.6235 11.5963V11.6313C13.6235 12.5623 12.9375 13.1853 11.9645 13.1853Z" fill="#4B525A"/>
<path d="M8.33319 13.1993C7.29719 13.1993 6.56919 12.6673 6.56919 11.3933V8.20827H7.94819V11.4353C7.94819 11.7993 8.10919 11.9603 8.34719 11.9603C8.58519 11.9603 8.74619 11.8063 8.74619 11.4493V8.20827H10.1182V11.3723C10.1182 12.6603 9.37619 13.1993 8.33319 13.1993Z" fill="#4B525A"/>
</svg>
