<svg width="24" height="24" viewBox="0 0 24 24" fill="none" xmlns="http://www.w3.org/2000/svg">
<path fill-rule="evenodd" clip-rule="evenodd" d="M14 2C13.4475 2 12.9455 2.14241 12.525 2.45781C12.1199 2.76165 11.8748 3.16331 11.7112 3.53136C11.5319 3.93484 11.4158 4.37564 11.3148 4.7592C11.3087 4.78226 11.3027 4.80512 11.2967 4.82776C10.9182 6.26136 10.3111 7.62269 9.65655 8.95009L6 12H2V22H18.8655C19.4566 20.9655 20.0237 19.9191 20.5375 18.8436C21.0325 17.8075 21.5292 16.647 21.7553 15.7425C22.2285 13.8501 21.9817 11.8833 21.605 10H15.9082C16.0056 9.63933 16.0929 9.25939 16.1681 8.88362C16.3634 7.90709 16.4994 6.91168 16.5 5.91444C16.5005 5.2311 16.5011 4.34089 16.2612 3.62127C16.1267 3.21768 15.8944 2.78986 15.4811 2.46846C15.0593 2.14033 14.5479 2 14 2ZM8 20H17.413C18 19.4483 18.3757 18.7291 18.7329 17.9814C19.2213 16.9592 19.6412 15.953 19.8151 15.2575C20.072 14.2299 20.0281 12.9244 19.9248 12H12.882L13.6056 10.5528C13.7935 10.1769 14.0232 9.41011 14.2069 8.49138C14.3871 7.59048 14.5 6.66071 14.5 6C14.5 5.1933 14.4888 4.62868 14.3638 4.25373C14.2978 4.05558 14.2018 4 14 4C13.7359 4 13.6435 4.10809 13.5388 4.34364C13.4363 4.57418 13.3505 4.88319 13.235 5.32142C12.8006 6.96989 12.1028 8.53045 11.3425 10.051L8 13V20ZM6 20V14H4V20H6Z" fill="#4B525A"/>
</svg>
