<svg width="24" height="24" viewBox="0 0 24 24" fill="none" xmlns="http://www.w3.org/2000/svg">
<path d="M18.8108 11.5296H24V8.50001H18.8108V11.5296ZM18.8108 4.28418V7.3121H24V4.28418H18.8108ZM18.8108 15.745H24V12.7167H18.8108V15.745ZM0 19.9621H5.18917V16.9342H0V19.9621ZM6.26958 19.9621H11.4583V16.9342H6.26958V19.9621ZM12.5413 19.9621H17.7304V16.9342H12.5417L12.5413 19.9621ZM18.8108 19.9621H24V16.9342H18.8108V19.9621ZM12.5417 15.745H17.7304V12.7167H12.5417V15.745ZM6.27 15.745H11.4583V12.7167H6.26958L6.27 15.745ZM6.27 11.5296H11.4583V8.50001H6.26958L6.27 11.5296Z" fill="#4B525A"/>
</svg>
