<svg width="24" height="24" viewBox="0 0 24 24" fill="none" xmlns="http://www.w3.org/2000/svg">
<path d="M19 4L22 11.5L19.3203 10.1855L17.4609 5.53906L14.3779 4.30469C13.6735 4.75497 12.8491 5 12 5C11.1509 5 10.3265 4.75497 9.62207 4.30469L6.53906 5.53906L4.67969 10.1855L7.5 10.9912V20H10.6738C11.0299 20.7495 11.5148 21.4259 12.1006 22H5.5V12.5L2 11.5L5 4L10 2L10.293 2.29297C10.7457 2.74567 11.3597 3 12 3C12.6403 3 13.2543 2.74567 13.707 2.29297L14 2L19 4Z" fill="#4B525A"/>
<path fill-rule="evenodd" clip-rule="evenodd" d="M17 12C19.7614 12 22 14.2386 22 17C22 19.7614 19.7614 22 17 22C14.2386 22 12 19.7614 12 17C12 14.2386 14.2386 12 17 12ZM16 18.0342H19.5342V16.9814H17.0527V14.5H16V18.0342Z" fill="#4B525A"/>
<path d="M14 10H10V8H14V10Z" fill="#4B525A"/>
</svg>
