<svg width="24" height="24" viewBox="0 0 24 24" fill="none" xmlns="http://www.w3.org/2000/svg">
<path fill-rule="evenodd" clip-rule="evenodd" d="M13.3407 18.3472C14.927 19.1947 16.6003 19.7564 18.3351 20.0536C19.2568 20.2115 20.1633 19.4063 20.0858 18.2355L19.9995 16.9331L15.7964 15.8754L13.3407 18.3472ZM11.6611 17.3187L15.2104 13.7461L21.8129 15.4075L21.9918 18.1076C22.1358 20.2817 20.3763 22.3536 18.0147 21.9491C14.2393 21.3023 10.7363 19.5293 7.73664 16.51C4.78216 13.5361 2.82572 9.86636 2.06847 6.02953C1.57784 3.54365 3.80932 1.74894 6.03317 2.02874L8.84238 2.3822L10.483 8.98759L6.92528 12.5686C7.56025 13.4751 8.28229 14.3401 9.08734 15.1504C9.90875 15.9772 10.7684 16.6985 11.6611 17.3187ZM5.88057 10.901L8.3675 8.39779L7.30668 4.12666L5.79625 3.93661C4.58414 3.78411 3.75796 4.72218 3.94204 5.65489C4.29816 7.45927 4.95162 9.2318 5.88057 10.901Z" fill="#4B525A"/>
</svg>
