<svg width="24" height="24" viewBox="0 0 24 24" fill="none" xmlns="http://www.w3.org/2000/svg">
<path fill-rule="evenodd" clip-rule="evenodd" d="M12 8C15.2123 8 17.8687 10.4437 18.3018 13.6191C20.3768 13.8221 21.9999 15.6163 22 17.7998C22 20.1193 20.1685 21.9999 17.9092 22H7.45508C4.44277 22 2.00024 19.493 2 16.4004C2 13.5544 4.06782 11.2037 6.74512 10.8467C7.89148 9.12773 9.81763 8 12 8ZM12 10C10.5288 10 9.20883 10.7571 8.40918 11.9561L7.90723 12.71L7.00977 12.8291C5.3528 13.0499 4 14.5294 4 16.4004C4.00024 18.4382 5.59583 19.9998 7.4541 20H17.9092C19.0146 19.9999 20 19.0647 20 17.7998C19.9999 16.6127 19.1256 15.7091 18.1074 15.6094L16.5342 15.4561L16.3203 13.8896C16.015 11.6513 14.1588 10 12 10Z" fill="#4B525A"/>
<path d="M15.4414 2C19.0313 2 21.9414 4.91015 21.9414 8.5C21.9414 9.86714 21.5179 11.1348 20.7969 12.1816C20.7321 12.148 20.6692 12.1155 20.6074 12.0859C20.3073 11.9421 20.0328 11.8407 19.8164 11.7686C19.8118 11.7587 19.8075 11.7484 19.8027 11.7383C19.6797 11.4758 19.5115 11.1234 19.333 10.7578C19.7189 10.0939 19.9414 9.32321 19.9414 8.5C19.9414 6.01472 17.9267 4 15.4414 4C13.8529 4.00008 12.457 4.82342 11.6562 6.06641C11.2423 6.07998 10.8024 6.12562 10.3477 6.21289C9.94655 6.28991 9.58158 6.39218 9.25195 6.51074C10.0923 3.89403 12.5455 2.0001 15.4414 2Z" fill="#4B525A"/>
</svg>
