<svg width="24" height="24" viewBox="0 0 24 24" fill="none" xmlns="http://www.w3.org/2000/svg">
<path fill-rule="evenodd" clip-rule="evenodd" d="M11.9996 12.9094C14.008 12.9094 15.636 11.2814 15.636 9.27308C15.636 7.26477 14.008 5.63672 11.9996 5.63672C9.99134 5.63672 8.36328 7.26477 8.36328 9.27308C8.36328 11.2814 9.99134 12.9094 11.9996 12.9094ZM11.9996 10.9094C12.9034 10.9094 13.636 10.1768 13.636 9.27308C13.636 8.36934 12.9034 7.63672 11.9996 7.63672C11.0959 7.63672 10.3633 8.36934 10.3633 9.27308C10.3633 10.1768 11.0959 10.9094 11.9996 10.9094Z" fill="#4B525A"/>
<path fill-rule="evenodd" clip-rule="evenodd" d="M12 2C6.47715 2 2 6.47715 2 12C2 17.5228 6.47715 22 12 22C17.5228 22 22 17.5228 22 12C22 6.47715 17.5228 2 12 2ZM4 12C4 7.58172 7.58172 4 12 4C16.4183 4 20 7.58172 20 12C20 13.8643 19.3623 15.5797 18.2931 16.9399C16.7923 15.1431 14.535 14 12.0108 14C9.48036 14 7.2182 15.1488 5.7174 16.9532C4.64189 15.5909 4 13.8704 4 12ZM7.14968 18.3625C8.49525 19.3898 10.1764 20 12 20C13.8297 20 15.516 19.3857 16.8638 18.3522C15.7317 16.9194 13.9786 16 12.0108 16C10.0383 16 8.28155 16.9239 7.14968 18.3625Z" fill="#4B525A"/>
</svg>
