<svg width="24" height="24" viewBox="0 0 24 24" fill="none" xmlns="http://www.w3.org/2000/svg">
<path fill-rule="evenodd" clip-rule="evenodd" d="M0 3H24V21H0V3ZM19.6477 12.6026C19.7306 12.5638 19.772 12.5249 19.772 12.486C19.7306 12.2527 19.4819 12.2916 19.3575 12.3305C19.1503 12.3305 18.943 12.3305 18.6114 12.2916C18.4041 12.2527 18.1554 12.2527 17.7824 12.175L17.1192 12.0195C16.5539 11.8922 16.0256 11.6724 15.4872 11.4484C15.0386 11.2618 14.5831 11.0723 14.0933 10.9309L14.0103 11.0087C13.8169 10.905 13.5314 10.905 13.3134 10.905C13.2044 10.905 13.1122 10.905 13.057 10.892C12.228 10.5422 11.2332 10.4255 11.2332 10.4255L11.1917 10.2311C11.1917 10.2311 8.78757 9.9201 8.24869 9.88123C8.41449 8.87042 8.91193 7.85962 9.16061 7.35425L9.82382 7.39313L9.94818 7.12097C9.94818 7.12097 10.0725 6.8877 10.1554 6.77112C10.199 6.70984 10.2425 6.68079 10.2801 6.6557C10.314 6.63306 10.343 6.61365 10.3627 6.57672C10.3789 6.54626 10.3697 6.48004 10.3575 6.39209C10.3385 6.25537 10.3123 6.06616 10.3627 5.87695C10.3789 5.80084 10.4079 5.73663 10.4346 5.67737C10.4761 5.58527 10.5123 5.505 10.487 5.4104C10.3627 4.94391 9.65802 4.51624 9.16061 4.51624C8.20724 4.51624 7.91708 5.25488 7.95856 5.83807C6.92227 5.52704 4.76685 5.76031 4.76685 5.76031L4.72537 5.95465C4.72537 5.95465 4.39377 5.91583 4.22797 6.07129C3.6062 6.69336 2.5285 8.01514 2.5285 8.01514C2.27979 8.01514 2.11398 8.13177 1.98962 8.32617C1.82382 8.48169 1.65802 8.55945 1.40933 8.63721C1.28497 8.67609 1.32642 8.83154 1.40933 8.83154C1.55493 8.86566 1.73245 8.77997 1.88583 8.70593C1.90714 8.69562 1.92798 8.68555 1.94818 8.67609C1.86346 8.80847 1.68259 8.92285 1.54968 9.0069C1.48746 9.0462 1.43576 9.07892 1.40933 9.1037C1.36786 9.1037 1.36786 9.14258 1.40933 9.18146C1.53366 9.37585 2.07254 9.25922 2.32123 9.1037C2.5285 8.98706 2.69431 8.83154 2.69431 8.83154C2.69431 8.83154 2.77719 8.48169 2.86011 8.44281C3.22342 8.17017 3.80969 7.68854 4.39554 7.20715L4.64249 7.00433C5.28409 7.0473 5.69769 7.07843 5.95328 7.09766C6.16003 7.11322 6.26343 7.12097 6.30051 7.12097L5.67874 7.35425C5.30569 8.05402 4.89117 10.4644 5.01553 10.7365C5.01553 10.7365 5.13989 10.6588 5.18134 10.6588C5.09845 10.9698 5.18134 11.864 5.18134 11.864C5.26425 12.7192 5.55441 13.8078 5.67874 14.0411L5.88602 14.08C5.92746 14.391 6.25906 15.1685 6.42487 15.5184C5.80991 15.5544 4.98111 16.2924 4.26892 16.9265C4.21304 16.9763 4.1579 17.0254 4.10364 17.0735C3.64767 17.4622 3.15027 17.229 3.02591 17.1512C2.90155 17.0735 2.73575 17.0735 2.61139 17.1512L2.56995 17.1901C2.55087 17.1901 2.54059 17.1901 2.53101 17.1939C2.51974 17.1984 2.50943 17.208 2.48703 17.229L2.44559 17.3067C2.40414 17.3456 2.40414 17.3845 2.44559 17.3845H2.48703C2.44559 17.4233 2.40414 17.4622 2.40414 17.5011H2.3627C2.32123 17.4622 2.27979 17.5011 2.27979 17.54L2.32123 17.6177C2.27979 17.6566 2.27979 17.6955 2.32123 17.6955C2.25906 17.851 2.15543 17.9579 2.05179 18.0649C1.94815 18.1718 1.84454 18.2787 1.78238 18.4341H1.74094C1.69949 18.3953 1.65802 18.4341 1.65802 18.473L1.61658 18.5508C1.57513 18.5897 1.57513 18.6285 1.61658 18.6285H1.65802C1.65802 18.6674 1.64764 18.7063 1.6373 18.7452C1.62695 18.7841 1.61658 18.8229 1.61658 18.8618H1.57513C1.57513 18.8618 1.53366 18.9007 1.53366 18.9396V19.0173C1.53366 19.0324 1.53366 19.0475 1.53607 19.0603C1.53989 19.0805 1.54974 19.0951 1.57513 19.0951H1.61658V19.3672C1.61658 19.5616 1.94818 19.6393 2.0311 19.4838C2.57108 18.4976 3.89044 18.0596 5.29456 17.5936C5.93835 17.3798 6.59998 17.1602 7.21243 16.8791C7.21243 16.8402 7.17099 16.8013 7.17099 16.7625L7.58548 16.5681C7.70984 16.4903 7.8342 16.4125 7.87564 16.3737C7.95856 16.3348 8.08289 16.2571 8.12436 16.1404C8.20724 15.9849 8.20724 15.8683 8.20724 15.7905C8.20724 15.5961 8.1658 15.2852 8.1658 15.013C8.14566 14.8619 8.13531 14.7015 8.12524 14.5454C8.11456 14.3803 8.10422 14.2198 8.08289 14.08C8.12436 14.08 8.24869 14.0411 8.24869 14.0411L8.08289 12.7192L7.58548 12.486H10.8187C10.8187 12.486 10.8187 12.4471 10.8601 12.3305C11.3368 12.35 11.6373 12.35 11.9223 12.35C12.2072 12.35 12.4767 12.35 12.8912 12.3694C13.1054 12.3694 13.2513 12.4591 13.3994 12.5502C13.5093 12.6178 13.6205 12.6862 13.7617 12.7192C14.2549 12.8303 14.6261 12.818 15.0495 12.804C15.5156 12.7885 16.0451 12.771 16.8705 12.9136C16.8705 12.9136 16.9534 12.9136 16.9948 12.9914C17.0155 13.0497 17.0259 13.1371 17.0362 13.2246C17.0466 13.3121 17.057 13.3996 17.0777 13.4579C17.2021 13.6912 17.3679 13.6912 17.5337 13.6134L17.5751 13.6523H17.658L17.7409 13.6134C17.7824 13.5745 17.7824 13.5745 17.7824 13.5356L17.7409 13.4968L17.8653 13.4579L17.9067 13.4968H17.9896L18.0725 13.4579C18.095 13.4369 18.1053 13.4272 18.11 13.4166C18.114 13.4077 18.114 13.398 18.114 13.3802V13.3413C18.2583 13.2736 18.4106 13.2133 18.5604 13.1539C18.7547 13.0768 18.9449 13.0015 19.1088 12.9136V12.9525H19.1917L19.2746 12.9136C19.2959 12.8937 19.3063 12.884 19.3113 12.874C19.3161 12.8645 19.3161 12.8548 19.3161 12.8359V12.797L19.399 12.7581V12.797H19.4819L19.5648 12.7581C19.5888 12.7355 19.5989 12.7261 19.6031 12.7145C19.6062 12.7061 19.6062 12.6967 19.6062 12.6804V12.6415L19.6477 12.6026ZM20.0207 10.6588C20.0207 9.95898 20.601 9.41473 21.3471 9.41473C22.0518 9.41473 22.6736 9.95898 22.6736 10.6588C22.6736 11.3586 22.0933 11.9028 21.3471 11.9028C20.601 11.9028 20.0207 11.3586 20.0207 10.6588Z" fill="#4B525A"/>
</svg>
