<svg width="24" height="24" viewBox="0 0 24 24" fill="none" xmlns="http://www.w3.org/2000/svg">
<path d="M15.032 15.0851L13.0948 17.0026L12.1261 16.0439L9.10292 19.0362L19.0241 19.0365L15.032 15.0851Z" fill="#4B525A"/>
<path d="M11.5832 13.1094C12.4051 13.1094 13.0714 12.446 13.0714 11.6276C13.0714 10.8093 12.4051 10.1459 11.5832 10.1459C10.7613 10.1459 10.095 10.8093 10.095 11.6276C10.095 12.446 10.7613 13.1094 11.5832 13.1094Z" fill="#4B525A"/>
<path fill-rule="evenodd" clip-rule="evenodd" d="M22.0004 6.19449H6.12657V22H22.0004V6.19449ZM20.0162 8.17018H8.11081V20.0243H20.0162V8.17018Z" fill="#4B525A"/>
<path fill-rule="evenodd" clip-rule="evenodd" d="M16.0009 2.00002L2 2V17.5L4.0009 17.5V4L16 4L16.0009 2.00002Z" fill="#4B525A"/>
</svg>
