<svg width="24" height="24" viewBox="0 0 24 24" fill="none" xmlns="http://www.w3.org/2000/svg">
<path d="M7.3252 18.6201V20.8154H6.66113V18.6201H7.3252Z" fill="#4B525A"/>
<path d="M7.3252 14.6289V16.8242H6.66113V14.6289H7.3252Z" fill="#4B525A"/>
<path d="M17.4355 16.7969V20.7734H16.8379V16.7969H17.4355Z" fill="#4B525A"/>
<path d="M18.3066 4.60645L17.5732 10.5625H16.8945L17.6289 4.60645H18.3066Z" fill="#4B525A"/>
<path fill-rule="evenodd" clip-rule="evenodd" d="M20.5 24H3.5V12.1406H4.52246L5.63574 8.43555H6.58496L6.12305 12.1406H7.68262L9.04395 1.23242H6.20898L3.5 10.25V0H20.5V24ZM4.85938 12.875V22.5693H8.5293C8.85942 22.5693 9.12685 22.3024 9.12695 21.9736V18.3184C9.12695 17.9893 8.85948 17.7227 8.5293 17.7227C8.85948 17.7227 9.12695 17.455 9.12695 17.126V13.4707C9.12693 13.1419 8.85947 12.875 8.5293 12.875H4.85938ZM9.86914 15.0254V22.5693H11.6709V15.0254H9.86914ZM12.4131 12.875V22.5693H14.2148V12.875H12.4131ZM17.4355 12.875V15.002H15.5547C15.2245 15.002 14.957 15.2688 14.957 15.5977V21.9736C14.9571 22.3024 15.2246 22.5693 15.5547 22.5693H19.2373V12.875H17.4355ZM9.86914 12.875V14.6709H11.6709V12.875H9.86914ZM9.44629 3.02832L8.39648 11.5449C8.35625 11.8737 8.59105 12.1404 8.9209 12.1406H11.3545C11.6846 12.1406 11.9856 11.8739 12.0264 11.5449L13.0752 3.02832H11.6152L10.6875 10.5625H10.0088L10.9375 3.02832H9.44629ZM14.0898 1.23242L13.8682 3.02832H13.4062L13.2119 4.60645H13.6738L12.7451 12.1406H14.4219L15.3506 4.60645H15.8125L16.0068 3.02832H15.5449L15.7656 1.23242H14.0898ZM16.8984 3.02832C16.5686 3.02853 16.268 3.29528 16.2275 3.62402L15.252 11.5449C15.2115 11.8739 15.4465 12.1406 15.7764 12.1406H18.2412C18.571 12.1404 18.8716 11.8737 18.9121 11.5449L19.8877 3.62402C19.9283 3.29516 19.6933 3.02832 19.3633 3.02832H16.8984Z" fill="#4B525A"/>
<path d="M6.90234 6.63965H6.1748L7.35352 3.02734L6.90234 6.63965Z" fill="#4B525A"/>
</svg>
