<svg width="24" height="24" viewBox="0 0 24 24" fill="none" xmlns="http://www.w3.org/2000/svg">
<path fill-rule="evenodd" clip-rule="evenodd" d="M12.7502 2.07739C13.7164 2.19789 14.6397 2.45622 15.5 2.83209C14.6888 3.18653 13.9337 3.64548 13.2517 4.19193C10.9646 6.02454 9.5 8.84124 9.5 12C9.5 15.1588 10.9646 17.9755 13.2517 19.8081C13.9337 20.3545 14.6888 20.8135 15.5 21.1679C14.6397 21.5438 13.7164 21.8021 12.7502 21.9226C12.3406 21.9737 11.9234 22 11.5 22C5.97715 22 1.5 17.5228 1.5 12C1.5 6.47715 5.97715 2 11.5 2C11.9234 2 12.3406 2.02631 12.7502 2.07739ZM3.5 12C3.5 7.92001 6.55425 4.55338 10.5011 4.06176C8.63413 6.17634 7.5 8.95487 7.5 12C7.5 15.0451 8.63413 17.8237 10.5011 19.9382C6.55425 19.4466 3.5 16.08 3.5 12Z" fill="#4B525A"/>
<path d="M18.5 7C19.3284 7 20 6.32843 20 5.5C20 4.67157 19.3284 4 18.5 4C17.6716 4 17 4.67157 17 5.5C17 6.32843 17.6716 7 18.5 7Z" fill="#4B525A"/>
<path d="M21 13.5C21.8284 13.5 22.5 12.8284 22.5 12C22.5 11.1716 21.8284 10.5 21 10.5C20.1716 10.5 19.5 11.1716 19.5 12C19.5 12.8284 20.1716 13.5 21 13.5Z" fill="#4B525A"/>
<path d="M20 18.5C20 19.3284 19.3284 20 18.5 20C17.6716 20 17 19.3284 17 18.5C17 17.6716 17.6716 17 18.5 17C19.3284 17 20 17.6716 20 18.5Z" fill="#4B525A"/>
</svg>
