<svg width="24" height="24" viewBox="0 0 24 24" fill="none" xmlns="http://www.w3.org/2000/svg">
<path fill-rule="evenodd" clip-rule="evenodd" d="M2.00449 6H22.0085L22.004 18H2L2.00449 6ZM4.00019 8.00009L4.00449 16.1211H20.0085V8.00009H4.00019Z" fill="#4B525A"/>
<path fill-rule="evenodd" clip-rule="evenodd" d="M12.0001 13.0001C12.5524 13.0001 13.0001 12.5524 13.0001 12.0001C13.0001 11.4478 12.5524 11.0001 12.0001 11.0001C11.4478 11.0001 11.0001 11.4478 11.0001 12.0001C11.0001 12.5524 11.4478 13.0001 12.0001 13.0001ZM12.0001 15.0001C13.657 15.0001 15.0001 13.6569 15.0001 12.0001C15.0001 10.3432 13.657 9.00009 12.0001 9.00009C10.3433 9.00009 9.00013 10.3432 9.00013 12.0001C9.00013 13.6569 10.3433 15.0001 12.0001 15.0001Z" fill="#4B525A"/>
</svg>
