<svg width="24" height="24" viewBox="0 0 24 24" fill="none" xmlns="http://www.w3.org/2000/svg">
<path d="M24 21.5H0V19.9404L16.8447 13.2939V14.207C17.6596 13.8349 18.5372 13.6397 19.4326 13.6396C20.3729 13.6396 20.7314 13.8968 20.7314 14.5703C20.7313 15.1459 20.5162 15.3673 19.7285 15.5977L18.7793 15.8633C16.9793 16.3773 16.5049 17.1221 16.5049 18.4336V20.0469H22.4062V18.6025H18.3848V18.2656C18.3848 17.7516 18.4841 17.494 19.29 17.2725L20.248 17.0068C22.0568 16.4929 22.5137 15.9607 22.5137 14.4277C22.5135 12.9584 21.6016 12.1875 19.8232 12.1152L24 10.4668V21.5Z" fill="#4B525A"/>
<path fill-rule="evenodd" clip-rule="evenodd" d="M24 9.9707L0 19.4443V2.5H24V9.9707ZM7.63867 4.05078C6.86863 4.05085 6.64517 4.70693 6.66309 5.19434C5.85136 4.92951 4.11523 5.13025 4.10156 5.13184L4.05664 5.30078C4.05664 5.30078 3.79663 5.25568 3.65332 5.39746C3.14548 5.9265 2.28318 7.03463 2.27441 7.0459C2.09539 7.05481 1.94305 7.15307 1.85352 7.3125C1.75875 7.44213 1.64013 7.48975 1.48828 7.55078C1.45367 7.56469 1.41711 7.5793 1.37891 7.5957C1.30767 7.62235 1.33425 7.75428 1.3877 7.75488C1.51306 7.77258 1.68387 7.69305 1.82715 7.61328C1.76358 7.72198 1.63229 7.81207 1.52832 7.88379C1.49862 7.90432 1.4714 7.92392 1.44824 7.94141C1.42715 7.95737 1.40961 7.97191 1.39746 7.98535L1.39453 7.98926C1.37839 8.01306 1.37192 8.02332 1.39746 8.06543C1.49639 8.21564 1.96146 8.1182 2.14941 7.98535C2.18868 7.95866 2.22834 7.92896 2.26562 7.90039C2.2923 7.87994 2.31808 7.86011 2.34082 7.8418C2.40026 7.79384 2.4418 7.75709 2.44434 7.75488C2.44625 7.74866 2.53474 7.46365 2.5791 7.42773C2.71542 7.30872 2.9108 7.14276 3.13184 6.95605L3.13867 6.9502C3.29421 6.81878 3.46224 6.67705 3.63086 6.5332C3.75607 6.42639 3.88174 6.31836 4.00293 6.21289C4.93157 6.29243 5.29046 6.31044 5.33691 6.31055L4.84473 6.50586C4.52238 7.11757 4.20036 9.1553 4.29883 9.39453C4.31734 9.39378 4.39681 9.33337 4.44141 9.33301C4.37067 9.59666 4.44004 10.3457 4.44141 10.3604C4.50409 11.0604 4.73743 12.0002 4.83594 12.2041L5.01465 12.2393C5.04149 12.4785 5.30102 13.1428 5.44434 13.4531C4.98398 13.4758 4.40249 14.0083 3.86133 14.5039L3.85449 14.5107L3.84375 14.5205C3.7492 14.6069 3.65553 14.6924 3.56445 14.7734C3.18832 15.1102 2.80261 14.8892 2.7041 14.8271C2.6056 14.7563 2.47168 14.7563 2.36426 14.8271L2.33691 14.8535C2.32895 14.8538 2.32812 14.8623 2.32812 14.8623H2.31934L2.31055 14.8535C2.30167 14.8491 2.29037 14.8492 2.2793 14.8535C2.26813 14.8579 2.25701 14.8667 2.24805 14.8799L2.21191 14.9424C2.19418 14.9689 2.19421 15.0037 2.21191 15.0127L2.22949 15.0312C2.22467 15.0408 2.21967 15.051 2.21484 15.0615L2.20312 15.0889C2.19421 15.1087 2.18467 15.1289 2.17578 15.1465L2.1582 15.1367C2.14993 15.1327 2.13928 15.1343 2.12988 15.1406C2.11891 15.1481 2.10928 15.1626 2.10449 15.1816L2.07715 15.252C2.06821 15.2786 2.06885 15.3144 2.0957 15.3232L2.11328 15.332C2.06393 15.4564 1.98328 15.5475 1.90137 15.6396C1.81989 15.7313 1.73721 15.8241 1.68359 15.9521L1.65625 15.9434C1.65118 15.941 1.64549 15.9408 1.63965 15.9424C1.62491 15.9466 1.60886 15.9632 1.60254 15.9883L1.57617 16.0498C1.57495 16.0534 1.57382 16.0577 1.57324 16.0615C1.57288 16.064 1.57238 16.0668 1.57227 16.0693V16.0742C1.57275 16.0946 1.58108 16.1148 1.59375 16.1211L1.6123 16.1299L1.60254 16.165C1.595 16.1942 1.58833 16.2225 1.58203 16.251C1.57614 16.2778 1.57098 16.3055 1.56738 16.334H1.54004C1.52222 16.3343 1.50488 16.3603 1.50488 16.3867V16.458C1.50503 16.493 1.52229 16.5193 1.54004 16.5195H1.56738V16.7588C1.57632 16.9094 1.83536 16.9803 1.90723 16.8389C2.34567 16.0078 3.4147 15.6276 4.55566 15.2217C5.06921 15.039 5.59787 14.8508 6.08984 14.6143C6.07196 14.5877 6.06265 14.5521 6.05371 14.5166C6.1253 14.4812 6.25963 14.4107 6.37598 14.3398C6.41671 14.315 6.45519 14.2906 6.48926 14.2695C6.55246 14.2303 6.60071 14.2 6.61816 14.1885C6.6568 14.163 6.69126 14.1333 6.72266 14.0996C6.75638 14.0634 6.78673 14.0222 6.81445 13.9766C6.86819 13.8791 6.88672 13.7723 6.88672 13.666C6.88672 13.4976 6.87811 13.2403 6.86914 12.9922C6.86493 12.8586 6.85601 12.7211 6.8457 12.5898C6.83418 12.4428 6.81984 12.3035 6.80566 12.1865C6.83252 12.1865 6.94043 12.1504 6.94043 12.1504L6.80566 11.043L6.40332 10.8477L9.00879 10.8564C9.00893 10.853 9.01145 10.823 9.04492 10.7236C9.47797 10.7391 9.72864 10.7433 9.99707 10.7471C10.075 10.7481 10.1544 10.7486 10.2402 10.75C10.3661 10.7521 10.5059 10.7554 10.6748 10.7598C10.8595 10.7598 10.9819 10.8397 11.1045 10.9199C11.1898 10.9757 11.2755 11.0315 11.3818 11.0605C11.7608 11.1522 12.0572 11.1425 12.3955 11.1309C12.7767 11.1177 13.2121 11.1027 13.8809 11.2295C13.8978 11.2337 13.9146 11.2417 13.9287 11.252C13.9442 11.2633 13.9562 11.2771 13.9609 11.291C13.9708 11.3203 13.9783 11.357 13.9844 11.3965C13.9881 11.4205 13.9918 11.4456 13.9951 11.4707V11.4736C14.0005 11.5142 14.0057 11.5551 14.0127 11.5918C14.02 11.6304 14.0294 11.6644 14.042 11.6895C14.1495 11.8845 14.2836 11.8578 14.418 11.8047L14.4355 11.8408C14.4446 11.8584 14.4721 11.8673 14.5078 11.8496L14.5703 11.8232C14.5971 11.8056 14.6152 11.7784 14.6064 11.7607L14.5879 11.7256L14.6865 11.6807L14.7041 11.7168C14.7131 11.7344 14.7406 11.7432 14.7764 11.7256L14.8389 11.6982C14.8493 11.6913 14.8586 11.6834 14.8652 11.6748C14.8753 11.6617 14.8802 11.6473 14.875 11.6367L14.8564 11.6016C14.9925 11.5385 15.1268 11.4771 15.2568 11.418C15.4007 11.3527 15.5403 11.29 15.6719 11.2295L15.6807 11.2559C15.6897 11.2734 15.7164 11.2821 15.752 11.2646L15.8145 11.2383C15.8413 11.2206 15.8596 11.1935 15.8506 11.1758L15.8418 11.1494L15.9229 11.1143L15.9316 11.1406C15.9409 11.158 15.9762 11.1582 16.0029 11.1494L16.0654 11.1143C16.0923 11.0965 16.1105 11.0695 16.1016 11.0518L16.084 11.0254L16.1279 10.999C16.1995 10.9636 16.2354 10.9367 16.2266 10.9014C16.18 10.7249 16.0461 10.7214 15.918 10.7178L15.8887 10.7168C15.879 10.7165 15.8689 10.7154 15.8594 10.7148C15.8258 10.7133 15.7935 10.7121 15.7617 10.7109L15.6631 10.708L15.6445 10.707C15.6 10.7056 15.5545 10.7041 15.5059 10.7021C15.4289 10.6991 15.3437 10.6952 15.2422 10.6885C15.0183 10.6708 14.7852 10.6439 14.5703 10.5996C14.5171 10.5891 14.4231 10.5673 14.3291 10.5449C14.1884 10.5116 14.0474 10.4769 14.042 10.4756C13.5825 10.3643 13.157 10.1797 12.7246 9.99121C12.3651 9.83441 12.0007 9.67441 11.6064 9.55371C11.6064 9.55371 11.6024 9.55634 11.6006 9.55762L11.5967 9.56055L11.5811 9.57422L11.5703 9.58496C11.5633 9.59191 11.5562 9.59881 11.5498 9.60449C11.5441 9.60962 11.5384 9.61414 11.5342 9.61621C11.3789 9.54491 11.1751 9.54181 11.0088 9.53906C10.907 9.53736 10.8191 9.53527 10.7646 9.51855C10.29 9.3147 9.78778 9.1734 9.27734 9.10254L9.23242 8.94238C9.19864 8.93745 7.28542 8.65917 6.85938 8.62402C6.99772 7.79401 7.38687 6.95527 7.59082 6.51562L7.6123 6.46973L8.1582 6.50586L8.26562 6.27539C8.31039 6.16901 8.36404 6.07111 8.42676 5.97363C8.43326 5.96475 8.4397 5.95654 8.44629 5.94922C8.44894 5.94623 8.45242 5.94318 8.45508 5.94043C8.45951 5.93592 8.46432 5.93172 8.46875 5.92773L8.47754 5.91992L8.4834 5.91504C8.50177 5.90032 8.51973 5.88895 8.53613 5.87891C8.55143 5.86952 8.56639 5.86045 8.57812 5.85059C8.58981 5.8407 8.60004 5.82922 8.60645 5.81445C8.61688 5.77995 8.60955 5.71698 8.60059 5.63867C8.58652 5.51573 8.56823 5.35458 8.60645 5.20312C8.62256 5.14264 8.64154 5.09302 8.65918 5.04883C8.69049 4.97025 8.71544 4.90714 8.7041 4.82227C8.6235 4.39691 8.04166 4.05078 7.63867 4.05078ZM17.4805 8.27832C16.887 8.27839 16.4062 8.75456 16.4062 9.3418C16.4065 9.92893 16.8872 10.4052 17.4805 10.4053C18.0739 10.4053 18.5555 9.92897 18.5557 9.3418C18.5557 8.75452 18.074 8.27832 17.4805 8.27832Z" fill="#4B525A"/>
</svg>
