<svg width="24" height="24" viewBox="0 0 24 24" fill="none" xmlns="http://www.w3.org/2000/svg">
<path d="M4.03254 5.2867L7.30009 2L8.71843 3.41008L4.03259 8.12338L1.30005 5.37501L2.71834 3.96489L4.03254 5.2867Z" fill="#4B525A"/>
<path d="M7.30009 9L4.03254 12.2867L2.71834 10.9649L1.30005 12.375L4.03259 15.1234L8.71843 10.4101L7.30009 9Z" fill="#4B525A"/>
<path d="M7.30009 16L4.03254 19.2867L2.71834 17.9649L1.30005 19.375L4.03259 22.1234L8.71843 17.4101L7.30009 16Z" fill="#4B525A"/>
<path d="M22.009 11.7051H9.7688V13.7051H22.009V11.7051Z" fill="#4B525A"/>
<path d="M9.7688 18.7051H22.0088V20.7051H9.7688V18.7051Z" fill="#4B525A"/>
<path d="M22.0088 4.70508H9.7688V6.70508H22.0088V4.70508Z" fill="#4B525A"/>
</svg>
