<svg width="24" height="24" viewBox="0 0 24 24" fill="none" xmlns="http://www.w3.org/2000/svg">
<path fill-rule="evenodd" clip-rule="evenodd" d="M6.5649 9.17532H2.25297V21.995H6.5649V9.17532Z" fill="#4B525A"/>
<path fill-rule="evenodd" clip-rule="evenodd" d="M6.8509 5.21434C6.82292 3.95738 5.91453 3 4.43945 3C2.96436 3 2 3.95738 2 5.21434C2 6.44527 2.93586 7.43022 4.38347 7.43022H4.41103C5.91453 7.43022 6.8509 6.44527 6.8509 5.21434Z" fill="#4B525A"/>
<path fill-rule="evenodd" clip-rule="evenodd" d="M22.1141 14.6488C22.1141 10.7111 19.9869 8.87844 17.1494 8.87844C14.8601 8.87844 13.8351 10.1227 13.2628 10.9956V9.17981H8.95032C9.00716 10.3827 8.95032 21.9995 8.95032 21.9995H13.2628V14.8399C13.2628 14.4568 13.2908 14.0746 13.4048 13.8003C13.7164 13.0349 14.426 12.2424 15.6172 12.2424C17.1782 12.2424 17.8021 13.4179 17.8021 15.1406V21.9992H22.1139L22.1141 14.6488Z" fill="#4B525A"/>
</svg>
