<svg width="24" height="24" viewBox="0 0 24 24" fill="none" xmlns="http://www.w3.org/2000/svg">
<path d="M11.9909 2.51074C14.2939 2.51074 16.7534 3.68922 17.874 6.18868V6.18968C18.2426 7.01248 18.2979 7.96995 18.3015 8.66688C18.6277 8.74303 18.9459 8.87679 19.2292 9.06348C19.6986 9.37303 20.3254 10.0179 20.3452 11.0255L20.3432 11.171C20.3139 11.886 19.9657 12.4456 19.5799 12.8171C19.381 13.0087 19.1611 13.1619 18.9412 13.2875C19.3287 13.6815 19.7701 13.9451 20.1768 14.0119L20.1808 14.0129C21.2661 14.1937 22.0582 15.1614 21.9964 16.2779V16.2799C21.9446 17.1935 21.3874 17.7723 21.0109 18.0595C20.6323 18.3483 20.2136 18.5229 19.9038 18.6305C19.7436 18.6861 19.5797 18.7337 19.4195 18.776C19.3039 19.0334 19.1318 19.2941 18.8784 19.5194C18.5247 19.8339 18.1328 19.9759 17.8142 20.0345C17.2836 20.1321 16.7779 20.0188 16.6543 19.9947V19.9937C16.3377 19.9322 16.1184 19.9243 15.8781 19.9568C15.8552 19.9686 15.8172 19.9879 15.7635 20.0206C15.5204 20.1684 15.4398 20.2391 15.0311 20.5029C14.3985 20.911 13.3907 21.4893 12.0497 21.4894C10.6718 21.4894 9.65957 20.9351 8.99453 20.5108C8.55775 20.2322 8.51703 20.1844 8.25316 20.0246C8.19303 19.9881 8.15284 19.9679 8.1306 19.9568C7.90277 19.9253 7.73295 19.9372 7.58553 19.9588C7.48345 19.9738 7.41259 19.9893 7.26268 20.0176C7.16167 20.0367 6.90477 20.0873 6.62594 20.0873C6.09235 20.0873 5.55333 19.9108 5.12128 19.5243C4.85024 19.2818 4.68284 19.011 4.57821 18.778C4.41734 18.7354 4.25275 18.6865 4.09194 18.6305C3.78208 18.5225 3.36387 18.3479 2.98586 18.0585C2.60915 17.7702 2.05599 17.1924 2.00335 16.2828V16.2779C1.94201 15.1673 2.72906 14.1903 3.82588 14.0119H3.82688C4.24627 13.9421 4.68342 13.6774 5.06249 13.2905C4.72171 13.0962 4.39995 12.8441 4.14475 12.5082C3.69415 11.9151 3.58131 11.2345 3.69535 10.6389V10.6369C3.85155 9.82555 4.38542 9.31143 4.8064 9.04255C5.07351 8.87201 5.37704 8.74323 5.69724 8.67087C5.70086 7.97397 5.75672 7.01467 6.12572 6.19167C7.25134 3.67954 9.69577 2.51078 11.9909 2.51074ZM11.9909 4.34722C10.2848 4.34726 8.57997 5.20592 7.80176 6.943C7.39361 7.85322 7.5551 9.48446 7.62041 10.6249C7.17961 10.868 6.61351 10.4406 6.29312 10.4406C5.95979 10.4406 5.56153 10.6596 5.49894 10.9847L5.48997 11.0763C5.4902 11.3028 5.65374 11.5972 6.31604 11.8576C6.60849 11.9727 7.30454 12.1076 7.46596 12.4853C7.69247 13.0162 6.30289 15.4676 4.12083 15.8255L4.05905 15.8414C3.92151 15.8913 3.82966 16.0258 3.83784 16.1762C3.87593 16.8365 5.36291 17.096 6.02208 17.1976C6.08927 17.2891 6.14411 17.6715 6.23034 17.9629L6.2722 18.0635C6.3193 18.1459 6.39957 18.2202 6.53626 18.2429L6.62594 18.2499C6.96133 18.2498 7.51843 17.9934 8.48833 18.1532C9.37981 18.3012 10.2212 19.4897 11.7368 19.6379L12.0497 19.6529C13.6448 19.6528 14.5968 18.3049 15.5124 18.1532C16.0422 18.0659 16.4973 18.0932 17.0061 18.1921C17.3563 18.2604 17.6703 18.2983 17.7704 17.9559C17.858 17.6605 17.9118 17.2852 17.9776 17.1956C18.6102 17.0979 20.0323 16.8523 20.1549 16.237L20.1619 16.1762C20.1714 16.0042 20.0496 15.8529 19.8789 15.8245C17.734 15.4721 16.3025 13.0298 16.5338 12.4853C16.6943 12.1081 17.3857 11.9737 17.6837 11.8566C18.2371 11.6392 18.5147 11.3717 18.5087 11.0624C18.5013 10.6662 18.0221 10.4296 17.6697 10.4296C17.3112 10.4297 16.7963 10.8518 16.3793 10.6229C16.4405 9.54501 16.5854 8.05132 16.2677 7.11938L16.198 6.94001C15.4258 5.21795 13.7078 4.34722 11.9909 4.34722Z" fill="#4B525A"/>
</svg>
