<svg width="24" height="24" viewBox="0 0 24 24" fill="none" xmlns="http://www.w3.org/2000/svg">
<path fill-rule="evenodd" clip-rule="evenodd" d="M6 6H18V18H6V6ZM20 4V20H4V4H20Z" fill="#4B525A"/>
<path d="M7.42391 15.3112C7.42391 16.193 8.13875 16.9079 9.02055 16.9079C9.90235 16.9079 10.6172 16.193 10.6172 15.3112C10.6172 14.4294 9.90235 13.7146 9.02055 13.7146C8.13875 13.7146 7.42391 14.4294 7.42391 15.3112Z" fill="#4B525A"/>
<path d="M13.264 8.88831C13.264 9.7701 13.9789 10.4849 14.8607 10.4849C15.7425 10.4849 16.4573 9.7701 16.4573 8.88831C16.4573 8.00651 15.7425 7.29167 14.8607 7.29167C13.9789 7.29167 13.264 8.00651 13.264 8.88831Z" fill="#4B525A"/>
</svg>
