<svg width="24" height="24" viewBox="0 0 24 24" fill="none" xmlns="http://www.w3.org/2000/svg">
<path d="M2.27602 12.1793H2.74442V15.3404H2.27602V12.1793ZM8.83211 15.3404H9.30049V9.95498H8.83211V15.3404ZM2.27602 11.0087H2.74442V8.31596H2.27602V11.0087ZM15.2633 17.6236C15.2633 17.6562 15.2434 17.6825 15.2045 17.6825H0V5.97473H15.2045C15.2426 5.97473 15.2633 6.00097 15.2633 6.03278C15.2633 6.05505 15.2506 6.07493 15.2323 6.08527C13.1408 7.14853 11.7077 9.32116 11.7077 11.8286C11.7077 14.3361 13.1408 16.5079 15.2323 17.5719C15.2506 17.5823 15.2633 17.6005 15.2633 17.6236ZM3.91503 7.84756C3.91503 7.37915 3.68122 7.14535 3.21283 7.14535H1.1054V16.5111H3.21283C3.68122 16.5111 3.91503 16.2773 3.91503 15.8089V12.1793C3.91503 11.7968 3.75918 11.5479 3.44662 11.4779C3.44662 11.4779 3.44583 11.4779 3.44583 11.4771C3.44583 11.4763 3.44662 11.4763 3.44662 11.4763C3.75918 11.4063 3.91503 11.1574 3.91503 10.7749V7.84756ZM5.55484 8.78436H4.38424V16.5111H5.55484V8.78436ZM5.55484 7.14535H4.38424V8.31596H5.55484V7.14535ZM7.19389 7.14535H6.02325V16.5111H7.19389V7.14535ZM10.4711 7.14535H9.30049V8.78436H8.3637C7.89528 8.78436 7.66147 9.01817 7.66147 9.48657V15.8089C7.66147 16.2773 7.89528 16.5111 8.3637 16.5111H10.4711V7.14535ZM24 11.8286C24 15.0613 21.3796 17.6825 18.1461 17.6825C14.9126 17.6825 12.4974 15.2617 12.3042 12.2032C12.0839 8.70405 15.0224 5.76558 18.5207 5.98666C21.5792 6.17991 24 8.72154 24 11.8286ZM21.487 11.8556L16.4332 8.94739V14.7671L21.487 11.8556Z" fill="#4B525A"/>
</svg>
