<svg width="24" height="24" viewBox="0 0 24 24" fill="none" xmlns="http://www.w3.org/2000/svg">
<path fill-rule="evenodd" clip-rule="evenodd" d="M16.0383 16.6809C14.9317 17.4949 13.5322 18 12.0653 18C8.70017 18 6 15.2984 6 12C6 9.18538 7.96617 6.80534 10.6339 6.16772C10.2676 7.07003 10.0653 8.05661 10.0653 9.09091C10.0653 12.7714 12.617 15.8401 16.0383 16.6809ZM17.6776 14.9038C14.5556 14.7721 12.0653 12.22 12.0653 9.09091C12.0653 7.98021 12.3791 6.94221 12.9235 6.05935C13.3313 5.39797 13.8686 4.82366 14.5003 4.37108C13.732 4.13002 12.914 4 12.0653 4C12.0305 4 11.9957 4.00022 11.961 4.00066C7.55472 4.05605 4 7.61626 4 12C4 16.4183 7.61096 20 12.0653 20C14.6693 20 17.1608 18.7759 18.7269 16.8763C19.2774 16.2085 19.7135 15.4573 20 14.6464C19.4479 14.8171 18.5397 14.9091 17.931 14.9091C17.8461 14.9091 17.7616 14.9073 17.6776 14.9038Z" fill="#4B525A"/>
</svg>
