<svg width="24" height="24" viewBox="0 0 24 24" fill="none" xmlns="http://www.w3.org/2000/svg">
<path fill-rule="evenodd" clip-rule="evenodd" d="M16 11.8503C16 14.0226 14.2091 15.7837 12 15.7837C9.79086 15.7837 8 14.0226 8 11.8503C8 9.67801 9.79086 7.91699 12 7.91699C14.2091 7.91699 16 9.67801 16 11.8503ZM14 11.8503C14 12.8865 13.1364 13.7837 12 13.7837C10.8636 13.7837 10 12.8865 10 11.8503C10 10.8141 10.8636 9.91699 12 9.91699C13.1364 9.91699 14 10.8141 14 11.8503Z" fill="#4B525A"/>
<path fill-rule="evenodd" clip-rule="evenodd" d="M6.5 3H17.5L22 12L17.5 21H6.5L2 12L6.5 3ZM4.2437 12L7.72675 5.0339H16.2733L19.7563 12L16.2732 18.9661H7.72675L4.2437 12Z" fill="#4B525A"/>
</svg>
