<svg width="24" height="24" viewBox="0 0 24 24" fill="none" xmlns="http://www.w3.org/2000/svg">
<path fill-rule="evenodd" clip-rule="evenodd" d="M15.3291 12.582L12 15.001L8.67188 12.582L9.94336 8.66895H14.0576L15.3291 12.582ZM11.0215 11.8174L12 12.5283L12.9775 11.8174L12.6045 10.6689H11.3955L11.0215 11.8174Z" fill="#4B525A"/>
<path fill-rule="evenodd" clip-rule="evenodd" d="M12 2C13.6007 2 15.1126 2.3782 16.4541 3.04688C16.4866 3.06306 16.5195 3.08016 16.5518 3.09668C16.6958 3.17047 16.8377 3.24766 16.9775 3.32812C17.0012 3.34171 17.0253 3.35439 17.0488 3.36816C17.2919 3.51065 17.5274 3.6643 17.7568 3.82617C17.7937 3.85215 17.8307 3.87783 17.8672 3.9043C17.9394 3.95669 18.0113 4.00922 18.082 4.06348C18.1166 4.09 18.1504 4.11757 18.1846 4.14453C18.307 4.24109 18.4272 4.34032 18.5449 4.44238C18.5688 4.46308 18.5925 4.48397 18.6162 4.50488C18.682 4.56304 18.7473 4.62179 18.8115 4.68164C18.8496 4.7171 18.8873 4.75302 18.9248 4.78906C19.0072 4.86818 19.0883 4.9484 19.168 5.03027C19.2272 5.09117 19.2861 5.15246 19.3438 5.21484C19.3849 5.25936 19.4255 5.30435 19.4658 5.34961C19.5124 5.40178 19.5581 5.45466 19.6035 5.50781C19.6732 5.58937 19.7415 5.67207 19.8086 5.75586C19.8624 5.82299 19.9157 5.89045 19.9678 5.95898C19.999 6.0001 20.03 6.0414 20.0605 6.08301C20.1235 6.16854 20.1849 6.25518 20.2451 6.34277C21.3512 7.95182 22 9.89984 22 12C22 12.371 21.9778 12.7371 21.9385 13.0977C21.9263 13.2089 21.9122 13.3196 21.8965 13.4297C21.8858 13.5045 21.8737 13.579 21.8613 13.6533C21.8527 13.7052 21.8434 13.757 21.834 13.8086C21.8107 13.9358 21.7848 14.062 21.7568 14.1875C21.7439 14.2456 21.7308 14.3036 21.7168 14.3613C21.6554 14.615 21.5843 14.8647 21.5039 15.1104C21.4851 15.168 21.4651 15.2251 21.4453 15.2822C21.4099 15.3843 21.3726 15.4854 21.334 15.5859C21.3048 15.662 21.2761 15.7383 21.2451 15.8135C21.2259 15.8599 21.2064 15.9061 21.1865 15.9521C21.134 16.0741 21.0796 16.195 21.0225 16.3145C21.0082 16.3443 20.9931 16.3737 20.9785 16.4033C20.9357 16.4905 20.8909 16.5764 20.8457 16.6621C20.8185 16.7137 20.7918 16.7654 20.7637 16.8164C20.7095 16.9147 20.654 17.0121 20.5967 17.1084C20.5644 17.1625 20.5313 17.2161 20.498 17.2695C20.4416 17.3604 20.3835 17.4502 20.3242 17.5391C18.7506 19.8993 16.2016 21.5504 13.252 21.9189C13.2077 21.9246 13.1635 21.9305 13.1191 21.9355C13.05 21.9432 12.9807 21.9498 12.9111 21.9561C12.7916 21.9672 12.6715 21.9776 12.5508 21.9844C12.5183 21.9861 12.4857 21.9868 12.4531 21.9883C12.3029 21.9952 12.1519 22 12 22C11.8478 22 11.6964 21.9952 11.5459 21.9883C11.5133 21.9868 11.4807 21.9861 11.4482 21.9844C11.3176 21.9771 11.1878 21.9664 11.0586 21.9541C10.9998 21.9486 10.9413 21.942 10.8828 21.9355C10.7798 21.9239 10.6772 21.9112 10.5752 21.8965C10.4902 21.8844 10.4056 21.8707 10.3213 21.8564C10.2994 21.8527 10.2777 21.8486 10.2559 21.8447C7.51642 21.3627 5.16126 19.7688 3.67578 17.542C3.61463 17.4503 3.55523 17.3574 3.49707 17.2637C3.4695 17.2192 3.44193 17.1748 3.41504 17.1299C3.35299 17.0263 3.29273 16.9214 3.23438 16.8154C3.21254 16.7758 3.19221 16.7353 3.1709 16.6953C3.15125 16.6584 3.13053 16.6221 3.11133 16.585L2.98633 16.335C2.97982 16.3214 2.97423 16.3075 2.96777 16.2939C2.91342 16.1798 2.86065 16.0647 2.81055 15.9482C2.79395 15.9097 2.77784 15.8709 2.76172 15.832C2.71338 15.7156 2.66706 15.5981 2.62305 15.4795C2.60132 15.4209 2.58121 15.3618 2.56055 15.3027C2.53604 15.2327 2.51127 15.1626 2.48828 15.0918C2.46953 15.0341 2.45132 14.9761 2.43359 14.918C2.39837 14.8023 2.36509 14.6858 2.33398 14.5684C2.31851 14.51 2.3035 14.4514 2.28906 14.3926C2.2677 14.3055 2.24856 14.2178 2.22949 14.1299C2.21512 14.0636 2.20055 13.9974 2.1875 13.9307C2.16585 13.82 2.14589 13.7087 2.12793 13.5967C2.12063 13.5512 2.11313 13.5057 2.10645 13.46C2.08804 13.3341 2.07227 13.2074 2.05859 13.0801C2.02055 12.7256 2 12.3646 2 12C2 9.69764 2.77936 7.57799 4.08691 5.8877C4.11501 5.85138 4.14329 5.81522 4.17188 5.7793C4.34262 5.56471 4.52246 5.3579 4.70996 5.1582C4.74448 5.12143 4.77841 5.0841 4.81348 5.04785C4.92635 4.9312 5.04274 4.8181 5.16113 4.70703C5.18027 4.68908 5.1985 4.67015 5.21777 4.65234C5.27231 4.60198 5.32814 4.55306 5.38379 4.50391C5.42581 4.46679 5.4681 4.42997 5.51074 4.39355C5.60871 4.3099 5.70839 4.22832 5.80957 4.14844C5.85832 4.10995 5.90658 4.0708 5.95605 4.0332C6.01276 3.99012 6.07029 3.94814 6.12793 3.90625C6.18629 3.86384 6.24539 3.82242 6.30469 3.78125C6.35333 3.74748 6.4019 3.71359 6.45117 3.68066C6.54839 3.61569 6.6465 3.55185 6.74609 3.49023C6.8121 3.44939 6.87927 3.41043 6.94629 3.37109C6.99972 3.33974 7.05337 3.30871 7.10742 3.27832C7.16392 3.24656 7.22017 3.21428 7.27734 3.18359C7.37805 3.12953 7.48027 3.07802 7.58301 3.02734C8.91516 2.37031 10.4142 2 12 2ZM11.0215 19.1826L11.2764 19.9658C11.5148 19.9872 11.756 20 12 20C12.2436 20 12.4846 19.9871 12.7227 19.9658L12.9775 19.1826L12 18.4727L11.0215 19.1826ZM12 4C11.0593 4 10.1567 4.16272 9.31836 4.46094L9.9209 4.95898L8.40918 8.78613L4.77539 8.56055C4.29966 9.55803 4.02653 10.6694 4.00391 11.8428L4.79785 11.3389L7.9707 13.959L6.46387 17.7725C7.19016 18.4692 8.04719 19.0295 8.99512 19.4141L8.67188 18.4189L12 16.001L15.3291 18.4189L15.0049 19.4141C15.9404 19.0345 16.7866 18.483 17.5068 17.7988L15.8906 14.0713L18.9736 11.3477L19.998 11.9521C19.9909 10.7396 19.7153 9.59121 19.2256 8.56348L15.6533 8.78613L14.1426 4.95898L14.7256 4.47656C13.8749 4.16831 12.9571 4 12 4ZM18.3027 14.6084L18.7832 15.7168L19.0986 15.6865C19.3577 15.1886 19.5662 14.6608 19.7168 14.1084L19.208 13.8086L18.3027 14.6084ZM4.26465 14.0459C4.41614 14.6202 4.63106 15.1685 4.89941 15.6846L5.13281 15.6992L5.57617 14.5752L4.64453 13.8057L4.26465 14.0459ZM7.39062 5.46289C6.90662 5.80479 6.46092 6.19732 6.06445 6.63574L7.08203 6.69922L7.52637 5.5752L7.39062 5.46289ZM16.5361 5.5752L16.9795 6.69922L17.9375 6.63867C17.5495 6.20925 17.1147 5.82343 16.6426 5.48633L16.5361 5.5752Z" fill="#4B525A"/>
</svg>
