<svg width="24" height="24" viewBox="0 0 24 24" fill="none" xmlns="http://www.w3.org/2000/svg">
<path d="M3.99902 18C2.74414 16.3286 2 14.251 2 12C2 6.47705 6.47754 2 12 2C17.5225 2 22 6.47705 22 12C22 14.251 21.2559 16.3286 20.001 18H17.292C18.9521 16.5342 20 14.3892 20 12C20 7.58154 16.418 4 12 4C7.58203 4 4 7.58154 4 12C4 14.3892 5.04785 16.5342 6.70801 18H3.99902Z" fill="#4B525A"/>
<path d="M16.4551 8.37305C16.0508 7.83838 15.5586 7.37354 15 7L12.2607 9.65869C12.168 9.63428 12.0723 9.61621 11.9736 9.60547C11.9004 9.59717 11.8262 9.59277 11.75 9.59277C10.6455 9.59277 9.75 10.4883 9.75 11.5928C9.75 12.6973 10.6455 13.5928 11.75 13.5928C12.4629 13.5928 13.0889 13.2202 13.4434 12.6592C13.6377 12.3506 13.75 11.9849 13.75 11.5928C13.75 11.4951 13.7432 11.3984 13.7295 11.3042C13.7178 11.2236 13.7012 11.1445 13.6797 11.0674L16.4551 8.37305Z" fill="#4B525A"/>
<path d="M22 22V20H2V22H22Z" fill="#4B525A"/>
</svg>
