<svg width="24" height="24" viewBox="0 0 24 24" fill="none" xmlns="http://www.w3.org/2000/svg">
<path d="M4 6L4 8H6V6H8V4H6V2H4L4 4H2V6H4Z" fill="#4B525A"/>
<path fill-rule="evenodd" clip-rule="evenodd" d="M12.0001 12.9091C14.0084 12.9091 15.6364 11.281 15.6364 9.27272C15.6364 7.26441 14.0084 5.63635 12.0001 5.63635C9.99177 5.63635 8.36371 7.26441 8.36371 9.27272C8.36371 11.281 9.99177 12.9091 12.0001 12.9091ZM12.0001 10.9091C12.9038 10.9091 13.6364 10.1765 13.6364 9.27272C13.6364 8.36898 12.9038 7.63635 12.0001 7.63635C11.0963 7.63635 10.3637 8.36898 10.3637 9.27272C10.3637 10.1765 11.0963 10.9091 12.0001 10.9091Z" fill="#4B525A"/>
<path fill-rule="evenodd" clip-rule="evenodd" d="M2.20004 10C2.06886 10.6462 2 11.3151 2 12C2 17.5228 6.47715 22 12 22C17.5228 22 22 17.5228 22 12C22 6.47715 17.5228 2 12 2C11.3151 2 10.6462 2.06886 10 2.20004V4.25203C10.6392 4.08751 11.3094 4 12 4C16.4183 4 20 7.58172 20 12C20 13.8643 19.3623 15.5797 18.2931 16.9399C16.7923 15.1431 14.535 14 12.0108 14C9.48036 14 7.2182 15.1488 5.7174 16.9532C4.64189 15.5909 4 13.8704 4 12C4 11.3094 4.08751 10.6392 4.25203 10H2.20004ZM12 20C10.1764 20 8.49525 19.3898 7.14968 18.3625C8.28155 16.9239 10.0383 16 12.0108 16C13.9786 16 15.7317 16.9194 16.8638 18.3522C15.516 19.3857 13.8297 20 12 20Z" fill="#4B525A"/>
</svg>
