<svg width="24" height="24" viewBox="0 0 24 24" fill="none" xmlns="http://www.w3.org/2000/svg">
<path fill-rule="evenodd" clip-rule="evenodd" d="M18 4H16.0667L16.649 11.344C17.2133 11.7425 17.9681 12.4342 18.6599 13.4423C19.7274 14.9978 19.5663 16.6797 19.3131 17.4177L19.082 18.091H13V22H11V18.091H4.91796L4.68695 17.4177C4.4337 16.6797 4.27258 14.9978 5.34011 13.4423C6.02887 12.4387 6.77999 11.7486 7.34349 11.3493L7.81995 4H6V2H18V4ZM9.85113 4H14.0336L14.7107 12.5411L15.2238 12.7904C15.3987 12.8754 16.1992 13.4067 16.9732 14.5346C17.3547 15.0905 17.4668 15.6749 17.4733 16.1218H6.52675C6.53325 15.6749 6.64532 15.0905 7.0268 14.5346C7.80085 13.4067 8.60128 12.8754 8.7762 12.7904L9.29767 12.537L9.85113 4Z" fill="#4B525A"/>
</svg>
