<svg width="24" height="24" viewBox="0 0 24 24" fill="none" xmlns="http://www.w3.org/2000/svg">
<path d="M13.1425 10.1366L12.0996 7.5L11.0567 10.1366L8.34961 10.3647L10.4121 12.2224L9.78198 15L12.0996 13.5116L14.4172 15L13.7871 12.2224L15.8496 10.3647L13.1425 10.1366Z" fill="#4B525A"/>
<path fill-rule="evenodd" clip-rule="evenodd" d="M8 2H16C16.1667 2.5 16.5 3.5 17 4C17.4656 4.46564 18.6007 4.69734 19.3667 4.85369C19.6411 4.9097 19.8681 4.95604 20 5V8H22V16H20C19.3333 16.8333 17.7 18.7 16.5 19.5C15.3 20.3 13 21.5 12 22C11 21.5 8.7 20.3 7.5 19.5C6.3 18.7 4.66667 16.8333 4 16H2V8H4V5C4.16467 4.96707 4.35052 4.93897 4.54887 4.90899C5.3543 4.78724 6.36565 4.63435 7 4C7.5 3.5 7.83333 2.5 8 2ZM8.41421 5.41421C8.8605 4.96792 9.16644 4.42188 9.3665 4H14.6335C14.8336 4.42188 15.1395 4.96792 15.5858 5.41421C16.0215 5.84993 16.5442 6.10304 16.9128 6.2527C17.2842 6.40351 17.6679 6.5149 18 6.59882V15.2784C17.719 15.6068 17.3735 15.9945 17.0047 16.3801C16.3832 17.0298 15.7993 17.5634 15.3906 17.8359C14.5663 18.3854 13.0982 19.1825 12 19.7539C10.9018 19.1825 9.43367 18.3854 8.6094 17.8359C8.20069 17.5634 7.61681 17.0298 6.99528 16.3801C6.6265 15.9945 6.28097 15.6068 6 15.2784V6.67461C6.67959 6.51089 7.63879 6.18963 8.41421 5.41421Z" fill="#4B525A"/>
</svg>
