<svg xmlns="http://www.w3.org/2000/svg" fill="none" viewBox="0 0 24 24"><path fill="currentColor" fill-rule="evenodd" d="M13.34 18.35q2.39 1.26 5 1.7c.92.16 1.82-.64 1.75-1.81l-.09-1.3-4.2-1.06zm-1.68-1.03 3.55-3.57 6.6 1.66.18 2.7c.15 2.17-1.61 4.24-3.98 3.84A18.8 18.8 0 0 1 7.74 16.5 20.6 20.6 0 0 1 2.07 6.03c-.5-2.49 1.74-4.28 3.96-4l2.81.35 1.64 6.6-3.56 3.59a20 20 0 0 0 2.17 2.58 19 19 0 0 0 2.57 2.17M5.88 10.9l2.49-2.5L7.3 4.13l-1.51-.2c-1.22-.15-2.04.8-1.86 1.72a18 18 0 0 0 1.94 5.25" clip-rule="evenodd"/></svg>