<svg xmlns="http://www.w3.org/2000/svg" fill="none" viewBox="0 0 24 24"><path fill="currentColor" d="M24 21.5H0v-1.56l16.85-6.65v.92a6 6 0 0 1 2.58-.57c.94 0 1.3.26 1.3.93 0 .58-.21.8-1 1.03l-.95.26c-1.8.52-2.28 1.26-2.28 2.57v1.62h5.9V18.6h-4v-.33c0-.52.1-.78.9-1l.96-.26c1.8-.52 2.26-1.05 2.26-2.58q0-2.2-2.69-2.31L24 10.47z"/><path fill="currentColor" fill-rule="evenodd" d="M24 9.97 0 19.45V2.5h24zM7.64 4.05c-.77 0-1 .66-.98 1.14a8 8 0 0 0-2.56-.06l-.04.17s-.26-.04-.4.1c-.52.53-1.38 1.63-1.39 1.65a.5.5 0 0 0-.42.26 1 1 0 0 1-.36.24l-.11.05c-.07.02-.05.15 0 .15.13.02.3-.06.45-.14-.07.11-.2.2-.3.27l-.08.06-.05.04q-.04.03 0 .08c.1.15.56.06.75-.08l.2-.14.1-.09s.08-.29.13-.32l.55-.47v-.01l.5-.42.37-.32c.93.08 1.29.1 1.34.1l-.5.2a8 8 0 0 0-.54 2.88c.02 0 .1-.06.14-.06-.07.27 0 1.02 0 1.03.06.7.3 1.64.4 1.84l.18.04c.02.24.28.9.43 1.21-.47.03-1.05.56-1.59 1.05v.01l-.02.01-.28.25c-.37.34-.76.12-.86.06a.3.3 0 0 0-.34 0l-.02.02-.01.01h-.05l-.03.02-.04.06q-.01.05 0 .07l.02.02-.01.03-.02.03-.02.06-.02-.01h-.03l-.02.04-.03.07q-.02.05.02.07l.01.01q-.08.19-.2.31-.14.13-.22.31h-.05q-.02 0-.04.04l-.02.06v.02l.01.05.02.01v.03l-.04.17h-.03q-.03 0-.04.06v.07q0 .05.04.06h.03v.24c0 .15.26.22.34.08.44-.83 1.5-1.21 2.65-1.62.5-.18 1.04-.37 1.53-.6l-.04-.1.33-.18.1-.07.14-.08.1-.09.1-.12a1 1 0 0 0 .07-.31l-.02-.68-.06-.8.13-.04-.13-1.1-.4-.2H9l.04-.13.95.03h.24l.44.01q.25.02.43.16a1 1 0 0 0 .27.14c.38.1.68.08 1.02.07a6 6 0 0 1 1.48.1l.05.02.03.04.02.1.01.08.02.12.03.1c.1.2.24.17.38.12l.02.03q0 .03.07.01l.06-.03q.04-.02.04-.06l-.02-.03.1-.05.01.04q.02.02.08 0l.06-.02.02-.02q.02-.03.01-.04l-.01-.04.4-.18.41-.19.01.03q.02.02.07 0l.06-.02q.05-.04.04-.06v-.03l.07-.04.01.03q.03.03.07 0l.06-.03q.05-.02.04-.06l-.02-.02.05-.03q.1-.05.1-.1c-.05-.17-.18-.18-.31-.18h-.16l-.1-.01h-.02l-.4-.02a6 6 0 0 1-.91-.14l-.29-.07c-.46-.11-.88-.3-1.32-.49q-.53-.25-1.11-.44l-.01.01-.02.01v.02l-.05.03a1 1 0 0 0-.52-.08l-.25-.02a6 6 0 0 0-1.48-.42l-.05-.16c-.03 0-1.95-.28-2.37-.32.14-.83.53-1.66.73-2.1l.02-.05.55.04.1-.23q.07-.16.17-.3l.02-.03v-.01l.02-.01v-.01h.01l.06-.04.04-.03.03-.04v-.17a1 1 0 0 1 0-.44l.05-.15a.4.4 0 0 0 .04-.23c-.08-.42-.66-.77-1.06-.77m9.84 4.23c-.6 0-1.07.48-1.07 1.06a1.07 1.07 0 0 0 1.07 1.07 1.07 1.07 0 0 0 1.08-1.07 1.07 1.07 0 0 0-1.08-1.06" clip-rule="evenodd"/></svg>