<svg xmlns="http://www.w3.org/2000/svg" fill="none" viewBox="0 0 24 24"><path fill="currentColor" d="M2.28 12.18h.46v3.16h-.46zm6.55 3.16h.47V9.96h-.47zm-6.55-4.33h.46v-2.7h-.46zm12.98 6.62q0 .05-.06.05H0V5.98h15.2q.06 0 .06.05l-.03.05a6.4 6.4 0 0 0-3.52 5.75 6.4 6.4 0 0 0 3.52 5.74q.03.02.03.05M3.92 7.85q0-.7-.7-.7H1.1v9.36h2.11q.7 0 .7-.7v-3.63q0-.58-.46-.7.46-.12.47-.7zm1.64.93H4.39v7.73h1.17zm0-1.64H4.39v1.18h1.17zm1.63 0H6.02v9.37H7.2zm3.28 0H9.3v1.64h-.94q-.7 0-.7.7v6.33q0 .7.7.7h2.11zM24 11.84a5.85 5.85 0 0 1-5.85 5.85 5.77 5.77 0 0 1-5.85-5.48A5.88 5.88 0 0 1 18.52 6 5.85 5.85 0 0 1 24 11.83m-2.51.03-5.06-2.91v5.82z"/></svg>