<svg xmlns="http://www.w3.org/2000/svg" fill="none" viewBox="0 0 24 24"><path fill="currentColor" d="M12 3.8c2.67 0 2.99.01 4.04.06.98.05 1.5.2 1.86.34.47.19.8.4 1.15.75s.56.68.75 1.15c.13.36.3.88.34 1.86.05 1.05.06 1.37.06 4.04s-.01 2.99-.06 4.04c-.04.98-.2 1.5-.34 1.86a3.3 3.3 0 0 1-1.9 1.9c-.35.13-.88.3-1.86.34-1.05.05-1.37.06-4.04.06s-2.99-.01-4.04-.06c-.98-.04-1.5-.2-1.86-.34a3 3 0 0 1-1.15-.75 3 3 0 0 1-.75-1.15 6 6 0 0 1-.34-1.86C3.81 15 3.8 14.67 3.8 12s.01-2.99.06-4.04c.05-.98.2-1.5.34-1.86a3.3 3.3 0 0 1 1.9-1.9c.36-.13.88-.3 1.86-.34C9 3.81 9.33 3.8 12 3.8M12 2c-2.72 0-3.06.01-4.12.06-1.07.05-1.8.22-2.43.47a5 5 0 0 0-1.77 1.15 5 5 0 0 0-1.16 1.77 7 7 0 0 0-.46 2.43C2.01 8.94 2 9.28 2 12s.01 3.06.06 4.12c.05 1.07.22 1.8.47 2.43a5 5 0 0 0 1.15 1.77 5 5 0 0 0 1.77 1.16 8 8 0 0 0 2.43.46c1.06.05 1.4.06 4.12.06s3.06-.01 4.12-.06a7 7 0 0 0 2.43-.46 5 5 0 0 0 1.77-1.16 5 5 0 0 0 1.16-1.77c.24-.63.41-1.36.46-2.43.05-1.06.06-1.4.06-4.12s-.01-3.06-.06-4.12a7 7 0 0 0-.46-2.43 5 5 0 0 0-1.16-1.77 5 5 0 0 0-1.77-1.16 7 7 0 0 0-2.43-.46C15.06 2.01 14.72 2 12 2"/><path fill="currentColor" d="M12 6.87a5.14 5.14 0 1 0 0 10.27 5.14 5.14 0 0 0 0-10.28m0 8.47a3.33 3.33 0 1 1 0-6.66 3.33 3.33 0 0 1 0 6.66m5.34-7.47a1.2 1.2 0 1 0 0-2.4 1.2 1.2 0 0 0 0 2.4"/></svg>