<svg xmlns="http://www.w3.org/2000/svg" fill="none" viewBox="0 0 24 24"><path fill="currentColor" d="m14.8 8.3-3.28 3.28-1.31-1.32-1.42 1.41 2.73 2.75 4.69-4.71z"/><path fill="currentColor" fill-rule="evenodd" d="M21.18 3.16a37 37 0 0 0-18.36 0L2 3.38l.08.84c.31 3.19.33 6.52 1.02 9.64.35 1.6 1.64 3.36 3.17 4.78a14 14 0 0 0 5.46 3.28L12 22l.27-.08c1.93-.55 3.9-1.83 5.46-3.28 1.53-1.42 2.82-3.18 3.17-4.78.15-.67.34-2.46.52-4.33l.5-5.3.08-.85zM4.14 4.9a35 35 0 0 1 15.72 0c-.26 2.83-.29 5.77-.9 8.54-.22 1.01-1.16 2.42-2.58 3.75A13 13 0 0 1 12 19.92a13 13 0 0 1-4.38-2.74c-1.42-1.33-2.36-2.73-2.58-3.75-.61-2.77-.64-5.71-.9-8.54" clip-rule="evenodd"/></svg>