<svg xmlns="http://www.w3.org/2000/svg" fill="none" viewBox="0 0 24 24"><path fill="currentColor" fill-rule="evenodd" d="m4.18 4 .2 2.56.46 5.2c.09.87.16 1.46.21 1.69.29 1.29.74 2.94 1.76 4.25C7.8 18.97 9.34 20 12 20s4.21-1.03 5.19-2.3a11 11 0 0 0 1.76-4.25c.05-.23.12-.82.2-1.68a189 189 0 0 0 .46-5.2L19.82 4zM3.09 2H22l-.1 1.1a294 294 0 0 0-.5 5.87l-.27 3c-.09.83-.17 1.54-.25 1.91-.3 1.34-.82 3.36-2.13 5.05C17.4 20.69 15.28 22 12 22s-5.4-1.32-6.75-3.06a13 13 0 0 1-2.13-5.06c-.08-.37-.16-1.08-.25-1.9l-.27-3-.19-2.28-.3-3.6L2 2z" clip-rule="evenodd"/><path fill="currentColor" d="M14.91 13.08V9.43h-.9V8.18h3.17v1.25h-.9v3.65z"/><path fill="currentColor" d="M12.38 13.15a2.8 2.8 0 0 1-1.77-.6l.56-1.14c.4.32.81.53 1.15.53.25 0 .34-.13.34-.26v-.01c0-.16-.15-.25-.5-.41-.84-.37-1.36-.76-1.36-1.59v-.03c0-.93.67-1.54 1.66-1.54.5 0 1 .11 1.56.52l-.6 1.09a2 2 0 0 0-.95-.4c-.2 0-.3.12-.3.24v.02c0 .15.15.25.59.45.71.33 1.26.75 1.26 1.54v.04c0 .93-.68 1.55-1.64 1.55m-3.66.03c-1.14 0-1.9-.9-1.9-2.42v-.26c0-1.52.76-2.43 1.9-2.43s1.91.9 1.91 2.42v.26c0 1.52-.77 2.43-1.91 2.43m0-1.24c.33 0 .53-.31.53-1.2v-.21c0-.9-.2-1.22-.53-1.22-.32 0-.53.31-.53 1.21v.2c0 .9.2 1.22.54 1.22"/></svg>